/* XPM */
static char *result[] = {
/* columns rows colors chars-per-pixel */
"64 64 85 1 ",
"  c #4F2713",
". c #4F2915",
"X c #522C16",
"o c #542F19",
"O c #563017",
"+ c #56311A",
"@ c #59351D",
"# c #5C381F",
"$ c #573622",
"% c #593722",
"& c #5D3B23",
"* c #5D3D28",
"= c #613D25",
"- c #603E28",
"; c #5E422E",
": c #5F4430",
"> c #624126",
", c #64452B",
"< c #68452F",
"1 c #664A2E",
"2 c #694B2E",
"3 c #634631",
"4 c #634A35",
"5 c #6B4D32",
"6 c #644C39",
"7 c #6C4F3A",
"8 c #6E5134",
"9 c #67503B",
"0 c #6C523D",
"q c #705437",
"w c #72553A",
"e c #76593D",
"r c #785A3F",
"t c #6B5542",
"y c #6C5A45",
"u c #6E5C4A",
"i c #715642",
"p c #725A46",
"a c #7A5E42",
"s c #745D4A",
"d c #795F4C",
"f c #6F604D",
"g c #7C6244",
"h c #74614D",
"j c #7E654A",
"k c #746552",
"l c #7A6653",
"z c #776957",
"x c #7B6956",
"c c #776A58",
"v c #7C6D5B",
"b c #7F705F",
"n c #7F7160",
"m c #80664A",
"M c #836A4D",
"N c #866D51",
"B c #886F53",
"V c #816D5B",
"C c #877054",
"Z c #8A7255",
"A c #82715E",
"S c #8C765A",
"D c #8E785B",
"F c #917B5E",
"G c #847363",
"H c #887566",
"J c #867867",
"K c #877969",
"L c #8B7E6D",
"P c #937E62",
"I c #8C806E",
"U c #968065",
"Y c #988367",
"T c #998569",
"R c #8E8272",
"E c #918574",
"W c #928778",
"Q c #958A7B",
"! c #988D7E",
"~ c #9A8F81",
"^ c #9D9285",
"/ c #9F9589",
"( c #A0968A",
") c #A2998C",
"_ c None",
/* pixels */
"________________________________________________________________",
"________________________________________________________________",
"________________________________________________________________",
"________________________________________________________________",
"________________________________________________________________",
"________________________________________________________________",
"________________________________________________________________",
"________________________________________________________________",
"________________________________________________________________",
"________________________________________________________________",
"________________________________________________________________",
"________________________________________________________________",
"_____________3,-=@____________________________&=>-3_____________",
"____________3vxx7OOO@O@O##_@OO@OooOXO_OooOOOOO&ixzv,____________",
"____________0GVve=222222r8=r222222228=5w222222-pvVG4____________",
"____________iLKKm=rgaaaaMr2Bmagggggmm<rMagrgga<hKKL7____________",
"____________pQERl,rMMMMMBaqZBMMMMMMNZ5aBMMMmMm<mLEWi____________",
"____________d!WWV<mNNNNBFmwFBMMBMNNBS7gZMMBMBm7VWW~i____________",
"____________d^QQV<mBDDSSPBrFDZDZSSZDDqaSZSSSSV5VWW~p____________",
"____________d^~~V-mBDDDDPBgFFDDDDSSDDwmPSSSSDZ5V~~^p____________",
"____________a(^)S<mDFFFFTBgPPFPPPPPDDwmPPPDPFD7H^^^s____________",
"____________d())H<mFUUUUTZgPPPPPPPPPPeMPPPPPPF7H(//d____________",
"____________d())G<mFUUUUTBgPPYYPPPPUPwVPPPPPPP7H(//d____________",
"____________d())H,mFUUUUTBaYPPPPUUPUPwMTPPPPPF7H(//s____________",
"____________p(~^V>mSFFFFYBrPFFFFPPDPPqMPFFFFFS7A~~(p____________",
"____________e(~!V=mZFSFFUBrUFDFDSSDFPqMUSDDDFZ7V~~~d____________",
"____________i^QQN=aZFFDFPNrUFDDDDHDFPqMPDDDDDZ8VQQ^p____________",
"____________e!ERm=aZFFDSFmeFDDDDSSDFF7mPDDDDDZ2MEE~p____________",
"____________w!EEd=eMNNNNZmrBBNNNNNNBZ2mBMVMMVM<xREQp____________",
"____________0QRLd@wmNMMMBr2NMMMmMMMNB,rBMmMMMm<lKLWi____________",
"____________7WLLp@wmMMMMBr>NMmmmjmmMB=wBMMMMMm<dKLW0____________",
"____________<HGAi@wmMMmmMw>MgrrreeraM=wBmmjmma-pAVG7____________",
"____________#&##@@wrrrrem5@8,&>>*=&-a#<reqqqqq;@@@@%____________",
"____________,xVAwO#####>=#X#+8VvxV7@=O@##$&###@evCx1____________",
"____________5RRRgo@@@@OOOOXoXiAppVpOOX@#++##$@OfRRR0____________",
"____________6Gbb0O>,,,,,<#+=O6f#Xi6o=X>51111::O9vbG5____________",
"____________5Gbv0O,88qqqw,O2O1ch@9:O#O,w888888+9vvn4____________",
"____________4bzz0o>58888e,O2@:kf+94O&O1w822281O9zzn3____________",
"____________2bkk5O>58282e,O2O:f09u:O#O>q285511O6ffv*____________",
"____________:ckk4X;58282e,O2@;::04#@>O1q555881O4fzz*____________",
"____________;hff4X;12282q1+11@XXOX@>1+1q581881O4fff*____________",
"____________#h0f:.#12222q,+11>>>;&,21+>q111111X:yyu$____________",
"____________@fyy1.;15111q,O2511111251+,q111111X;yys$____________",
"____________$hf0:.#15111q>+2515511551O,q151111X;yyh$____________",
"____________O989;X#;11,:w,O111<31111>O,811111;O;690+____________",
"____________X;;&$&#;&&&#2,X#&=&&&&=##O>2&&&&&##&*%*.____________",
"____________$cvxcf+.XXOOOOXooXXXOXXXO OOXOXXXOfvzvz%____________",
"____________$cccvkO10000tipssssshhpfhpfeyy90:Ofvzzz%____________",
"____________$ttyuuotzkzzvvvvnnnnnnnvnnnnvzzzt+uutyt$____________",
"____________o3::6tX;43:446466666666t:6:666:6:X06:::.____________",
"____________.X..o..o.X.XXX.XXXXX..o...X...X.. XX.X..____________",
"________________________________________________________________",
"________________________________________________________________",
"________________________________________________________________",
"________________________________________________________________",
"________________________________________________________________",
"________________________________________________________________",
"________________________________________________________________",
"________________________________________________________________",
"________________________________________________________________",
"________________________________________________________________",
"________________________________________________________________",
"________________________________________________________________",
"________________________________________________________________"
};
