/* XPM */
static char *result[] = {
/* columns rows colors chars-per-pixel */
"64 64 207 2 ",
"   c #05001E",
".  c #0A001F",
"X  c #3D131F",
"o  c #370E1F",
"O  c #0D0124",
"+  c #0F0529",
"@  c #140525",
"#  c #180725",
"$  c #1C0926",
"%  c #110628",
"&  c #1D0B2A",
"*  c #240B24",
"=  c #2B0D23",
"-  c #220E29",
";  c #200721",
":  c #330F21",
">  c #2D152C",
",  c #2D192E",
"<  c #281129",
"1  c #361122",
"2  c #3B1321",
"3  c #321B2F",
"4  c #3C1B28",
"5  c #331E30",
"6  c #3C1E31",
"7  c #362232",
"8  c #3F2231",
"9  c #43161D",
"0  c #4A171F",
"q  c #4C181F",
"w  c #531A1E",
"e  c #5C1E1E",
"r  c #601F1D",
"t  c #5E201F",
"y  c #65211B",
"u  c #6D241C",
"i  c #672416",
"p  c #73271C",
"a  c #74291E",
"s  c #7C2C1C",
"d  c #7B2B17",
"f  c #421622",
"g  c #451923",
"h  c #4C1D23",
"j  c #471E29",
"k  c #521E22",
"l  c #4C232A",
"z  c #5E2322",
"x  c #562525",
"c  c #432433",
"v  c #4D2D37",
"b  c #442C36",
"n  c #512D37",
"m  c #4A3139",
"M  c #56343A",
"N  c #5D353B",
"B  c #5B3C3E",
"V  c #553B3D",
"C  c #642521",
"Z  c #682721",
"A  c #6D2A22",
"S  c #632E28",
"D  c #732D22",
"F  c #7B2F21",
"G  c #793123",
"H  c #793726",
"J  c #663E3E",
"K  c #603739",
"L  c #723833",
"P  c #73423B",
"I  c #624442",
"U  c #6B4944",
"Y  c #764743",
"T  c #794943",
"R  c #695249",
"E  c #7C5C4D",
"W  c #832E1D",
"Q  c #85311E",
"!  c #8B341D",
"~  c #883213",
"^  c #94391D",
"/  c #9B3D1E",
"(  c #96391A",
")  c #A13F1F",
"_  c #853421",
"`  c #8B3620",
"'  c #8D3A23",
"]  c #8D3D28",
"[  c #923B22",
"{  c #9B3E20",
"}  c #9E4116",
"|  c #A64419",
" . c #B9571B",
".. c #AB501E",
"X. c #8A4428",
"o. c #9D4222",
"O. c #9B4926",
"+. c #964228",
"@. c #925039",
"#. c #A44321",
"$. c #AB4622",
"%. c #A54923",
"&. c #AC4A22",
"*. c #B34D23",
"=. c #AC5226",
"-. c #AA572A",
";. c #B65325",
":. c #BB5525",
">. c #BD5A26",
",. c #BE5F28",
"<. c #B65B27",
"1. c #A85A39",
"2. c #BB6129",
"3. c #C25C27",
"4. c #C25E28",
"5. c #C46226",
"6. c #C56228",
"7. c #C96629",
"8. c #C6692A",
"9. c #CC6B2B",
"0. c #CC6C24",
"q. c #D06F2A",
"w. c #CF702C",
"e. c #CF7024",
"r. c #D3742C",
"t. c #D6792D",
"y. c #DA7C2D",
"u. c #D8762B",
"i. c #D27630",
"p. c #D77D31",
"a. c #D97E30",
"s. c #86554A",
"d. c #8D5A4B",
"f. c #87584B",
"g. c #945A48",
"h. c #93614F",
"j. c #9B624F",
"k. c #956D55",
"l. c #9B6D54",
"z. c #9C7558",
"x. c #B66B46",
"c. c #A87458",
"v. c #B6795A",
"b. c #B57859",
"n. c #A5684F",
"m. c #C37E53",
"M. c #C1764F",
"N. c #DD812E",
"B. c #DA8333",
"V. c #DE8935",
"C. c #E0842E",
"Z. c #E3882F",
"A. c #E38B33",
"S. c #E38934",
"D. c #E49137",
"F. c #EA9435",
"G. c #ED9A37",
"H. c #E5953B",
"J. c #E6993C",
"K. c #EC9D3B",
"L. c #EA963A",
"P. c #EEA13C",
"I. c #F2A63E",
"U. c #B7815E",
"Y. c #A9815E",
"T. c #A98B64",
"R. c #B58861",
"E. c #B29569",
"W. c #C48255",
"Q. c #E79D40",
"!. c #ECA442",
"~. c #EDAC48",
"^. c #F3AB44",
"/. c #F1A541",
"(. c #F2B24B",
"). c #F2B54B",
"_. c #F3BB51",
"`. c #CC8D63",
"'. c #C68C63",
"]. c #D08E63",
"[. c #C29266",
"{. c #CA9869",
"}. c #D39165",
"|. c #D39B6A",
" X c #DD9D6A",
".X c #D89A62",
"XX c #E09F6B",
"oX c #DDA16C",
"OX c #D3A36E",
"+X c #D8AA72",
"@X c #DDB97A",
"#X c #E2A46D",
"$X c #EAA66E",
"%X c #EBAC72",
"&X c #E3AB73",
"*X c #EDB174",
"=X c #EBBB7A",
"-X c #F2B777",
";X c #F3C055",
":X c #E4C17E",
">X c #EEC07C",
",X c #F5C37E",
"<X c #FCCF84",
"1X c #F3C982",
"2X c #FAD186",
"3X c #EFC680",
"4X c None",
/* pixels */
"4X4X4X4X4X4X4X4X4X4X4X4X4X4X4X4X4X4X4X4X4X4X4X4X4X4X4X4X4X4X4X4X4X4X4X4X4X4X4X4X4X4X4X4X4X4X4X4X4X4X4X4X4X4X4X4X4X4X4X4X4X4X4X4X",
"4X4X4X4X4X4X4X4X4X4X4X4X4X4X4X4X4X4X4X4X4X4X4X4X4X4X4X4X4X4X4X4X4X4X4X4X4X4X4X4X4X4X4X4X4X4X4X4X4X4X4X4X4X4X4X4X4X4X4X4X4X4X4X4X",
"4X4X4X4X4X4X4X4X4X4X4X4X4X4X4X4X4X4X4X4X4X4X4X4X4X4X4X4X4X4X4X4X4X4X4X4X4X4X4X4X4X4X4X4X4X4X4X4X4X4X4X4X4X4X4X4X4X4X4X4X4X4X4X4X",
"4X4X4X4X4X4X4X4X4X4X4X4X4X4X4X4X4X4X4X4X4X4X4X4X4X4X4X4X4X4X4X4X4X4X4X4X4X4X4X4X4X4X4X4X4X4X4X4X4X4X4X4X4X4X4X4X4X4X4X4X4X4X4X4X",
"4X4X4X4X4X4X4X4X4X4X4X4X4X4X4X4X4X@ O O O @ . . @ O @ @ O @ O 4X4X4X4X4X4X4X4X4X4X4X4X4X4X4X4X4X4X4X4X4X4X4X4X4X4X4X4X4X4X4X4X4X",
"4X4X4X4X4X4X4X4X4X4X4X4X4X4X4X4X# # # # # # # ; # # @ @ # # # # 4X4X4X4X4X4X4X4X4X4X4X4X4X4X4X4X4X4X4X4X4X4X4X4X4X4X4X4X4X4X4X4X",
"4X4X4X4X4X4X4X4X4X4X4X4X4X4X4X4X; * * * = = : ; = * * * $ * * * 4X4X4X4X4X4X4X4X4X4X4X4X4X4X4X4X4X4X4X4X4X4X4X4X4X4X4X4X4X4X4X4X",
"4X4X4X4X4X4X4X4X4X4X4X4X4X4X4X* = o X X X 9 9 9 X o 1 1 o o o = = 4X4X4X4X4X4X4X4X4X4X4X4X4X4X4X4X4X4X4X4X4X4X4X4X4X4X4X4X4X4X4X",
"4X4X4X4X4X4X4X4X4X4X4X4X4X% # = X 0 w e r i i i r w w k w w 0 9 = $ @ 4X4X4X4X4X4X4X4X4X4X4X4X4X4X4X4X4X4X4X4X4X4X4X4X4X4X4X4X4X",
"4X4X4X4X4X4X4X4X4X4X4X4X@ # * o h e u d ~ ~ ~ ~ d p r r u r r w 2 * @ @ 4X4X4X4X4X4X4X4X4X4X4X4X4X4X4X4X4X4X4X4X4X4X4X4X4X4X4X4X",
"4X4X4X4X4X4X4X4X4X4X4X4X* = : 0 e a Q ( ) } | } ( ~ W W W p u k 9 = = # 4X4X4X4X4X4X4X4X4X4X4X4X4X4X4X4X4X4X4X4X4X4X4X4X4X4X4X4X",
"4X4X4X4X4X4X4X4X4X4X4X= 1 f h z a ! ( |  . . . ...) { ^ ^ W W r k 9 o = = 4X4X4X4X4X4X4X4X4X4X4X4X4X4X4X4X4X4X4X4X4X4X4X4X4X4X4X",
"4X4X4X4X4X4X4X4X4X% * 1 h z A F ` ) $.:.5.0.e.0.5.<.=.%.o.[ Q F y e q 2 : ; @ 4X4X4X4X4X4X4X4X4X4X4X4X4X4X4X4X4X4X4X4X4X4X4X4X4X",
"4X4X4X4X4X4X4X4X% # = f z F ` { #.$.;.5.e.y.y.y.r.8.2.<.%.{ [ W s u r q : ; @ % 4X4X4X4X4X4X4X4X4X4X4X4X4X4X4X4X4X4X4X4X4X4X4X4X",
"4X4X4X4X4X4X4X4X# * : h D ` #.$.*.;.3.7.r.y.B.y.y.w.8.,.=.%.{ [ ! W p k 2 * @ % 4X4X4X4X4X4X4X4X4X4X4X4X4X4X4X4X4X4X4X4X4X4X4X4X",
"4X4X4X4X4X4X4X* = o g C F { &.*.:.3.4.9.r.u.u.r.w.7.6.>.:.;.=.%.) [ W C f * @ O 4X4X4X4X4X4X4X4X4X4X4X4X4X4X4X4X4X4X4X4X4X4X4X4X",
"4X4X4X4X4X# * = 9 g r D ` #.*.:.3.6.8.8.9.9.7.7.4.4.4.3.4.,.,.;.*.%.' A f = @ O 4X4X4X4X4X4X4X4X4X4X4X4X4X4X4X4X4X4X4X4X4X4X4X4X",
"4X4X4X4X@ # * : g r p Q ) $.:.3.6.9.9.8.4.3.3.3.:.:.3.3.4.8.8.6.>.*.o.G h = @ @ 4X4X4X4X4X4X4X4X4X4X4X4X4X4X4X4X4X4X4X4X4X4X4X4X",
"4X4X4X4X@ # * o w u W ^ #.*.3.4.9.r.9.9.3.3.:.:.3.3.4.6.9.9.9.8.6.:.%._ z 4 = $ 4X4X4X4X4X4X4X4X4X4X4X4X4X4X4X4X4X4X4X4X4X4X4X4X",
"4X4X4X4XO @ * X e a ! ) $.:.3.7.r.u.u.9.4.3.:.3.6.9.w.9.w.9.9.8.6.3.=.[ A x g 1 = 4X4X4X4X4X4X4X4X4X4X4X4X4X4X4X4X4X4X4X4X4X4X4X",
"4X4X4X4X% @ = X z F [ #.*.>.6.9.u.y.y.u.9.3.4.9.i.p.a.p.i.9.9.6.7.4.:.%.` D z h 2 * # 4X4X4X4X4X4X4X4X4X4X4X4X4X4X4X4X4X4X4X4X4X",
"4X4X4X4XO # = f C _ / $.;.3.7.r.y.C.C.y.q.7.9.i.S.D.Q.S.p.q.6.6.4.6.>.*.%.' G t g = # O 4X4X4X4X4X4X4X4X4X4X4X4X4X4X4X4X4X4X4X4X",
"4X4X4X4XO @ = f Z ` | ;.:.5.9.t.C.Z.Z.a.i.q.r.a.Q.!.Q.Q.a.i.9.9.9.9.7.,.;.#.' A g = # O 4X4X4X4X4X4X4X4X4X4X4X4X4X4X4X4X4X4X4X4X",
"4X4X4X4XO # = h D [ %.;.>.6.w.y.Z.F.F.A.y.p.p.D.Q.^./.Q.Q.Q.p.i.u.r.r.7.5.<.O.D l = % O 4X4X4X4X4X4X4X4X4X4X4X4X4X4X4X4X4X4X4X4X",
"4X4X4X4XO # = h D o.;.:.6.7.t.B.F.G.G.F.Z.C.Z.L.~._._.(.!.Q.Q.S.C.a.y.u.q.5.=.H l = % O 4X4X4X4X4X4X4X4X4X4X4X4X4X4X4X4X4X4X4X4X",
"4X4X4X4XO # = l G #.;.3.6.9.i.B.D.K.P.G.F.Z.A.Q.(._._._.(./.Q.S.F.S.C.y.u.q.-.X.x 1 # O 4X4X4X4X4X4X4X4X4X4X4X4X4X4X4X4X4X4X4X4X",
"4X4X4X4X@ @ = h G o.;.3.7.9.t.B.D.K.G.F.F.C.A.J.~._._._.).^./.K.F.S.C.y.B.w.2.X.S 4 = $ 4X4X4X4X4X4X4X4X4X4X4X4X4X4X4X4X4X4X4X4X",
"4X4X4X4XO # = l D { *.3.6.8.w.p.V.D.D.S.a.y.B.S.Q.~.).).(.^./.K.A.C.y.u.r.8.2.O.H x g 2 = 4X4X4X4X4X4X4X4X4X4X4X4X4X4X4X4X4X4X4X",
"4X4X4X4XO # = g A [ %.;.3.6.9.p.p.B.B.i.r.9.q.a.V.Q.I.^.^.I./.L.S.u.q.q.6.5.;.%.' D Z h 1 * @ 4X4X4X4X4X4X4X4X4X4X4X4X4X4X4X4X4X",
"4X4X4X4XO # = g Z ! | *.:.6.7.w.r.r.i.9.6.4.4.q.p.A.F.P.I.I.P.L.B.r.7.6.3.>.;.&.) ` F z g = # @ 4X4X4X4X4X4X4X4X4X4X4X4X4X4X4X4X",
"4X4X4X4XO # * f C Q / &.;.>.6.7.9.8.8.6.,.:.3.7.u.y.A.F.P.P.G.A.p.9.6.3.3.3.;.*.#.{ _ y f * @ % 4X4X4X4X4X4X4X4X4X4X4X4X4X4X4X4X",
"4X4X4X4X@ # = 2 t s ^ %.;.:.5.6.7.7.7.6.3.>.3.7.q.y.C.F.G.G.G.A.p.q.7.3.3.3.;.&.) ^ s e X * @ O 4X4X4X4X4X4X4X4X4X4X4X4X4X4X4X4X",
"4X4X4X4X% @ * 2 e s ! ) $.:.3.3.3.3.3.3.3.4.6.7.9.t.N.S.F.F.F.S.p.r.9.8.6.6.:.&./ ! p w o ; @ O 4X4X4X4X4X4X4X4X4X4X4X4X4X4X4X4X",
"4X4X4X4X@ # * 1 w r W { #.*.:.:.:.:.:.3.>.4.6.7.9.w.t.y.Z.A.Z.C.y.r.w.9.7.6.>.&./ ! p w X * # @ 4X4X4X4X4X4X4X4X4X4X4X4X4X4X4X4X",
"4X4X4X4X@ @ * : 0 r p Q { $.*.*.;.*.*.:.>.3.4.6.8.9.r.u.y.Z.C.y.t.w.9.9.6.,.<.=.%.X.H x l 4 > < 4X4X4X4X4X4X4X4X4X4X4X4X4X4X4X4X",
"4X4X4X4X4X# * = 2 0 e A W { #.$.$.$.*.*.;.:.,.>.5.6.7.0.u.y.y.u.u.w.8.2.;.=.=.-.1.1.g.@.P N n c 3 4X4X4X4X4X4X4X4X4X4X4X4X4X4X4X",
"4X4X4X4X4X4X& * = : g e p Q ^ ) #.#.$.$.&.*.*.;.>.,.4.7.9.q.r.r.w.9.5.<.%.O.O.1.x.m.W.b.n.d.T N c - O 4X4X4X4X4X4X4X4X4X4X4X4X4X",
"4X4X4X4X4X4X4X& ; * : g e p W ! { { ) ) { ) #.$.&.:.>.3.6.7.7.9.7.8.>.&.[ ! X.1.m..XoX X'.v.j.T n > # O 4X4X4X4X4X4X4X4X4X4X4X4X",
"4X4X4X4X4X4X4X4X@ # ; : q r p a W _ Q Q _ ` ` { #.*.;.:.>.3.4.6.7.5.>.%.^ _ ' 1.W.$X*X%XXX].v.d.J c > - 4X4X4X4X4X4X4X4X4X4X4X4X",
"4X4X4X4X4X4X4X4X% @ $ = 1 0 w e k C Z Z C C D W { #.*.*.;.;.:.>.3.3.:.&./ ` +.1.m.XX%X-X%XXX`.c.s.J n 8 > 4X4X4X4X4X4X4X4X4X4X4X",
"4X4X4X4X4X4X4X4X4X4X& * = : o X f g g g f g k Z _ { $.$.*.&.*.;.3.3.:.&.) { +.1.M.}.XX%X*X%XoX'.c.d.P N 8 - .   . . . 4X4X4X4X4X",
"4X4X4X4X4X4X4X4X4X4X4X$ * * * * = = * * * * 2 k D ` { ) ) ) #.$.*.*.*.&.) { o.1.x.m.].XX&X*X%XoX].v.j.T n , # O @ # # # 4X4X4X4X",
"4X4X4X4X4X4X4X4X4X4X4X4X# # # @ @ # # % @ # = g C F _ ` ` _ ` [ o.#.#.{ ` ` ] +.g.n.v.`.oX%X%X%X#X`.b.h.P m 7 5 3 7 5 3 4X4X4X4X",
"4X4X4X4X4X4X4X4X4X4X4X4X4X% % % % % % + O % - : h z Z Z Z Z A A D G G D D A S L L s.d.c.'.XX%X%X$XXX{.T.k.E R R R U U B m 4X4X4X",
"4X4X4X4X4X4X4X4X4X4X4X4X4X4X4X4X4X% % % + % & = 2 4 g g g g g g h h x h h g g j j n J f.c.].XX$X$X$X&XOXE.E.E.T.T.Y.z.E B 3 # . ",
"4X4X4X4X4X4X4X4X4X4X4X4X4X4X4X4X4X4X4X4X4X4X4X- * * = * * = = = = = = = = = = * < 1 c J d.v.].XX%X*X-X=X:X:X@X:X=X+X[.l.I 3 # O ",
"4X4X4X4X4X4X4X4X4X4X4X4X4X4X4X4X4X4X4X4X4X4X4X4X# # # # # # # # # # # # # @ @ @ @ # > n T j.v.{.&X-X,X<X2X2X2X,X=X+XE.k.P 5 #   ",
"4X4X4X4X4X4X4X4X4X4X4X4X4X4X4X4X4X4X4X4X4X4X4X4X4X+ O @ O + + @ % % + O + % % O + % - 6 N T h.v.OX>X<X2X2X>X:X+X{.U.z.E V 5 # . ",
"4X4X4X4X4X4X4X4X4X4X4X4X4X4X4X4X4X4X4X4X4X4X4X4X4X4X4X4X4X% % % % % % % % % % % + % - < 6 v U k.{.:X2X2X3X&X|.R.l.E U B b 4X4X4X",
"4X4X4X4X4X4X4X4X4X4X4X4X4X4X4X4X4X4X4X4X4X4X4X4X4X4X4X4X4X4X4X4X4X4X4X4X4X4X4X4X4X4X& & & , m E E.:X2X2X*X|.v.h.U v 7 > 4X4X4X4X",
"4X4X4X4X4X4X4X4X4X4X4X4X4X4X4X4X4X4X4X4X4X4X4X4X4X4X4X4X4X4X4X4X4X4X4X4X4X4X4X4X4X4X4XO O # 7 R T.@X,X,X%X}.b.s.M , $ O 4X4X4X4X",
"4X4X4X4X4X4X4X4X4X4X4X4X4X4X4X4X4X4X4X4X4X4X4X4X4X4X4X4X4X4X4X4X4X4X4X4X4X4X4X4X4X4X4XO O # 5 I z.OX>X>X*XXXU.d.M < %   4X4X4X4X",
"4X4X4X4X4X4X4X4X4X4X4X4X4X4X4X4X4X4X4X4X4X4X4X4X4X4X4X4X4X4X4X4X4X4X4X4X4X4X4X4X4X4X4XO O % > B k.E.&X*X-X%X|.l.J > %   4X4X4X4X",
"4X4X4X4X4X4X4X4X4X4X4X4X4X4X4X4X4X4X4X4X4X4X4X4X4X4X4X4X4X4X4X4X4X4X4X4X4X4X4X4X4X4X4XO O @ > M f.b.`.#X*X%X|.z.I 3 # O 4X4X4X4X",
"4X4X4X4X4X4X4X4X4X4X4X4X4X4X4X4X4X4X4X4X4X4X4X4X4X4X4X4X4X4X4X4X4X4X4X4X4X4X4X4X4X4X4X4XO $ > v Y j.b.'.|.|.E.l.I 3 # O 4X4X4X4X",
"4X4X4X4X4X4X4X4X4X4X4X4X4X4X4X4X4X4X4X4X4X4X4X4X4X4X4X4X4X4X4X4X4X4X4X4X4X4X4X4X4X4X4X4X+ $ < c N Y s.h.l.c.l.E V 3 # O 4X4X4X4X",
"4X4X4X4X4X4X4X4X4X4X4X4X4X4X4X4X4X4X4X4X4X4X4X4X4X4X4X4X4X4X4X4X4X4X4X4X4X4X4X4X4X4X4X4X4X4X< 5 c v M B I I I V 8 , 4X4X4X4X4X4X",
"4X4X4X4X4X4X4X4X4X4X4X4X4X4X4X4X4X4X4X4X4X4X4X4X4X4X4X4X4X4X4X4X4X4X4X4X4X4X4X4X4X4X4X4X4X4X4X< > > > , , 5 5 5 , 4X4X4X4X4X4X4X",
"4X4X4X4X4X4X4X4X4X4X4X4X4X4X4X4X4X4X4X4X4X4X4X4X4X4X4X4X4X4X4X4X4X4X4X4X4X4X4X4X4X4X4X4X4X4X4X4X# # # # # # $ $ 4X4X4X4X4X4X4X4X",
"4X4X4X4X4X4X4X4X4X4X4X4X4X4X4X4X4X4X4X4X4X4X4X4X4X4X4X4X4X4X4X4X4X4X4X4X4X4X4X4X4X4X4X4X4X4X4X4X4XO . O . O O 4X4X4X4X4X4X4X4X4X",
"4X4X4X4X4X4X4X4X4X4X4X4X4X4X4X4X4X4X4X4X4X4X4X4X4X4X4X4X4X4X4X4X4X4X4X4X4X4X4X4X4X4X4X4X4X4X4X4X4X4X4X4X4X4X4X4X4X4X4X4X4X4X4X4X",
"4X4X4X4X4X4X4X4X4X4X4X4X4X4X4X4X4X4X4X4X4X4X4X4X4X4X4X4X4X4X4X4X4X4X4X4X4X4X4X4X4X4X4X4X4X4X4X4X4X4X4X4X4X4X4X4X4X4X4X4X4X4X4X4X",
"4X4X4X4X4X4X4X4X4X4X4X4X4X4X4X4X4X4X4X4X4X4X4X4X4X4X4X4X4X4X4X4X4X4X4X4X4X4X4X4X4X4X4X4X4X4X4X4X4X4X4X4X4X4X4X4X4X4X4X4X4X4X4X4X",
"4X4X4X4X4X4X4X4X4X4X4X4X4X4X4X4X4X4X4X4X4X4X4X4X4X4X4X4X4X4X4X4X4X4X4X4X4X4X4X4X4X4X4X4X4X4X4X4X4X4X4X4X4X4X4X4X4X4X4X4X4X4X4X4X"
};
