/* XPM */
static char *result[] = {
/* columns rows colors chars-per-pixel */
"64 64 75 1 ",
"  c #4B240E",
". c #4D2610",
"X c #4F2913",
"o c #532D15",
"O c #532F18",
"+ c #563017",
"@ c #55321B",
"# c #5A361E",
"$ c #5C381E",
"% c #603A1F",
"& c #563621",
"* c #5A3721",
"= c #5D3B22",
"- c #5B3E29",
"; c #613E23",
": c #5F422C",
"> c #644226",
", c #694427",
"< c #64452A",
"1 c #69462A",
"2 c #67492D",
"3 c #6B4B2D",
"4 c #614631",
"5 c #654A35",
"6 c #6C4D31",
"7 c #654E3B",
"8 c #684E3A",
"9 c #704F32",
"0 c #6E5234",
"q c #66513F",
"w c #6B523C",
"e c #715536",
"r c #765837",
"t c #735638",
"y c #765A3B",
"u c #795D3E",
"i c #7B603F",
"p c #675441",
"a c #695542",
"s c #6C5945",
"d c #6D5C49",
"f c #715741",
"g c #725C45",
"h c #7A5F40",
"j c #725E49",
"k c #7D6241",
"l c #74624C",
"z c #7B634D",
"x c #766550",
"c c #796751",
"v c #7B6A54",
"b c #7D6E5B",
"n c #7F705D",
"m c #806545",
"M c #826847",
"N c #806648",
"B c #846A4B",
"V c #886E4E",
"C c #8B724F",
"Z c #816954",
"A c #826E5A",
"S c #8C7353",
"D c #82725D",
"F c #8F7858",
"G c #907757",
"H c #917957",
"J c #917759",
"K c #927A5A",
"L c #837562",
"P c #877966",
"I c #877A69",
"U c #8A7D6C",
"Y c #8C806F",
"T c #988163",
"R c None",
/* pixels */
"RRRRRRRRRRRRRRRRRRRRRRRRRRRRRRRRRRRRRRRRRRRRRRRRRRRRRRRRRRRRRRRR",
"RRRRRRRRRRRRRRRRRRRRRRRRRRRRRRRRRRRRRRRRRRRRRRRRRRRRRRRRRRRRRRRR",
"RRRRRRRRRRRRRRRRRRRRRRRRR,19,99%99999RRRRRRRRRRRRRRRRRRRRRRRRRRR",
"RRRRRRRRRRRRRRRRRRRRR,1,,rkiuur%uuuuir%;;;RRRRRRRRRRRRRRRRRRRRRR",
"RRRRRRRRRRRRRRRRRRRR9uur;BCCCVm%mVBVVr%966,RRRRRRRRRRRRRRRRRRRRR",
"RRRRRRRRRRRRRRRRRRrrmGGG%VHHCCm%VCCCCu;ruu3>>RRRRRRRRRRRRRRRRRRR",
"RRRRRRRRRRRRRRRR,%mKJJKG,VKHJJV%SJGGJu;ukkhh3$;RRRRRRRRRRRRRRRRR",
"RRRRRRRRRRRRRRR3m;kKTKTK,ruuriu%ruuuur;VZSSk6,6;RRRRRRRRRRRRRRRR",
"RRRRRRRRRRRRRReMB,BMmVmi,rkuruu;ruimkr,,3kkBy,66;RRRRRRRRRRRRRRR",
"RRRRRRRRRRRRR9mVG3euhBmi>rmuuuu,riuimr,,ikime6Ne6=RRRRRRRRRRRRRR",
"RRRRRRRRRRRRR9VGm,9uMMmi,ukkuiu1riiikr,ukkii03Nke=RRRRRRRRRRRRRR",
"RRRRRRRRRRRR3uVmr,3mBMmu3rkhkku1uummkr9ikiiie6kkk3=RRRRRRRRRRRRR",
"RRRRRRRRRRR;eBmyy>rmmmmm3rimkku3uiikir9iuikue9iimh>RRRRRRRRRRRRR",
"RRRRRRRRRRR3hByyy,ummkmi3uiuuku1ikkkmr9kiiiieeiuuB6*RRRRRRRRRRRR",
"RRRRRRRRRR;tNmyyr3rmmmmi3uuuumu3ikikkr9iimuhy6uiiMh;+RRRRRRRRRRR",
"RRRRRRRRRR;yNyyyu1ummkmi3ukkiiu3kkkkmr9riiuuyeiuuiZ6ORRRRRRRRRRR",
"RRRRRRRRRR;yNyyyy3ymkmkh3uhhuku3mkkkiy6uiiiii0iiuuV6oRRRRRRRRRRR",
"RRRRRRRRRR$6uyyyy3ummy9h6yhuhkk3mmkkmu3u<iiie0iiuuk>XRRRRRRRRRRR",
"RRRRRRRRRR#=;;,,,;,1,tZ96yhhukh3mkkkiu33v0<<>>:2,>>+oRRRRRRRRRRR",
"RRRRRRRRRR+<wwfffgghgZLh,yhhuku3mkkikr1ZDlgsytwtwww-.RRRRRRRRRRR",
"RRRRRRRRRR+6ccvbbDDDDAbLhtyuyku3mmiirrzPvDDvvvvvvxz>.RRRRRRRRRRR",
"RRRRRRRRRRo5gllllcvvvAAvc6yhuiu3miiktevvvcclllljlss-XRRRRRRRRRRR",
"RRRRRRRRRR+:0wstfgjjjlvg#ehyyku3mkkmke=gxlsywwwwwww=oRRRRRRRRRRR",
"RRRRRRRRRR++++++++++o,g#6yhhhku3mmiiky>#g=+@+@@++OoooRRRRRRRRRRR",
"RRRRRRRRRR+;>>>>1=>131#30yhhykh3mkikki1,#:2:>,:2<><#XRRRRRRRRRRR",
"RRRRRRRRRRo>et00e;0yy0166yhyhhy5Mmkkkr3r:tiir0eeeee=XRRRRRRRRRRR",
"RRRRRRRRRRo>rttry>ekkhy60yhhyky3Mkkkir0itiiir0errtt=XRRRRRRRRRRR",
"RRRRRRRRRRo>yttte<yhyhy66yyyykh3Mkkiii3iiiyir0rttty=XRRRRRRRRRRR",
"RRRRRRRRRRo>yerty3yhyhy16yykyky3Mmiiii3iiyiit0etetr:XRRRRRRRRRRR",
"RRRRRRRRRRo>yette3yuuyu60yyhyyy3Mkiiii6iyiyjt0eeeee$XRRRRRRRRRRR",
"RRRRRRRRRRo>twtte3yiyyyy6yyyyly2Mkiiir0iyytit0e0eee:oRRRRRRRRRRR",
"RRRRRRRRRRo>eytte3yyyyyy6yyyyyy1kiiiir0iiyiie0eeeee$XRRRRRRRRRRR",
"RRRRRRRRRRX>ttett2yyyyrr0ryy2=;;>,euiyeuiyii00ee0e0:XRRRRRRRRRRR",
"RRRRRRRRRRX>ttett3yyytrt0ty2eFDDDD60iyekyyyy06eeeee$XRRRRRRRRRRR",
"RRRRRRRRRRX>teett6yiyttt3ty>8nvnvv<3iy0uiyyy0600000=XRRRRRRRRRRR",
"RRRRRRRRRRX>teet00yyettr0ty<2lj:ll<2iy0iyyyy0200000$XRRRRRRRRRRR",
"RRRRRRRRRRX>eeet00tyeete3ty>:jtXsl-1ye0uyyyy6200000$.RRRRRRRRRRR",
"RRRRRRRRRRX>eeywt3yyetee3ty=:jq:ts#>ye0kyyyy0<00006:XRRRRRRRRRRR",
"RRRRRRRRRRX:eeee00yywe006ey>=55675#>y06ueryy0200080$.RRRRRRRRRRR",
"RRRRRRRRRR ;e06e02tt00<03ee0=ooXoo;0ye6y20rt6<66666$.RRRRRRRRRRR",
"RRRRRRRRRRX+=**====;=tA;3ett0<>#>10tee62D2==%$$$=#*OXRRRRRRRRRRR",
"RRRRRRRRRR <jjlllvvvvvbA>0yeee6:ttetr62nvvczlllljgj= RRRRRRRRRRR",
"RRRRRRRRRR.:jglllvvvvvcbv26rete2tytt68nvlccxlllllsg- RRRRRRRRRRR",
"RRRRRRRRRR :ssjjllllxxcx866ett0:ettt02tlxxlddddjgss= RRRRRRRRRRR",
"RRRRRRRRRRX#::4:<4475wx5@0eewt0<0tyer2@5jq44:::::::@ RRRRRRRRRRR",
"RRRRRRRRRRXXX+++@o++O=5+;0eett0>eeeet0:#5@++O@+++ooXXRRRRRRRRRRR",
"RRRRRRRRRR.+>>><1#<36>@<:0etee0>ee0002:2@>22<:>>>>>@.RRRRRRRRRRR",
"RRRRRRRRRR.:00030=2w063e>0e0ee6=0000022r2try6:33366#.RRRRRRRRRRR",
"RRRRRRRRRR.:06608;6e0000>0wett6*0w0003>yeyyy6;66666@.RRRRRRRRRRR",
"RRRRRRRRRR.=00009;6e0000;00e9t6O000605<yyyyy6-66666&.RRRRRRRRRRR",
"RRRRRRRRRRX+==$>;*-;-;=;#==#&@OX##====*;;=;;=+**@OOo.RRRRRRRRRRR",
"RRRRRRRRRR.-5550888p8w8w776qpp5Oqwww88ppw8777555555@.RRRRRRRRRRR",
"RRRRRRRRRR 7nbbnbbbnnnnLLLPLIUb&PYIPInInnnnbbbbbnnn4 RRRRRRRRRRR",
"RRRRRRRRRR 5bnbvbvbbnnnLLLnLPUbOLILLnnnnbbbbAbbbvbb4.RRRRRRRRRRR",
"RRRRRRRRRR :qqqq7pppasaaaasssddOdjssdssssaaapp77777&.RRRRRRRRRRR",
"RRRRRRRRRR :qqqqpppaaasassasddsOddsdsdssssaapp77777& RRRRRRRRRRR",
"RRRRRRRRRR.-q7pppapaaassssssdls@ddddssssasappapp77p& RRRRRRRRRRR",
"RRRRRRRRRR.-777paaaapsssssddsds@lddjddsdsasaaaapp77& RRRRRRRRRRR",
"RRRRRRRRRR.O@&@&&&&&&&&&&&&&&&&X&&&&&&&&&&&&&&&&&@@X.RRRRRRRRRRR",
"RRRRRRRRRRRRRRRRRRRRRRRRRRRRRRRRRRRRRRRRRRRRRRRRRRRRRRRRRRRRRRRR",
"RRRRRRRRRRRRRRRRRRRRRRRRRRRRRRRRRRRRRRRRRRRRRRRRRRRRRRRRRRRRRRRR",
"RRRRRRRRRRRRRRRRRRRRRRRRRRRRRRRRRRRRRRRRRRRRRRRRRRRRRRRRRRRRRRRR",
"RRRRRRRRRRRRRRRRRRRRRRRRRRRRRRRRRRRRRRRRRRRRRRRRRRRRRRRRRRRRRRRR",
"RRRRRRRRRRRRRRRRRRRRRRRRRRRRRRRRRRRRRRRRRRRRRRRRRRRRRRRRRRRRRRRR"
};
