/* XPM */
static char *result[] = {
/* columns rows colors chars-per-pixel */
"64 64 72 1 ",
"  c #4D260F",
". c #4E2711",
"X c #4F2812",
"o c #522C14",
"O c #522F19",
"+ c #563017",
"@ c #55321C",
"# c #59351C",
"$ c #5D391F",
"% c #603A1F",
"& c #563621",
"* c #583620",
"= c #563925",
"- c #5C3B22",
"; c #573C29",
": c #5B3E2A",
"> c #623E23",
", c #603F28",
"< c #5D412C",
"1 c #5B4431",
"2 c #5F4A38",
"3 c #634126",
"4 c #684427",
"5 c #65452A",
"6 c #694529",
"7 c #66492D",
"8 c #6B4A2D",
"9 c #614632",
"0 c #654933",
"q c #6C4E32",
"w c #634D3B",
"e c #6A4F38",
"r c #714F33",
"t c #6E5134",
"y c #64503E",
"u c #6A523D",
"i c #725335",
"p c #735639",
"a c #765A3C",
"s c #795C3D",
"d c #675341",
"f c #6A5542",
"g c #6C5945",
"h c #6E5C4A",
"j c #745B44",
"k c #7A5F40",
"l c #715E4B",
"z c #7D6343",
"x c #74614C",
"c c #78614B",
"v c #766550",
"b c #7C6751",
"n c #7D6954",
"m c #7A6B5A",
"M c #816546",
"N c #826847",
"B c #826748",
"V c #846A4B",
"C c #886E4E",
"Z c #876D51",
"A c #886F52",
"S c #8C7354",
"D c #8F7857",
"F c #81715D",
"G c #8F7758",
"H c #907755",
"J c #907758",
"K c #937B5B",
"L c #867662",
"P c #887762",
"I c #9B8464",
"U c None",
/* pixels */
"UUUUUUUUUUUUUUUUUUUUUUUUUUUUUUUUUUUUUUUUUUUUUUUUUUUUUUUUUUUUUUUU",
"UUUUUUUUUUUUUUUUUUUU884#UUUUUUUUUUUUUUUUUUUUUUUrirrUUUUUUUUUUUUU",
"UUUUUUUUUUUUUUUUUUUaBki+UUUUUUUUUUUUUUUUUUUUUUUiCMMrUUUUUUUUUUUU",
"UUUUUUUUUUUUUUUUUU6sZzp#UUUUUUUUUUUUUUUUUUUUUUUpHCVrUUUUUUUUUUUU",
"UUUUUUUUUUUUUUUUUUkCCzqoUUUUUUUUUUUUUUUUUUUUUUUiVSAMiUUUUUUUUUUU",
"UUUUUUUUUUUUUUUUU6MSVz8#UUUUUUUUUUUUUUUUUUUUUUUrMHSAiUUUUUUUUUUU",
"UUUUUUUUUUUUUUUUU5zDVz5#UUUUUUUUUUUUUUUUUUUUUUUqMKHSiUUUUUUUUUUU",
"UUUUUUUUUUUUUUUUUaVSAz7+UUUUUUUUUUUUUUUUUUUUUUUrVIHHzrUUUUUUUUUU",
"UUUUUUUUUUUUUUUU6BJSZk7+UUUUUUUUUUUUUUUUUUUUUUUqNKKKJiUUUUUUUUUU",
"UUUUUUUUUUUUUUUU5BJSzq7+UUUUUUUUUUUUUUUUUUUUUUUrzNIKJiUUUUUUUUUU",
"UUUUUUUUUUUUUUUU4ZPGBq7+UUUUUUUUUUUUUUUUUUUUUUUrzNIKKiUUUUUUUUUU",
"UUUUUUUUUUUUUUUU3ZKGBt7oUUUUUUUUUUUUUUUUUUUUUUUiMNIKKiUUUUUUUUUU",
"UUUUUUUUUUUUUUUU7ZKSzq5+UUUUUUUUUUUUUUUUUUUUUUUrzNIKKiUUUUUUUUUU",
"UUUUUUUUUUUUUUU3ZDGGzq5oUUUUUUUUUUUUUUUUUUUUUUUrzMIKKKiUUUUUUUUU",
"UUUUUUUUUUUUUUU3AKDbtt5+UUUUUUUUUUUUUUUUUUUUUUUrMMCIKKrUUUUUUUUU",
"UUUUUUUUUUUUUUU3CKDz7t5oUUUUUUUUUUUUUUUUUUUUUUUrMMMIKKrUUUUUUUUU",
"UUUUUUUUUUUUUUU3ZJSkqq5oUUUUUUUUUUUUUUUUUUUUUUUrMMMKJJ8UUUUUUUUU",
"UUUUUUUUUUUUUUU3ZGAk5>5oUUUUUUUUUUUUUUUUUUUUUUUrsrBIJJ8UUUUUUUUU",
"UUUUUUUUUUUUUUU>SJSp-<$oUUUUUUUUUUUUUUUUUUUUUUU8jksKHH8UUUUUUUUU",
"UUUUUUUUUUUUUUU3ppp>=5ooUUUUUUUUUUUUUUUUUUUUUUU3rZrMss>UUUUUUUUU",
"UUUUUUUUUUUUUUU>qtq5:-#oUUUUUUUUUUUUUUUUUUUUUUU48pjjji>UUUUUUUUU",
"UUUUUUUUUUUUUUU>cFmx<#5oUUUUUUUUUUUUUUUUUUUUUUU6i>FLLL0UUUUUUUUU",
"UUUUUUUUUUUUUUU>gcxu=-3oUUUUUUUUUUUUUUUUUUUUUUU6M,jZZV,UUUUUUUUU",
"UUUUUUUUUUUUUUU>qgg5$83oUUUUUUUUUUUUUUUUUUUUUUU4Mi>kll,UUUUUUUUU",
"UUUUUUUUUUUUUUU>#O+>qq<oUUUUUUUUUUUUUUUUUUUUUUU4Mzi%%%#UUUUUUUUU",
"UUUUUUUUUUUUUUU>8q8877<oUUUUUUUUUUUUUUUUUUUUUUU4zzMNap>UUUUUUUUU",
"UUUUUUUUUUUUUUU$azki77<XUUUUUUUUUUUUUUUUUUUUUUU6zzzCNN3UUUUUUUUU",
"UUUUUUUUUUUUUUU>azzp7<$1+UUUUUUUUUUUUUUUUUUUUUqc4zzSVN>UUUUUUUUU",
"UUUUUUUUUUUUUUU-kzzt7<O1XUUUUUUUUUUUUUUUUUUUUU0j%zzCBB>UUUUUUUUU",
"UUUUUUUUUUUUUUU-azkt5-O<XUUUUUUUUUUUUUUUUUUUUU8j%ssHMz>UUUUUUUUU",
"UUUUUUUUUUUUUUU$kkat5-@<oUUUUUUUUUUUUUUUUUUUUU6p%ssCMk>UUUUUUUUU",
"UUUUUUUUUUUUUUU$azat5-+<XUUUUUUUUUUUUUUUUUUUUU6a%ssCkk>UUUUUUUUU",
"UUUUUUUUUUUUUUU$akat3<$=UUUUUUUUUUUUUUUUUUUUUU>08asCkk#UUUUUUUUU",
"UUUUUUUUUUUUUUU-aksq3<-+UUUUUUUUUUUUUUUUUUUUUUU%paaVzk$UUUUUUUUU",
"UUUUUUUUUUUUUUU#asaq33-XUUUUUUUUUUUUUUUUUUUUUUU>ippVza-UUUUUUUUU",
"UUUUUUUUUUUUUUU*asaq><$XUUUUUUUUUUUUUUUUUUUUUUU$iiiVkk#UUUUUUUUU",
"UUUUUUUUUUUUUUU#psp73<$XUUUUUUUUUUUUUUUUUUUUUUU$iriBaa#UUUUUUUUU",
"UUUUUUUUUUUUUUU#paa7-3$XUUUUUUUUUUUUUUUUUUUUUUU$84tBaa#UUUUUUUUU",
"UUUUUUUUUUUUUUU@paa7##*oUUUUUUUUUUUUUUUUUUUUUUUO6x>zaa#UUUUUUUUU",
"UUUUUUUUUUUUUUU+taa<*1oXUUUUUUUUUUUUUUUUUUUUUUUo>f-zat@UUUUUUUUU",
"UUUUUUUUUUUUUUU+$-$+@<XXUUUUUUUUUUUUUUUUUUUUUUU#33h@++oUUUUUUUUU",
"UUUUUUUUUUUUUUUXtvvg<@@XUUUUUUUUUUUUUUUUUUUUUUU+4@hxcx*UUUUUUUUU",
"UUUUUUUUUUUUUUUXuvvg< @<XUUUUUUUUUUUUUUUUUUUUU:e#-<xvv#UUUUUUUUU",
"UUUUUUUUUUUUUUUowll0@O@1XUUUUUUUUUUUUUUUUUUUUU:wo4$gll=UUUUUUUUU",
"UUUUUUUUUUUUUUUX$<<$+#@<oUUUUUUUUUUUUUUUUUUUUU=<+8%<<<+UUUUUUUUU",
"UUUUUUUUUUUUUUUX+##$@@<<XUUUUUUUUUUUUUUUUUUUUU&w<-4$$#XUUUUUUUUU",
"UUUUUUUUUUUUUUUO7tt<X&21XUUUUUUUUUUUUUUUUUUUUU*gu+8att@UUUUUUUUU",
"UUUUUUUUUUUUUUU taf7OX1&XUUUUUUUUUUUUUUUUUUUUU&wwo8zap@UUUUUUUUU",
"UUUUUUUUUUUUUUUXtaa5@=;XUUUUUUUUUUUUUUUUUUUUUUU&y-5zpi#UUUUUUUUU",
"UUUUUUUUUUUUUUUX8uq*=2;XUUUUUUUUUUUUUUUUUUUUUUU&hx+atq@UUUUUUUUU",
"UUUUUUUUUUUUUUUXOOOO&1;XUUUUUUUUUUUUUUUUUUUUUUU*gg+OOOXUUUUUUUUU",
"UUUUUUUUUUUUUUUXdvlf2=XUUUUUUUUUUUUUUUUUUUUUUUUU&hmhlh&UUUUUUUUU",
"UUUUUUUUUUUUUUU.uxgd1;XUUUUUUUUUUUUUUUUUUUUUUUUU@hmgff&UUUUUUUUU",
"UUUUUUUUUUUUUUU.yhgy1;XUUUUUUUUUUUUUUUUUUUUUUUUU&lmddf@UUUUUUUUU",
"UUUUUUUUUUUUUUU.yhgd=OUUUUUUUUUUUUUUUUUUUUUUUUUUU<mgdd&UUUUUUUUU",
"UUUUUUUUUUUUUUUXdhf2=.UUUUUUUUUUUUUUUUUUUUUUUUUUU@mddf&UUUUUUUUU",
"UUUUUUUUUUUUUUU.ulhy=.UUUUUUUUUUUUUUUUUUUUUUUUUUU@mgdg#UUUUUUUUU",
"UUUUUUUUUUUUUUUX=<:=@UUUUUUUUUUUUUUUUUUUUUUUUUUUUO1::;OUUUUUUUUU",
"UUUUUUUUUUUUUUUU.  .UUUUUUUUUUUUUUUUUUUUUUUUUUUUUU  ..XUUUUUUUUU",
"UUUUUUUUUUUUUUUUUUUUUUUUUUUUUUUUUUUUUUUUUUUUUUUUUUUUUUUUUUUUUUUU",
"UUUUUUUUUUUUUUUUUUUUUUUUUUUUUUUUUUUUUUUUUUUUUUUUUUUUUUUUUUUUUUUU",
"UUUUUUUUUUUUUUUUUUUUUUUUUUUUUUUUUUUUUUUUUUUUUUUUUUUUUUUUUUUUUUUU",
"UUUUUUUUUUUUUUUUUUUUUUUUUUUUUUUUUUUUUUUUUUUUUUUUUUUUUUUUUUUUUUUU",
"UUUUUUUUUUUUUUUUUUUUUUUUUUUUUUUUUUUUUUUUUUUUUUUUUUUUUUUUUUUUUUUU"
};
