/* XPM */
static char *result[] = {
/* columns rows colors chars-per-pixel */
"64 64 62 1 ",
"  c #6F731A",
". c #72751B",
"X c #78771E",
"o c #76791E",
"O c #797A1F",
"+ c #6E7429",
"@ c #727621",
"# c #787520",
"$ c #767922",
"% c #7B7B21",
"& c #72772B",
"* c #767A2B",
"= c #797D2C",
"- c #757A31",
"; c #7B7D33",
": c #7C7E3C",
"> c #7D7F41",
", c #837C24",
"< c #877C28",
"1 c #7F8135",
"2 c #7D813D",
"3 c #7F8347",
"4 c #7E834C",
"5 c #848125",
"6 c #888026",
"7 c #8C8128",
"8 c #94852C",
"9 c #98872E",
"0 c #99882F",
"q c #82823D",
"w c #978330",
"e c #9C8233",
"r c #9D8A30",
"t c #A18436",
"y c #A68F33",
"u c #A98E37",
"i c #A8863A",
"p c #AE903A",
"a c #838344",
"s c #8A8947",
"d c #84844B",
"f c #88874A",
"g c #8C894D",
"h c #898752",
"j c #868954",
"k c #8E8B55",
"l c #858959",
"z c #8D8C5A",
"x c #918D5B",
"c c #8A8B64",
"v c #938E62",
"b c #908E6C",
"n c #979062",
"m c #989164",
"M c #95926B",
"N c #99926C",
"B c #8C8F71",
"V c #8F9372",
"C c #959275",
"Z c #9B9672",
"A c #97937A",
"S c #A29676",
/* pixels */
"................................................................",
"...........o....................................................",
"................................................................",
"..................  o........................$..................",
"..................oo.o..........................................",
"................ .o$  %...........o$o%...... ..................o",
"........$........o$  @o.............xm$.........................",
".......km$........     .............ad. ........................",
".......ah........... .......... ......................o.........",
"......................... . oO...............@ ... .%o. ...... .",
"...........................1;. ...........fn:<......    ........",
"..........................=bco...........=vzZx....... .....=2OO.",
".......................... ++ ...........;d.-@.............aAz1.",
".......................... . ............. .................-aa ",
"...........................................................   ..",
"................................................................",
"................................................................",
"................................................................",
"......................X...........................o.......o.....",
".....X.....................................o$...................",
"...........................o..................$.................",
".. ..............o.........o;*.............O9<..................",
"...o......................@;f4. ..........O,e<8,............o...",
"...OO..3l$................aShz$...........9u. ,X. o.o...........",
".....=xfB-................$>zc............$,...... .o...........",
"...  -Nfz;......................................... ............",
"....l*fcNa........................... ..........................",
"....:=Na. ...........................O. ..o..................$o.",
"......@ ..........................oO............................",
"...................O..o...................................... ..",
"......................$.........................................",
"..................... ..........................................",
".....................   .................................o......",
"......................  X.......................................",
".......................1.................................... ...",
".......................o1..................................o..o.",
"....1  .....   ........ac1  ...............................%Oo..",
"...... . .1.1. ........32.  ............ .................o09. .",
".........  ............  ...... .........o.........o..... .7<...",
"1........   ............. ..... .........oo$...............  ...",
"  ...........................o............%o....................",
"... . ............  .. .....  X........ .km$....................",
"....6.............. . .......  .........<dk@...........o........",
"...5y8r,...........1. 1. ..... .........c*  ....................",
".. .,,8..........  111 1qo.............  ...............X.......",
"....   ..........  *nx1.gX.........OO...........................",
"................... &Bm ............o..............o............",
"..................o  1$............. ...........................",
"................................................................",
".................. ...........................................o.",
"..............................................O.......o.........",
"..................O. ...........................................",
"...................X5O..........................................",
".................. Xy9,......O..................................",
"....................,,8. .X,o.....o.........................o...",
"....................    ..7p5.............................o..OO.",
"...... .... 7go........X..X,,8X.....oo.o................ ..jd @o",
"............ns........ XO.  <t%....oo.*=................. @cc*  ",
"..oo.o... ... ............ 8u.......ffql...............oOga.d4..",
".osfo oo, ....... ... .... ,,.......zv@.................ovk.  ..",
"..zv@.=$.....o ...OXO...... .........@.................. @ .....",
"..@..;C3$....... ..5r.........oO................................",
".... @4-c-........ .........o. .................................",
"...... . o......... ....... ... .............o.................o"
};
