/* XPM */
static char *result[] = {
/* columns rows colors chars-per-pixel */
"38 64 79 1 ",
"  c #55301D",
". c #573623",
"X c #573824",
"o c #593A27",
"O c #5D3E2B",
"+ c #603F2A",
"@ c #5F402C",
"# c #61422D",
"$ c #644531",
"% c #654834",
"& c #694B37",
"* c #6B4F3B",
"= c #6D513D",
"- c #73523D",
"; c #715642",
": c #735B47",
"> c #7B5C46",
", c #745D48",
"< c #795F4E",
"1 c #7C634E",
"2 c #7C6451",
"3 c #7F6853",
"4 c #806753",
"5 c #806956",
"6 c #836E5B",
"7 c #85725E",
"8 c #877461",
"9 c #8A7564",
"0 c #8A7966",
"q c #8D7D6A",
"w c #917E6E",
"e c #937F70",
"r c #8E816C",
"t c #90836E",
"y c #8F8470",
"u c #928572",
"i c #998676",
"p c #958976",
"a c #988877",
"s c #978778",
"d c #978B79",
"f c #998C7B",
"g c #9B907F",
"h c #4F7283",
"j c #557584",
"k c #5F7A86",
"l c #748E97",
"z c #79959C",
"x c #4B89A8",
"c c #518FAD",
"v c #598DA8",
"b c #5D95AE",
"n c #818888",
"m c #8E8E89",
"M c #9B8F81",
"N c #9D9383",
"B c #969189",
"V c #9F9588",
"C c #81999D",
"Z c #9A9C95",
"A c #999F9A",
"S c #A19686",
"D c #A19688",
"F c #A39A8C",
"G c #A89D8F",
"H c #A79F90",
"J c #A89E91",
"K c #A8A08F",
"L c #A5A195",
"P c #AAA294",
"I c #ADA599",
"U c #AFA89B",
"Y c #B0A698",
"T c #B1A99D",
"R c #91A7AE",
"E c #9BA8AA",
"W c #A9AEAB",
"Q c #B2ADA3",
"! c None",
/* pixels */
"!!!!!!!!!!!!!!!!!!!!!!!!!!!!!!!!!!!!!!",
"!!!!!!!!!!!!!!!!!!!!!!!!!!!!!!!!!!!!!!",
"!!!!!!!!!!!!!!!!!!!!!!!!!!!!!!!!!!!!!!",
"!!!!!!!!!!!!!!!!!!!!!!!!!!!!!!!!!!!!!!",
"!!!!!!!!11222222122212222212,!!!!!!!!!",
"!!!!!!!;pLKKPGKGKKKKKPFPGPKPq;!!!!!!!!",
"!!!!!!=NPKGKKGPKKKKPPKJJKKKPPp&!!!!!!!",
"!!!!!!=DPPPKPPKPPKPFPKPPKPPFIs&!!!!!!!",
"!!!!!!*DPPPPPLPJJPJPPJPPPPPPTs&!!!!!!!",
"!!!!!!;DIPPPPPPPPPPPPILJPPPPTs&!!!!!!!",
"!!!!!!=DIPPPPPPPPPIJPIJPPPPPYs&!!!!!!!",
"!!!!!!*DUPPIIIPIIIPIIPIIPPPITs&!!!!!!!",
"!!!!!!;DIPPPPPIPPIIPPIPIPIPPTs&!!!!!!!",
"!!!!!!*DQIIIIIIIIIIIIPIPIPPUTf&!!!!!!!",
"!!!!!!;VIPPIIIIIPIIIIIIIUIPITs&!!!!!!!",
"!!!!!!*VIPIPsPIPIIIIPIUJfPIITf&!!!!!!!",
"!!!!!!=DYUJieiJUJUUJUQDiuiJTTi&!!!!!!!",
"!!!!!!=DYFi9D9sJJUUJUFewB8MJQf&!!!!!!!",
"!!!!!!=DQw6DVV6sQUUUY99DVV3fQi*!!!!!!!",
"!!!!!!=FQe8VqV6eUJJUUw9MwV3fTi&!!!!!!!",
"!!!!!!*Fe0sq9qd8wTTT8qeq9qs7sf&!!!!!!!",
"!!!!!!%M68DsddV86JFF<qMMddD2qu$!!!!!!!",
"!!!!!!$fuuVVVVNywMMM9sVVVVVqsw@!!!!!!!",
"!!!!!!$fVNfMfMgNMMMMVNMMNNVBHw#!!!!!!!",
"!!!!!!%dVfNfBgggMfMMgggNgNNNFw@!!!!!!!",
"!!!!!!$sVfffmmddfMgfBBffffggFq@!!!!!!!",
"!!!!!!$sVq2223449gff3322333yDr#!!!!!!!",
"!!!!!!$sNusBh2BfufgfyBl2kNppDq#!!!!!!!",
"!!!!!!$uNdKWbxEKdffffYRcvWSdSt#!!!!!!!",
"!!!!!!%uNdNLzlZSdddddFAzzLggSq#!!!!!!!",
"!!!!!!$ugddddddddddddddddpddVq#!!!!!!!",
"!!!!!!$ugdddddddddudpppdddddN0#!!!!!!!",
"!!!!!!#ugddddpdddq>upfpdpdpdN0@!!!!!!!",
"!!!!!!$tgpppdpdpdq-yppppdpddN9@!!!!!!!",
"!!!!!!$rgyddpdpdq171rfpppppdN9@!!!!!!!",
"!!!!!!$rgppppppr16y33rppppddg0@!!!!!!!",
"!!!!!!$ygpppppp36dpp18ppppppg0#!!!!!!!",
"!!!!!!@rpppuppppupupppppppppg7#!!!!!!!",
"!!!!!!@rdppppuupupppppppppppg7#!!!!!!!",
"!!!!!!@rdppypuppppuuupyuuppyg7#!!!!!!!",
"!!!!!!#rfputpuyuuuuupyuppuppf7#!!!!!!!",
"!!!!!!@rppuptppppuupuppuuuuug7#!!!!!!!",
"!!!!!!#rptuupupuuuuypyyuuuuuf7@!!!!!!!",
"!!!!!!@qpututuyyyuupypyuuuuuf7@!!!!!!!",
"!!!!!!@rptttytuyyuuuuuuyutuud7@!!!!!!!",
"!!!!!!@quttttyyuuyyyyyuyutttd7@!!!!!!!",
"!!!!!!@quttrttttryuyyyyyttttp7@!!!!!!!",
"!!!!!!Oquyryryrtrrryrryrttttp7@!!!!!!!",
"!!!!!!@qyrrrrrrrrrrrrrrrtrtrp7@!!!!!!!",
"!!!!!!O9urrrrr0rrrrqrrrrrrrru6@!!!!!!!",
"!!!!!!@0yrrrrrrrrrrrrrqrrqrqu6o!!!!!!!",
"!!!!!!o0urrrrrrrrrrrrrrrrrrru7o!!!!!!!",
"!!!!!!O8rrrrrrrrrrrrrqrrr00rr3@!!!!!!!",
"!!!!!!.0rrrrrrrrttrrtrrrrrrrp3X!!!!!!!",
"!!!!!!.:::::::=:::::::,::1-11:!!!!!!!!",
"!!!!!!!   ...X@ ........ XXX !!!!!!!!!",
"!!!!!!!!!!!!!!!!!!!!!!!!!!!!!!!!!!!!!!",
"!!!!!!!!!!!!!!!!!!!!!!!!!!!!!!!!!!!!!!",
"!!!!!!!!!!!!!!!!!!!!!!!!!!!!!!!!!!!!!!",
"!!!!!!!!!!!!!!!!!!!!!!!!!!!!!!!!!!!!!!",
"!!!!!!!!!!!!!!!!!!!!!!!!!!!!!!!!!!!!!!",
"!!!!!!!!!!!!!!!!!!!!!!!!!!!!!!!!!!!!!!",
"!!!!!!!!!!!!!!!!!!!!!!!!!!!!!!!!!!!!!!",
"!!!!!!!!!!!!!!!!!!!!!!!!!!!!!!!!!!!!!!"
};
