/* XPM */
static char *result[] = {
/* columns rows colors chars-per-pixel */
"59 64 204 2 ",
"   c #000006",
".  c #00020B",
"X  c #030711",
"o  c #050914",
"O  c #0B0E19",
"+  c #080C17",
"@  c #0D121D",
"#  c #12151F",
"$  c #0F1421",
"%  c #111622",
"&  c #161A25",
"*  c #161C2A",
"=  c #191E2B",
"-  c #1C1F24",
";  c #181F31",
":  c #1C212D",
">  c #1C2333",
",  c #1A2336",
"<  c #22242B",
"1  c #212126",
"2  c #262A34",
"3  c #282B33",
"4  c #242B3C",
"5  c #292E3B",
"6  c #212736",
"7  c #2D323C",
"8  c #32353B",
"9  c #37393F",
"0  c #272F41",
"q  c #2B3243",
"w  c #2D3549",
"e  c #303743",
"r  c #353A44",
"t  c #393D46",
"y  c #343C4A",
"u  c #383F4C",
"i  c #333D54",
"p  c #3E4146",
"a  c #3B414D",
"s  c #3D4453",
"d  c #3B445B",
"f  c #36435E",
"g  c #3D4B6A",
"h  c #47494D",
"j  c #4A4C4F",
"k  c #434547",
"l  c #444A54",
"z  c #444C5A",
"x  c #404551",
"c  c #4B515D",
"v  c #4C5054",
"b  c #535456",
"n  c #52555A",
"m  c #585A5C",
"M  c #49546B",
"N  c #485368",
"B  c #525965",
"V  c #565C69",
"C  c #455474",
"Z  c #495775",
"A  c #4B5975",
"S  c #4D5C7A",
"D  c #505F7C",
"F  c #545D70",
"G  c #444E63",
"H  c #5D6164",
"J  c #59606D",
"K  c #5B6473",
"L  c #54617D",
"P  c #5F6878",
"I  c #66696B",
"U  c #65676A",
"Y  c #636D7D",
"T  c #646B77",
"R  c #6C7176",
"E  c #767878",
"W  c #70716F",
"Q  c #556382",
"!  c #586683",
"~  c #5B6986",
"^  c #5C6B89",
"/  c #606E8A",
"(  c #667083",
")  c #63718E",
"_  c #6A7587",
"`  c #747D8D",
"'  c #767B81",
"]  c #657493",
"[  c #687793",
"{  c #6C7A95",
"}  c #6C7B9A",
"|  c #707F9C",
" . c #747E90",
".. c #7C8185",
"X. c #77808E",
"o. c #7B8494",
"O. c #74829C",
"+. c #7E899A",
"@. c #78849B",
"#. c #7584A2",
"$. c #7887A3",
"%. c #7B89A5",
"&. c #868A8C",
"*. c #8A8C8A",
"=. c #878886",
"-. c #828C9C",
";. c #878C92",
":. c #8A939E",
">. c #9C9E9A",
",. c #949796",
"<. c #90918E",
"1. c #9FA19F",
"2. c #A1A29E",
"3. c #828EA3",
"4. c #828FA8",
"5. c #8691A2",
"6. c #8A95A5",
"7. c #8492AD",
"8. c #8997AE",
"9. c #8F9AAC",
"0. c #959CA6",
"q. c #8795B0",
"w. c #8896B1",
"e. c #8C9AB4",
"r. c #929EB3",
"t. c #919FB8",
"y. c #9BA1A7",
"u. c #96A2B5",
"i. c #95A3BB",
"p. c #99A6BD",
"a. c #9CA9BD",
"s. c #99A4B6",
"d. c #A4A5A3",
"f. c #A9AAA6",
"g. c #AAACAA",
"h. c #A6A9A9",
"j. c #B1B2AD",
"k. c #A5ADB7",
"l. c #A9AEB2",
"z. c #A2ADBC",
"x. c #ABB3BD",
"c. c #AEB1B0",
"v. c #B4B6B4",
"b. c #B5B9BA",
"n. c #C0C2BE",
"m. c #9EABC2",
"M. c #A1AEC2",
"N. c #A5B2C5",
"B. c #A5B3C9",
"V. c #A9B6CA",
"C. c #ACBACE",
"Z. c #ACB7C7",
"A. c #B2BBC6",
"S. c #AEBCD0",
"D. c #B1BED2",
"F. c #BCC1C3",
"G. c #BBC3CC",
"H. c #B6C3D6",
"J. c #BAC5D5",
"K. c #B7C4D8",
"L. c #B9C5D8",
"P. c #BDC9DC",
"I. c #BFC9D5",
"U. c #BECCE0",
"Y. c #C4C9CB",
"T. c #CBCECA",
"R. c #C6C8C4",
"E. c #D3D5CE",
"W. c #C4CDD5",
"Q. c #C2CDDC",
"!. c #C9CFD2",
"~. c #CDD2D3",
"^. c #C6D1DD",
"/. c #CBD4DD",
"(. c #D3D6D4",
"). c #D5DBDC",
"_. c #D7DAD7",
"`. c #DDE1DD",
"'. c #E8E8DE",
"]. c #C2CFE2",
"[. c #C6D2E0",
"{. c #CCD6E2",
"}. c #CED9E6",
"|. c #D2DBE3",
" X c #D3DEE9",
".X c #D9DFE2",
"XX c #DCE2E5",
"oX c #DBE3EB",
"OX c #D7E0EA",
"+X c #E2E6E6",
"@X c #E4E8E4",
"#X c #E5EAEA",
"$X c #EAEEEC",
"%X c #E5E9E7",
"&X c #EEF1EC",
"*X c #F2F4EC",
"=X c #E5EDF2",
"-X c #ECF2F5",
";X c #EBF3F9",
":X c #F1F6F3",
">X c #FEFEF2",
",X c #FDFEFD",
"<X c #F2F7F8",
"1X c None",
/* pixels */
"1X1X1X1X1X1X1X1X1X1X1X1X1X1X1X1X1X1X1X1X1X1X1X1X1X1X1X1Xo o 1Xo 1X1X1X1X1X1X1X1X1X1X1X1X1X1X1X1X1X1X1X1X1X1X1X1X1X1X1X",
"1X1X1X1X1X1X1X1X1X1X1X1X1X1X1X1X1X1X1X1X1X1X1X1X1X1X1Xo =.U 8 ,.9 1X1X1X1X1X1X1X1X1X1X1X1X1X1X1X1X1X1X1X1X1X1X1X1X1X1X",
"1X1X1X1X1X1X1X1X1X1X1X1X1X1X1X1X1X1X1X1X1Xh c 1X1X1X2 U ~.0.R `.=.k 1X1X1Xp m 1X1X1X1X1X1X1X1X1X1X1X1X1X1X1X1X1X1X1X1X",
"1X1X1X1X1X1X1X1X1X1X1X1X1X1X1X1X1X1X1X1X< >.n.8 1X- V '.[.H.H.I.$X<.< 1X1 *.T.r 1X1X1X1X1X1X1X1X1X1X1X1X1X1X1X1X1X1X1X",
"1X1X1X1X1X1X1X1X1X1X1Xo o o + 1X1X1X1X- j.)./.T.9 E ).Q.L.L.K.K.P.).j.< d.)./.E.h 1X1X1X1X1Xo o o o 1X1X1X1X1X1X1X1X1X",
"1X1X1X1X1X1X1X1X1X1Xj d.f.d.E X 1X1X9 d.(.^.P.|.j.F.|.H.L.L.K.K.H.[.~.f.~.[.P.|.b.I 1X1X1Xb d.f.h.E X 1X1X1X1X1X1X1X1X",
"1X1X1X1X1X1X1X1X1X1Xj f.f.(.Y.U 1Xh ;.#X^.[.{.H.+X#X[.L.H.P.L.K.K.P. X=XQ.Q.{.L.#Xc.m 1Xj d.#Xj.h.E X 1X1X1X1X1X1X1X1X",
"1X1X1X1X1X1X1X1X1X1X1Xo % Y W._.v =.).K.H.OX=XU.L.oX;XL.L.V.N.K.K.oX<XP.L.oX=XL.K.(.v.p v.XX5.> + o 1X1X1X1X1X1X1X1X1X",
"1X1X1X1X1X1X1X1X1X1X1X@ A i n I._.E c H.H.J.}.;X^.OX;XJ.P.Y s C.K.oX;XP.=XoXP.K.P.` h T.{.X.5 L 6 . 1X1X1X1X1X1X1X1X1X",
"1X1X1X1X1X1X1X1X1X1X1X$ ! L d V '.W 4 H.P.H.P.OXP.^.}.H.K R *.c a.}.{.L.}.{.H.K.[.L 3 '.&.d M [ 0 . 1X1X1X1X1X1X1X1X1X",
"1X1X1X1X1X1X1X1X1X1X1X$ ~ #.C & b.d.H X.V.P.V.X.V.P.N.` H g.~.I T r.L.K.+.9.P.H.5.T ..E.l 0 | } 4 . 1X1X1X1X1X1X1X1X1X",
"1X1X1X1X1X1X1X1X1X1X1X$ A } M - u.-Xv.e u.H.X.r -.H.9.e n.XX^.'.n Y K.p.l J V.C.z E &XJ.y q { ~ 4 . 1X1X1X1X1X1X1X1X1X",
"1X1X1X1X1X1X1X1X1X1X1X1X% M C = u.^.H.N.H.T n R.l ( H.z.K.Q.K.Q.N.D.u.7 g.=.s V.V.A.^.H.y w ~ > 1X1X1X1X1X1X1X1X1X1X1X",
"1X1X1X1X1X1X1X1X1X1X1X1XX d ^ F m.L.P.C.J R v./.6.B K H.L.H.K.H.P.+.z ` Y.Y.*.c u.P.H.H.( S L @ 1X1X1X1X1X1X1X1X1X1X1X",
"1X1X1X1X1X1X1X1X1X1X1X1X. M w.e.S.P.P.C.V y.#XK.P.X.K H.L.L.L.K.P.o.J H.K.OXT.B u.P.K.H.p.e.{ $ 1X1X1X1X1X1X1X1X1X1X1X",
"1X1X1X1X1X1X1X< 2 1X1X1X= ` U.Q.L.H.J.P.H.H.K.H.P.H.H.H.L.K.L.L.K.K.K.K.K.L.K.K.H.H.K.H.K.L.a.7 1X1X1X2 6 : 1X1X1X1X1X",
"1X1X1X1X1X. a z._.I   - 5.S./.*X^.H./.&X^.H.H.H.K.J.L.P.H.H.K.K.H.L.K.L.L.H.L.H.L.H.H.H.L.L.D.z.s   8 n.G.Y o 1X1X1X1X",
"1X1X1X1X1X1X3 F W.F.2.d.H.L.P..X%X%X%X|.P.H.L.H.K.K.K.H.H.H.H.K.K.H.Q.+XQ.H.L.L.L.L.L.H.H.H.K.P.l.>.g..Xo.r 1X1X1X1X1X",
"1X1X1X1X1X1X1X% Y Y.<X$XQ.H.H.K.XX#XXXH.H.K.L.L.K.L.K.K.{. X|.}.P.H.Q.%X^.H.L.L.L.H.P.).Q.Q./.P.oX:X+X;.q 1X1X1X1X1X1X",
"1X1X1X1X1X1X1X1Xo K V.H.K.K.K.K.H.K.K.L.K.K.L.K.H.H.P.^.=X<X<X;X}.L.H.L.L.L.L.L.H.H.Q.&X{..X$XP.H.D.3.* 1X1X1X1X1X1X1X",
"1X1X1X1X1X1X1Xo o @ B D.L.L.K.H.H.H.H.H.K.K.K.K.H.H.^.-X}.P.P.^.=XOXH.H.H.H.L.H.L.H.L.Q.$X+XQ.K.L.o.: + o o 1X1X1X1X1X",
"1X1X1X1X1X1Xy o.2.2.l.H.K.L.H.H.L.K.H.H.K.8.~ [ V.P.P.}.P.H.H.K.{.[.L.L.%.~ | S.L.L.H.L././.H.H.L.x.2.2.:.V o 1X1X1X1X",
"1X1X1X1X1X1Xr :.XX:X%X|.P.H.Q.|.P.^./.P./.k.` ) %.N.P.H.H.L.K.H.H.P.D.7.{ _ 6.~.Q.H.L.H.H.H.H.L.{.oX:X-Xk.B o 1X1X1X1X",
"1X1X1X1X1X1X1X= 5.D.{.$XQ.H./.&X/.XX%XP.*X>X&XH.^ O.C.H.L.L.K.K.K.D.u.L i.oX>X>X{.H.L.L.K.K.K.L.%XXXH.z.a . 1X1X1X1X1X",
"1X1X1X1X1X1X1X1X: ` P.Q.L.H.L.^.&XXXJ.P.*X>X&XL.C.O.) D.L.K.K.K.L.%.! M.H.XX>X>X{.H.H.K.K.L.H.L.Q.Q.a.e 1X1X1X1X1X1X1X",
"1X1X1X1X1X1X1X1X1X7 Y H.L.K.H.L.{.^./.XXE m &.%X{.} L C.i.M.S.e.S.@.S H.$Xg.m V R.oXH.K.K.L.L.H.L.3.t 1X1X1X1X1X1X1X1X",
"1X1X1X1X1X1X1X1X1Xk ..H.L.L.L.H.K.K.A.>.I < 3 2.J.O.L C.%.e.B.O.B.O.D D.v.b @ n *.x.K.L.L.L.L.L.L.0.n 1X1X1X1X1X1X1X1X",
"1X1X1X1X1X1X1X: 2 d.$XK.H.L.L.L.K.P.6.p (.' . % +.O.) C.7.i.V.%.V.7.~ r.r   t XXU T L.K.H.H.H.L.H.OXE.p : : 1X1X1X1X1X",
"1X1X1X1X1X. s z.(.~.P.K.H.L.L.K.L.K.P.XX<X' . o & Y S.K.D.H.H.C.H.H.5.4 + . t %X%X/.H.K.L.L.K.L.K.L.^._.G.Y X 1X1X1X1X",
"1X1X1X1X1X1X3 J W.;.Y P.L.H.H.H.H.H.}.,X,XE . @ E A.L.L.L.H.K.P.H.K.H.0.7   r $X,X=XH.L.XX|.P.+X|.3.K ~.o.t 1X1X1X1X1X",
"1X1X1X1X1X1X1X$ Y s 4 ` V.{./.L.{.^.Z.h.:X... & _.;XH.K.K.K.K.K.K.H.}.,Xv   t $Xb.k.K.L..XXX.X+Xy.z * ( e 1X1X1X1X1X1X",
"1X1X1X1X1X1X1X1Xo 1X1Xr a.%X%X/.&XOX5.e b.R . % l.{.K.K.L.K.K.K.K.H.Q.~.p   e Y.B K P.K.H..X&XL.V 1 1Xo 1X1X1X1X1X1X1X",
"1X1X1X1X1X1X1X1X1X  b E.Q.L.|.*X/.J.H.u.x # o + - ` P.L.L.L.L.K.K.P.u.7 @ o @ 3 o.C.K.K.K.I.P.L._.*.o 1X1X1X1X1X1X1X1X",
"1X1X1X1X1X1X1X    W b. XP.H.P.{.P.H.K.L.g.2.d.2.` r.K.K.P.U.P.Q.P.P.B.X.` X._ M p.U.K.K.K.L.L.P.|.Y.<.&   1X1X1X1X1X1X",
"1X1X1X1X1X1X5 z z l.#XK.L.P.K.H.K.K.H.L.G.@X,X>X#X|.{./.5.`  . .e.C.P.[.U.H.i.] m.P.K.H.L.C.M.M.S. X).V z y 1X1X1X1X1X",
"1X1X1X1X1X. a H.L.L.L.H.M.N.D.H.K.K.H.m.~ y.$X>X>X>X>X@Xn O o * L e.C.C.S.e.! C 7.S.S.H.H.8.~ ^ i.D.S.C.H.( o 1X1X1X1X",
"1X1X1X1X1X. s H.L.H.L.N.t M e.H.K.P.i.L u.@.+.*X>X>X&XQ.V.B * Q ] } #.#.$.~ C ) L ~ 7.S.t.M $ * L $.#.#.%.N o 1X1X1X1X",
"1X1X1X1X1X1X5 z z z z z 1X= F L.P.K.V.9.D.M.%.o.o.Y.>X$X}.{ i } } } ] Z C S ] i.[ } m.q.$.d . 1X4 0 0 0 q , 1X1X1X1X1X",
"1X1X1X1X1X1X1X. . . .   1X1X7 ` V.P.P.P.K.P.N.) ^ 6.b.x.i.] Q ^ Q ! Q S C Q #.m.t.i.i.} S w 1X1X1X. . . . 1X1X1X1X1X1X",
"1X1X1X1X1X1X1X1X1X1X1X1X1X1X1X7 s.P.K.H.K.K.H.K.P.%.A D g Q ^ g S S Z ] } } } #.m.t.} [ w @ 1X1X1X1X1X1X1X1X1X1X1X1X1X",
"1X1X1X1X1X1X1X1X1X1X1X1X1X1Xy a.H.H.H.H.H.K.P.H.L.C.H.|.3.] ] } P.N.] { } } #.B.q.} } } ) d X 1X1X1X1X1X1X1X1X1X1X1X1X",
"1X1X1X1X1X1X1X1X1X1X1X1X1Xd.0.[ ) i.V.{ V.P.H.K.P.e.O.z.$.[ } | i.@.S } ] 7.m.w.~ C Z Z ] d . 1X1X1X1X1X1X1X1X1X1X1X1X",
"1X1X1X1X1X1X1X1X1X1X1X1X1Xh.;.C C { O.S @.N.P.K.i./ C Q ] ) ^ ] ~ S S Q ] q.t.Q Z Z C Z #.~ 7 1X1X1X1X1X1X1X1X1X1X1X1X",
"1X1X1X1X1X1X1X1X1X1X1X1X1X1 l #.@.~ Q } S O.C.m.Q Q ] C ^ Q C ) C ~ [ C ~ [ ~ C ] #.#.#.B.m.Q % 1X1X1X1X1X1X1X1X1X1X1X",
"1X1X1X1X1X1X1X1X1X1X1X1XX =.).S.S.V.V.V.O.L Z A ^ r.m.] C Q ~ C ~ w.M.[ Z g C ] m.S.S.S.H.m.L % 1X1X1X1X1X1X1X1X1X1X1X",
"1X1X1X1X1X1X1X1X1X1X1X# *.Y.}.K.L.P.P.H.N.N.k.8.G.Q.D.m.] %.e.~ q.S.D.m.e.7.4.} m.U.^.#X^.S.8.A > 1X1X1X1X1X1X1X1X1X1X",
"1X1X1X1X1X1X1X1X1X1X8 W (. XH.H.B.e.u.H.K. X#XXX%X|.K.K.t.t.m.w.S.[.{.L.{.{.D.e.m.e.i.XX^.P.C.#.4 . 1X1X1X1X1X1X1X1X1X",
"1X1X1X1X1X1X1X1X1X  b &X^.H.H.H.%.Z ! H.P.K./.&X^.H.K.H.K.t.%.H.K. X$X/.$XXXK.H.%.Q L S.P.P.C.} 4 . 1X1X1X1X1X1X1X1X1X",
"1X1X1X1X1X1X1X1X1X  n *X^.H.L.D.$.Z ~ H.K.H.L.Q.L.L.L.K.K.e.%.D.L.L.{.*X|.L.K.H.7.S S C.#XoXC.} 4 . 1X1X1X1X1X1X1X1X1X",
"1X1X1X1X1X1X1X1X1X  z ~.P.H.L.H.%.S ~ D.K.m.t.H.L.L.P.K.i.^ Q 7.S.P.P.|.].m.t.D.7.S S C.*X$XC.} 4 . 1X1X1X1X1X1X1X1X1X",
"1X1X1X1X1X1X1X1X1X  s D.P.L.D.p.$.C ! D.L.m.q.p.m.m.p.p.e.O.[ 7.i.m.p.i.e.4.t.S.7.S S H.XXXXS.O.4 . 1X1X1X1X1X1X1X1X1X",
"1X1X1X1X1X1X1X1X1X. s D.C.C.p.[ ^ A [ H.D.H.B.#.| #.#.$.V.L.H.H.q.O.#.#.L O.S.H.7.D D u.D.H.m.} 4 . 1X1X1X1X1X1X1X1X1X",
"1X1X1X1X1X1X1X1X1X  s V.^ ) [ g ; Y D.D.7.i.H.S.C.C.V.S.D.K.L.K.S.C.C.C.V.e.7.S.%.[ L 5 6.e.S ] 4 . 1X1X1X1X1X1X1X1X1X",
"1X1X1X1X1X1X1X1X1X1X5 s > , 0 * 1Xr K 7.i.C.L.H.t.7.m.K.K.H.K.L.L.N.q.q.S.S.i.q.#.S 0 1Xs y ; 4 = 1X1X1X1X1X1X1X1X1X1X",
"1X1X1X1X1X1X1X1X1X1X1X. X . . X 1X  4 7.m.C.L.H.e.| %.D.L.L.L.K.L.e.] q.V.P.S.q.#.d . 1X1X. . . 1X1X1X1X1X1X1X1X1X1X1X",
"1X1X1X1X1X1X1X1X1X1X1X1X1X1X1X1X1X  y M.7.i.L.K.K.i.q.D.L.K.K.L.L.i.q.D.K.H.S.H.7.d X 1X1X1X1X1X1X1X1X1X1X1X1X1X1X1X1X",
"1X1X1X1X1X1X1X1X1X1X1X1X1X1X1X1X1X. 4 #.N.D.L.L.K.D.S.H.L.L.K.K.K.D.D.H.L.i.7.S.q.f X 1X1X1X1X1X1X1X1X1X1X1X1X1X1X1X1X",
"1X1X1X1X1X1X1X1X1X1X1X1X1X1X1X1X1X1X% y m.U.Q.%X#X|.V.e.S.U.P.K.t.m.L.K.L.S.m.w.G > 1X1X1X1X1X1X1X1X1X1X1X1X1X1X1X1X1X",
"1X1X1X1X1X1X1X1X1X1X1X1X1X1X1X1X1X1X1X@ Y x..X#X#X|.V.q.w.+.o.q.q.m.L.L.K.S.w.M * 1X1X1X1X1X1X1X1X1X1X1X1X1X1X1X1X1X1X",
"1X1X1X1X1X1X1X1X1X1X1X1X1X1X1X1X1X1X1X1XX =.:XL.H.L.P.C.D , $ f i.L.L.L.L.p.D $ 1X1X1X1X1X1X1X1X1X1X1X1X1X1X1X1X1X1X1X",
"1X1X1X1X1X1X1X1X1X1X1X1X1X1X1X1X1X1X1X1X. =.:XI.H.H.L.C.y o 1X& 6.P.K.K.L.m.D O 1X1X1X1X1X1X1X1X1X1X1X1X1X1X1X1X1X1X1X",
"1X1X1X1X1X1X1X1X1X1X1X1X1X1X1X1X1X1X1X1XX ' G.} V.e.@.V.q 1X1X@ 6.i.@.C.%.[ L @ 1X1X1X1X1X1X1X1X1X1X1X1X1X1X1X1X1X1X1X",
"1X1X1X1X1X1X1X1X1X1X1X1X1X1X1X1X1X1X1X1X1XY i.g a.| L V.e 1X1X@ 6.%.S V.Q S L @ 1X1X1X1X1X1X1X1X1X1X1X1X1X1X1X1X1X1X1X",
"1X1X1X1X1X1X1X1X1X1X1X1X1X1X1X1X1X1X1X1X1X1X1X1X1X1X1X1X1X1X1X1X1X1X1X1X1X1X1X1X1X1X1X1X1X1X1X1X1X1X1X1X1X1X1X1X1X1X1X"
};
