/* XPM */
static char *result[] = {
/* columns rows colors chars-per-pixel */
"64 60 192 2 ",
"   c #0B0C0C",
".  c #0C0E13",
"X  c #0C141D",
"o  c #0F1B1B",
"O  c #111E1E",
"+  c #1B1B1C",
"@  c #080E23",
"#  c #161A2E",
"$  c #121F24",
"%  c #0D1331",
"&  c #161A32",
"*  c #171B3A",
"=  c #181D3B",
"-  c #0B1327",
";  c #17292B",
":  c #1B233E",
">  c #1A2C38",
",  c #1B3032",
"<  c #212432",
"1  c #2E302F",
"2  c #191D45",
"3  c #1A1F4B",
"4  c #171C44",
"5  c #191D56",
"6  c #1A1E58",
"7  c #1D2545",
"8  c #1C264A",
"9  c #162351",
"0  c #1B2353",
"q  c #1C225C",
"w  c #20294A",
"e  c #263F4B",
"r  c #222C5C",
"t  c #20275F",
"y  c #243057",
"u  c #27335A",
"i  c #1E2660",
"p  c #1F2962",
"a  c #222B64",
"s  c #232D69",
"d  c #202766",
"f  c #26326E",
"g  c #2E3E6E",
"h  c #263562",
"j  c #273371",
"k  c #293673",
"l  c #2B3B72",
"z  c #2C367A",
"x  c #2E3D7C",
"c  c #313D7E",
"v  c #343879",
"b  c #7B335D",
"n  c #5E3B6F",
"m  c #483C7C",
"M  c #513976",
"N  c #513774",
"B  c #763360",
"V  c #673568",
"C  c #2D5254",
"Z  c #2E5658",
"A  c #32595D",
"S  c #30565A",
"D  c #2E4C62",
"F  c #325966",
"G  c #2B4075",
"H  c #2E427C",
"J  c #31427E",
"K  c #334B7B",
"L  c #324277",
"P  c #355179",
"I  c #575250",
"U  c #4E4B4A",
"Y  c #425F61",
"T  c #5F4C7B",
"R  c #6F406B",
"E  c #79486A",
"W  c #5D6167",
"Q  c #42767A",
"!  c #58697E",
"~  c #746F7A",
"^  c #922F4D",
"/  c #8E3351",
"(  c #8C445E",
")  c #884561",
"_  c #82556E",
"`  c #2F3A87",
"'  c #2E3F8A",
"]  c #323D86",
"[  c #423F80",
"{  c #324383",
"}  c #354984",
"|  c #33438A",
" . c #364A8C",
".. c #384D8E",
"X. c #355186",
"o. c #37538C",
"O. c #3A508C",
"+. c #3B5889",
"@. c #3A4E91",
"#. c #3B5394",
"$. c #3B5B93",
"%. c #3F5699",
"&. c #3F5A9A",
"*. c #355194",
"=. c #3E628C",
"-. c #3A6292",
";. c #3E6099",
":. c #45548D",
">. c #415D9E",
",. c #40579B",
"<. c #474984",
"1. c #635880",
"2. c #45748B",
"3. c #416197",
"4. c #42659B",
"5. c #446A9B",
"6. c #4B6B97",
"7. c #467094",
"8. c #49729E",
"9. c #4A789B",
"0. c #586E95",
"q. c #6B6789",
"w. c #716383",
"e. c #647F9B",
"r. c #757489",
"t. c #425EA0",
"y. c #4363A2",
"u. c #446CA5",
"i. c #456FA8",
"p. c #4572A5",
"a. c #467AA6",
"s. c #4C7CA3",
"d. c #4672A9",
"f. c #4876A9",
"g. c #477CA9",
"h. c #497DAD",
"j. c #557CA4",
"k. c #507FA8",
"l. c #4C878C",
"z. c #548A8F",
"x. c #4F8B91",
"c. c #508D94",
"v. c #529196",
"b. c #53949A",
"n. c #57999E",
"m. c #758F92",
"M. c #678B9D",
"N. c #4B83AD",
"B. c #4F83A6",
"V. c #5186A6",
"C. c #548DA6",
"Z. c #5184A9",
"A. c #528CAB",
"S. c #5791AB",
"D. c #5B95AE",
"F. c #5B9CAD",
"G. c #589CA2",
"H. c #4B85B0",
"J. c #4E8CB2",
"K. c #518FB1",
"L. c #5394B3",
"P. c #5995B1",
"I. c #569AB5",
"U. c #599DB3",
"Y. c #5A9FB9",
"T. c #6A97AA",
"R. c #5EA6AD",
"E. c #5CA3B5",
"W. c #5EA9B6",
"Q. c #5DABB9",
"!. c #60A9AF",
"~. c #6DA1A6",
"^. c #60A6B5",
"/. c #61ACB5",
"(. c #64B0B7",
"). c #65B3B9",
"_. c #69B2B9",
"`. c #6FB8BD",
"'. c #6ABCC2",
"]. c #7EBAC2",
"[. c #7CC0C4",
"{. c #918F8E",
"}. c #8FAAB5",
"|. c #85BABF",
" X c #A6AEB0",
".X c #B5BCBC",
"XX c #86C4C9",
"oX c #9FD3D7",
"OX c #AACBCF",
"+X c #B8DDE0",
"@X c #CADCDF",
"#X c None",
/* pixels */
"#X#X#X#X#X#X#X#X#X#X#X#X#X#X#X#X#X#X#X#X#X#X#X#X#X#X#X#X#X#X#X#X#X#X#X#X#X#X#X#X#X#X#X#X#X#X#X#X#X#X#X#X#X#X#X#X#X#X#X#X#X#X#X#X",
"#X#X#X#X#X#X#X#X#X#X#X#X#X#X#X#X#X#X#X#X#X#X#X#X#X#X#X#X#X#X#X#X#X#X#X#X#X#X#X#X#X#X#X#X#X#X#X#X#X#X#X#X#X#X#X#X#X#X#X#X#X#X#X#X",
"#X#X#X#X#X#X#X#X#X#X#X#X#X#X#X#X#X#X#X#X#X#X#X#X#X#X#X#X#X#X#X#X#X#X#X#X#X#X#X#X#X#X#X#X#X#X#X#X#X#X#X#X#X#X#X#X#X#X#X#X#X#X#X#X",
"#X#X#X#X#X#X#X#X#X#X#X#X#X#X#X#X#X#X#X#X#X#X#X#X#X#X#X#X#X#X#X#X#X#X#X#X#X#X#X#X#X#X#X#X#X#X#X#X#X#X#X#X#X#X#X#X#X#X#X#X#X#X#X#X",
"#X#X#X#X#X#X#X#X#X#X#X#X#X#X#X#X#X#X#X#X#X#X#X#X#X#X#X#X#X#X#X#X#X#X#X#X#X#X#X#X#X#X#X#X#X#X#X#X#X#X#X#X#X#X#X#X#X#X#X#X#X#X#X#X",
"#X#X#X#X#X#X#X#X#X#X#X#X#X#X#X#X#X#X#X#X#X#X#X#X#X#X#X#X#X#X#X#X#X#X#X#X#X#X#X#X#X#X#X#X#X#X#X#X#X#X#X#X#X#X#X#X#X#X#X#X#X#X#X#X",
"#X#X#X#X#X#X#X#X#X#X#X#X#X#X#X#X#X#X#X#Xq 6 q 6 q 6 6 5 6 5 6 6 6 6 6 6 6 5 6 6 6 6 q #X#X#X#X#X#X#X#X#X#X#X#X#X#X#X#X#X#X#X#X#X",
"#X#X#X#X#X#X#X#X#X#X#X#X#X#X#X#X#X#X#Xi i q i i i i p p a p p p p p p i a p p p i i i #X#X#X#X#X#X#X#X#X#X#X#X#X#X#X#X#X#X#X#X#X",
"#X#X#X#X#X#X#X#X#X#X#X#X#X#X#X#X#X#X#Xs j j k j j j G G G G G l l G G G G G G l l j s p #X#X#X#X#X#X#X#X#X#X#X#X#X#X#X#X#X#X#X#X",
"#X#X#X#X#X#X#X#X#X#X#X#X#X#X#X#X#Xq a k { { { { X.X.-.-.-.-.-.-.-.-.-.-.-.-.-.$.o.} { j a 6 #X#X#X#X#X#X#X#X#X#X#X#X#X#X#X#X#X#X",
"#X#X#X#X#X#X#X#X#X#X#X#X#X#X#X#Xq i s x ..%.%.&.;.u.a.N.N.N.N.N.N.N.N.N.N.N.h.a.p.&.*.x s i #X#X#X#X#X#X#X#X#X#X#X#X#X#X#X#X#X#X",
"#X#X#X#X#X#X#X#X#X#X#X#X#X#X#X#Xs f x  .#.t.t.y.p.H.L.L.L.L.I.I.L.L.I.L.L.I.L.L.A.g.5.o.x s s #X#X#X#X#X#X#X#X#X#X#X#X#X#X#X#X#X",
"#X#X#X#X#X#X#X#X#X#X#X#X#X#Xq s k {  .@.%.t.u.d.N.K.E.E.E.E.E.E.E.E.Q.E.E.E.Q.E.Y.S.V.5...c k a q #X#X#X#X#X#X#X#X#X#X#X#X#X#X#X",
"#X#X#X#X#X#X#X#X#X#X#X#X#X#Xq s x ..%.%.>.y.d.N.J.I.W.Q.(./.W.(./.Q././.W.Q./././.^.U.Z.5.O.z s q #X#X#X#X#X#X#X#X#X#X#X#X#X#X#X",
"#X#X#X#X#X#X#X#X#X#X#X#X#X5 q s c #.t.y.y.d.N.J.I.E.Q.(.(.(.(.(.(.(.(.(.(.(.(.(.).(.^.P.k.5.J h q 5 #X#X#X#X#X#X#X#X#X#X#X#X#X#X",
"#X#X#X#X#X#X#X#X#X#X#X#X#X5 q s c @.t.u.f.N.S.I.W.W.(.(.(.(.(.(.(.(.(.(.(.(.(.(.(.(./.^.D.9.X.h q #X#X#X#X#X#X#X#X#X#X#X#X#X#X#X",
"#X#X#X#X#X#X#X#X#X#X#X#X#Xq q f { #.y.d.h.J.I.W./.(.(.(.(.(.(.(.(.(.(.(.(./.(.(.(.(.(.).W.C.:.g q 6 #X#X#X#X#X#X#X#X#X#X#X#X#X#X",
"#X#X#X#X#X#X#X#X#X#X#X#X#Xs f x ..;.i.f.H.K.Y.W.(.(.(./.(./.(.(.).).(.(.(.(.(.(.).).).).(.F.2.K f d #X#X#X#X#X#X#X#X#X#X#X#X#X#X",
"#X#X#X#X#X#X#X#X#X#X#Xq s k { o.;.p.g.H.N.L.Y.W.(._.(./.W.(./.(.).).).(.(./.(.(.).).).`.(.F.s.+.{ j a q #X#X#X#X#X#X#X#X#X#X#X#X",
"#X#X#X#X#X#X#X#X#X#X#Xq s x ..>.u.h.N.J.J.L.U./.(.(.(.(._._.(.(./.R././.(.(.(./.!.W.R././.R.Z.y...z s q #X#X#X#X#X#X#X#X#X#X#X#X",
"#X#X#X#X#X#X#X#X#X#X5 q s J #.y.f.H.J.J.L.I.E.W.).(.).`.[.XX|.~.z.l.b.R.(.).(.R.b.l.l.n.!.E.P.f.$.H p q 0 #X#X#X#X#X#X#X#X#X#X#X",
"#X#X#X#X#X#X#X#X#X#X5 q s ] #.y.f.H.K.I.I.W.W.(.).(.).[.oX+X.Xm.Y S Q G.).).(.n.Q Z A Q G.^.I.Z.;.{ s q 5 #X#X#X#X#X#X#X#X#X#X#X",
"#X#X#X#X#X#X#X#X#X#Xq i s c #.y.d.H.J.I.W./././.^.W.(.].oX@X.X~ 1 , F v.).'.(.v.A ; , A c.E.E.K.a.X.f p 6 #X#X#X#X#X#X#X#X#X#X#X",
"#X#X#X#X#X#X#X#X#X#Xs f z } #.y.d.H.L.E.W.^.R.S.C.A.S.~.}. X{.I + O Z v.).'.(.x.C o . C 2.A.L.H.a.$.G f s #X#X#X#X#X#X#X#X#X#X#X",
"#X#X#X#X#X#X#X#Xq s l {  .@.,.y.d.h.K.E.^.R.V.8.5.4.5.6.! W U 1 . O Z v.).[.).x.C o . 7 P 5.h.H.g.5.o.x j a q #X#X#X#X#X#X#X#X#X",
"#X#X#X#X#X#X#X#Xq s x ..#.,.,.y.d.H.J.E./.F.s.3...@.} L u < + .   ; A x./.).Q.x.Z $ X 4 G $.p.h.N.d.&...z s q #X#X#X#X#X#X#X#X#X",
"#X#X#X#X#X#X#X6 q s { #.t.t.>.y.d.H.L.E.W.F.V.5.#...{ j 9 % @ @ - 7 F 9.S.I.S.=.D > * y P 4.a.H.H.d.y.O.x s q 6 #X#X#X#X#X#X#X#X",
"#X#X#X#X#X#X#X6 q f ` #.t.t.,.y.d.H.L.E./.^.F.V.8.%.| z p q 3 9 0 u P -.5.8.9.=.G u h P 7.Z.A.H.H.d.y.#.x s q 5 #X#X#X#X#X#X#X#X",
"#X#X#X#X#X#X#X5 q f x @.,.,.,.y.i.N.K.E.W.Q./.E.C.8.#.{ ` z z v z v ]  .o... . .J J X.7.C.U.I.K.h.i.y.@.x s q 5 #X#X#X#X#X#X#X#X",
"#X#X#X#X#X#X#X#X0 a l { @.%.,.y.i.a.N.L.E.W.(.(.E.V.7.:.} T N N M m m ] ' ` ` | ..,.5.V.F.Y.L.N.f.i.y.@.z s q q #X#X#X#X#X#X#X#X",
"#X#X#X#X#X#X#X#X3 0 s k c ..#.t.y.i.d.N.L.E.W.(.W.F.C.0.T V B ) b V N m ` ` `  .>.9.A.P.P.L.N.g.i.y.t.@.x s q 6 #X#X#X#X#X#X#X#X",
"#X#X#X#X#X#X#X#X#X2 0 r j { #.%.&.t.u.d.N.L.I.W./.W.E.M.~ ) / ^ / b n ] | | | o.8.S.U.I.L.N.d.y.t.>.&...x s q #X#X#X#X#X#X#X#X#X",
"#X#X#X#X#X#X#X#X#X= 2 0 r k } @.#.,.4.u.g.N.L.E.E.^.^.T.r._ ) ) ( E T <.#.*.*.;.N.P.E.L.Z.f.u.t.%.#...{ l r 0 #X#X#X#X#X#X#X#X#X",
"#X#X#X#X#X#X#X#X#X& * 2 0 s k c ..,.t.y.u.f.N.L.I.Y.I.D.M.q.w.w.q.q.0.u.u.u.u.a.Z.L.L.N.f.u.y.>.%. .x j a 0 3 #X#X#X#X#X#X#X#X#X",
"#X#X#X#X#X#X#X#X#X& & * 2 0 t f ] O.,.>.>.y.f.N.J.J.J.J.k.j.j.j.s.j.s.h.g.g.N.N.H.H.Z.f.y.>.,.%.@.x f t 0 2 #X#X#X#X#X#X#X#X#X#X",
"#X#X#X#X#X#X#X#X#X#X#X& = 2 5 a k } #.,.,.y.u.f.h.h.h.h.h.h.h.h.h.h.h.h.h.N.g.g.h.h.f.u.y.,.%.@.{ k r 5 4 * #X#X#X#X#X#X#X#X#X#X",
"#X#X#X#X#X#X#X#X#X& # #X& = 3 8 u g J O.%.>.y.u.i.i.u.i.p.u.d.i.i.i.i.d.d.d.d.i.i.i.u.y.>.#...x k a 0 2 * & #X#X#X#X#X#X#X#X#X#X",
"#X#X#X#X#X#X#X#X#X#X#X#X& & * * = w h } :.,.>.>.t.t.>.>.>.>.>.4.t.4.>.3.t.t.>.>.4.>.>.>.,...] f r 0 2 * & #X#X#X#X#X#X#X#X#X#X#X",
"#X#X#X#X#X#X#X#X#X#X#X#X# & #X#X#X& w L X.:.O.O.O.O.O.O.O.O.O.O.O.O.O.O.O.O.o.o.O.O...O.O.} k r 3 2 * #X#X#X#X#X#X#X#X#X#X#X#X#X",
"#X#X#X#X#X#X#X#X#X#X#X#X& # # #X#X# < y h g L g G g g l g G g l g g g g G l g l g g g g g g r 8 4 * & #X#X#X#X#X#X#X#X#X#X#X#X#X",
"#X#X#X#X#X#X#X#X#X#X#X#X#X#X#X#X#X#X#X: w w w w w w w w w w w w w w w w w w w w w w w w w w 7 = = & #X#X#X#X#X#X#X#X#X#X#X#X#X#X",
"#X#X#X#X#X#X#X#X#X#X#X#X#X#X#X#X#X#X#X#X#X#X#X#X#X#X#X#X#X#X#X#X#X#X#X#X#X#X#X#X#X#X#X#X#X#X#X#X#X#X#X#X#X#X#X#X#X#X#X#X#X#X#X#X",
"#X#X#X#X#X#X#X#X#X#X#X#X#X#X#X#X#X#X#X#X#X#X#X#X#X#X#X#X#X#X#X#X#X#X#X#X#X#X#X#X#X#X#X#X#X#X#X#X#X#X#X#X#X#X#X#X#X#X#X#X#X#X#X#X",
"#X#X#X#X#X#X#X#X#X#X#X#X#X#X#X#X#X#X#X#X#X#X#X#X#X#X#X#X#X#X#X#X#X#X#X#X#X#X#X#X#X#X#X#X#X#X#X#X#X#X#X#X#X#X#X#X#X#X#X#X#X#X#X#X",
"#X#X#X#X#X#X#X#X#X#X#X#X#X#X#X#X#X#X#X#X#X#X#X#X#X#X#X#X#X#X#X#X#X#X#X#X#X#X#X#X#X#X#X#X#X#X#X#X#X#X#X#X#X#X#X#X#X#X#X#X#X#X#X#X",
"#X#X#X#X#X#X#X#X#X#X#X#X#X#X#X#X#X#X#X#X#X#X#X#X#X#X#X#X#X#X#X#X#X#X#X#X#X#X#X#X#X#X#X#X#X#X#X#X#X#X#X#X#X#X#X#X#X#X#X#X#X#X#X#X",
"#X#X#X#X#X#X#X#X#X#X#X#X#X#X#X#X#X#X#X#X#X#X#X#X#X#X#X#X#X#X#X#X#X#X#X#X#X#X#X#X#X#X#X#X#X#X#X#X#X#X#X#X#X#X#X#X#X#X#X#X#X#X#X#X",
"#X#X#X#X#X#X#X#X#X#X#X#X#X#X#X#X#X#X#X#X#X#X#X#X#X#X#X#X#X#X#X#X#X#X#X#X#X#X#X#X#X#X#X#X#X#X#X#X#X#X#X#X#X#X#X#X#X#X#X#X#X#X#X#X",
"#X#X#X#X#X#X#X#X#X#X#X#X#X#X#X#X#X#X#X#X#X#X#X#X#X#X#X#X#X#X#X#X#X#X#X#X#X#X#X#X#X#X#X#X#X#X#X#X#X#X#X#X#X#X#X#X#X#X#X#X#X#X#X#X",
"#X#X#X#X#X#X#X#X#X#X#X#X#X#X#X#X#X#X#X#X#X#X#X#X#X#X#X#X#X#X#X#X#X#X#X#X#X#X#X#X#X#X#X#X#X#X#X#X#X#X#X#X#X#X#X#X#X#X#X#X#X#X#X#X",
"#X#X#X#X#X#X#X#X#X#X#X#X#X#X#X#X#X#X#X#X#X#X#X#X#X#X#X#X#X#X#X#X#X#X#X#X#X#X#X#X#X#X#X#X#X#X#X#X#X#X#X#X#X#X#X#X#X#X#X#X#X#X#X#X",
"#X#X#X#X#X#X#X#X#X#X#X#X#X#X#X#X#X#X#X#X#X#X#X#X#X#X#X#X#X#X#X#X#X#X#X#X#X#X#X#X#X#X#X#X#X#X#X#X#X#X#X#X#X#X#X#X#X#X#X#X#X#X#X#X",
"#X#X#X#X#X#X#X#X#X#X#X#X#X#X#X#X#X#X#X#X#X#X#X#X#X#X#X#X#X#X#X#X#X#X#X#X#X#X#X#X#X#X#X#X#X#X#X#X#X#X#X#X#X#X#X#X#X#X#X#X#X#X#X#X",
"#X#X#X#X#X#X#X#X#X#X#X#X#X#X#X#X#X#X#X#X#X#X#X#X#X#X#X#X#X#X#X#X#X#X#X#X#X#X#X#X#X#X#X#X#X#X#X#X#X#X#X#X#X#X#X#X#X#X#X#X#X#X#X#X",
"#X#X#X#X#X#X#X#X#X#X#X#X#X#X#X#X#X#X#X#X#X#X#X#X#X#X#X#X#X#X#X#X#X#X#X#X#X#X#X#X#X#X#X#X#X#X#X#X#X#X#X#X#X#X#X#X#X#X#X#X#X#X#X#X",
"#X#X#X#X#X#X#X#X#X#X#X#X#X#X#X#X#X#X#X#X#X#X#X#X#X#X#X#X#X#X#X#X#X#X#X#X#X#X#X#X#X#X#X#X#X#X#X#X#X#X#X#X#X#X#X#X#X#X#X#X#X#X#X#X",
"#X#X#X#X#X#X#X#X#X#X#X#X#X#X#X#X#X#X#X#X#X#X#X#X#X#X#X#X#X#X#X#X#X#X#X#X#X#X#X#X#X#X#X#X#X#X#X#X#X#X#X#X#X#X#X#X#X#X#X#X#X#X#X#X",
"#X#X#X#X#X#X#X#X#X#X#X#X#X#X#X#X#X#X#X#X#X#X#X#X#X#X#X#X#X#X#X#X#X#X#X#X#X#X#X#X#X#X#X#X#X#X#X#X#X#X#X#X#X#X#X#X#X#X#X#X#X#X#X#X",
"#X#X#X#X#X#X#X#X#X#X#X#X#X#X#X#X#X#X#X#X#X#X#X#X#X#X#X#X#X#X#X#X#X#X#X#X#X#X#X#X#X#X#X#X#X#X#X#X#X#X#X#X#X#X#X#X#X#X#X#X#X#X#X#X",
"#X#X#X#X#X#X#X#X#X#X#X#X#X#X#X#X#X#X#X#X#X#X#X#X#X#X#X#X#X#X#X#X#X#X#X#X#X#X#X#X#X#X#X#X#X#X#X#X#X#X#X#X#X#X#X#X#X#X#X#X#X#X#X#X"
};
