/* XPM */
static char *result[] = {
/* columns rows colors chars-per-pixel */
"64 46 168 2 ",
"   c #0C0B0C",
".  c #070C11",
"X  c #0D1314",
"o  c #0E191D",
"O  c #171B32",
"+  c #181C32",
"@  c #171B3B",
"#  c #181D39",
"$  c #121736",
"%  c #152425",
"&  c #1A293E",
"*  c #1D3436",
"=  c #1F3839",
"-  c #282626",
";  c #213B3D",
":  c #403938",
">  c #191D45",
",  c #191E4B",
"<  c #1A1E59",
"1  c #161755",
"2  c #1B2047",
"3  c #1C214E",
"4  c #1D2256",
"5  c #1C235C",
"6  c #20275A",
"7  c #21295F",
"8  c #243759",
"9  c #1F2761",
"0  c #1F2861",
"q  c #202763",
"w  c #222C64",
"e  c #242F6A",
"r  c #26346B",
"t  c #26396F",
"y  c #293A6D",
"u  c #253267",
"i  c #293574",
"p  c #273970",
"a  c #2B3C75",
"s  c #2E3D7A",
"d  c #6F2F5F",
"f  c #762D5A",
"g  c #433D7E",
"h  c #543470",
"j  c #673C6C",
"k  c #284749",
"l  c #2B4D53",
"z  c #2D5155",
"x  c #32575F",
"c  c #2B406F",
"v  c #2B4174",
"b  c #2C457A",
"n  c #30437F",
"m  c #334F78",
"M  c #35537C",
"N  c #38597C",
"B  c #3C676A",
"V  c #405355",
"C  c #6A456F",
"Z  c #795978",
"A  c #7E5875",
"S  c #417376",
"D  c #407378",
"F  c #467B7D",
"G  c #636666",
"H  c #96334D",
"J  c #8C3654",
"K  c #85546B",
"L  c #805572",
"P  c #2E3987",
"I  c #3A3C83",
"U  c #323F89",
"Y  c #334585",
"T  c #32438B",
"R  c #374A8D",
"E  c #3A4B8C",
"W  c #3A4786",
"Q  c #385A86",
"!  c #38578F",
"~  c #385C8C",
"^  c #385685",
"/  c #3A4F91",
"(  c #3B5292",
")  c #3E5B95",
"_  c #3E5B98",
"`  c #3D6386",
"'  c #3B6393",
"]  c #3D619A",
"[  c #3F6A95",
"{  c #404182",
"}  c #405F96",
"|  c #415E99",
" . c #605D88",
".. c #40678C",
"X. c #477D82",
"o. c #44708D",
"O. c #416196",
"+. c #43639A",
"@. c #466C9B",
"#. c #5A6C91",
"$. c #457394",
"%. c #497A95",
"&. c #40709E",
"*. c #4B7E98",
"=. c #746D87",
"-. c #4465A3",
";. c #4569A5",
":. c #4870A7",
">. c #4C7DA2",
",. c #4877AA",
"<. c #4A7CAD",
"1. c #4673A7",
"2. c #577EA5",
"3. c #507FA9",
"4. c #477FB1",
"5. c #497FB0",
"6. c #4E898F",
"7. c #498287",
"8. c #4E8697",
"9. c #4C8198",
"0. c #4E8A90",
"q. c #548E93",
"w. c #538F9C",
"e. c #549399",
"r. c #589B9F",
"t. c #6C8C95",
"y. c #4D80A4",
"u. c #4A82AC",
"i. c #5083A5",
"p. c #5383AB",
"a. c #548CA9",
"s. c #538FA6",
"d. c #599DA3",
"f. c #5692AB",
"g. c #5997AC",
"h. c #5591A5",
"j. c #4F8CB2",
"k. c #528FB3",
"l. c #5293B5",
"z. c #599CB3",
"x. c #579BB4",
"c. c #6590A6",
"v. c #5BA1A6",
"b. c #5DA4AB",
"n. c #5FA8AD",
"m. c #5CA4B5",
"M. c #5CA5B9",
"N. c #5EA9BA",
"B. c #64A8AF",
"V. c #60A6B3",
"C. c #62ADB6",
"Z. c #62AEBA",
"A. c #79AFB4",
"S. c #64B0B7",
"D. c #66B3B9",
"F. c #69B6BD",
"G. c #69BABD",
"H. c #70B6BD",
"J. c #6ABAC1",
"K. c #7FC2C6",
"L. c #8B8685",
"P. c #98A9AB",
"I. c #8DC6CB",
"U. c #A5CCCE",
"Y. c #A8D9DC",
"T. c #C6CCCD",
"R. c #CCE6E8",
"E. c None",
/* pixels */
"E.E.E.E.E.E.E.E.E.E.E.E.E.E.E.E.E.E.E.E.E.E.E.E.E.E.E.E.E.E.E.E.E.E.E.E.E.E.E.E.E.E.E.E.E.E.E.E.E.E.E.E.E.E.E.E.E.E.E.E.E.E.E.E.",
"E.E.E.E.E.E.E.E.E.E.E.E.E.E.E.E.E.E.E.E.E.E.E.E.E.E.E.E.E.E.E.E.E.E.E.E.E.E.E.E.E.E.E.E.E.E.E.E.E.E.E.E.E.E.E.E.E.E.E.E.E.E.E.E.",
"E.E.E.E.E.E.E.E.E.E.E.E.E.E.E.E.E.E.E.E.E.E.E.E.E.E.E.E.E.E.E.E.E.E.E.E.E.E.E.E.E.E.E.E.E.E.E.E.E.E.E.E.E.E.E.E.E.E.E.E.E.E.E.E.",
"E.E.E.E.E.E.E.E.E.E.E.E.E.E.E.E.E.E.E.E.E.E.E.E.E.E.E.E.E.E.E.E.E.E.E.E.E.E.E.E.E.E.E.E.E.E.E.E.E.E.E.E.E.E.E.E.E.E.E.E.E.E.E.E.",
"E.E.E.E.E.E.E.E.E.E.E.E.E.E.E.E.E.E.E.E.E.E.E.E.E.E.E.E.E.E.E.E.E.E.E.E.E.E.E.E.E.E.E.E.E.E.E.E.E.E.E.E.E.E.E.E.E.E.E.E.E.E.E.E.",
"E.E.E.E.E.E.E.E.E.E.E.E.E.E.E.E.E.E.E.E.E.E.E.E.E.E.E.E.E.E.5 5 5 9 5 9 5 9 9 5 5 E.E.E.E.E.E.E.E.E.E.E.E.E.E.E.E.E.E.E.E.E.E.E.",
"E.E.E.E.E.E.E.E.E.E.E.E.E.E.E.E.E.E.E.E.E.E.E.E.E.E.E.E.E.t p v v v b b b b v v a u E.E.E.E.E.E.E.E.E.E.E.E.E.E.E.E.E.E.E.E.E.E.",
"E.E.E.E.E.E.E.E.E.E.E.E.E.E.E.E.E.E.E.E.E.E.E.E.E.E.E.E.5 b ' 1.1.&.&.&.[ &.[ 1.' p 5 E.E.E.E.E.E.E.E.E.E.E.E.E.E.E.E.E.E.E.E.E.",
"E.E.E.E.E.E.E.E.E.E.E.E.E.E.E.E.E.E.E.E.E.E.E.E.E.E.E.0 p ~ u.l.l.l.l.l.l.l.l.l.y.Q p r E.E.E.E.E.E.E.E.E.E.E.E.E.E.E.E.E.E.E.E.",
"E.E.E.E.E.E.E.E.E.E.E.E.E.E.E.E.E.E.E.E.E.E.E.E.E.E.0 b ' 9.x.M.m.m.N.N.N.M.M.M.m.s.*.N w E.E.E.E.E.E.E.E.E.E.E.E.E.E.E.E.E.E.E.",
"E.E.E.E.E.E.E.E.E.E.E.E.E.E.E.E.E.E.E.E.E.E.E.E.E.0 t ~ u.x.N.F.H.D.N.v.n.C.S.C.C.n.w.N q < E.E.E.E.E.E.E.E.E.E.E.E.E.E.E.E.E.E.",
"E.E.E.E.E.E.E.E.E.E.E.E.E.E.E.E.E.E.E.E.E.E.E.E.t b ~ >.x.N.S.K.Y.U.t.B X.n.G.F.v.F x 8 5 < E.E.E.E.E.E.E.E.E.E.E.E.E.E.E.E.E.E.",
"E.E.E.E.E.E.E.E.E.E.E.E.E.E.E.E.E.E.E.E.E.E.E.5 t ' u.x.V.S.S.I.R.T.G % z v.J.F.q.k o $ 5 9 E.E.E.E.E.E.E.E.E.E.E.E.E.E.E.E.E.E.",
"E.E.E.E.E.E.E.E.E.E.E.E.E.E.E.E.E.E.E.E.E.E.E.< t ' j.M.S.D.S.A.P.L.: X l d.J.G.6.* . & m M E.E.E.E.E.E.E.E.E.E.E.E.E.E.E.E.E.E.",
"E.E.E.E.E.E.E.E.E.E.E.E.E.E.E.E.E.E.E.E.E.E.E.5 t ' j.M.S.F.S.q.V -     z d.J.F.6.* X z 8.$.r < E.E.E.E.E.E.E.E.E.E.E.E.E.E.E.E.",
"E.E.E.E.E.E.E.E.E.E.E.E.E.E.E.E.E.E.E.E.E.E.E.5 t [ l.M.C.F.S.q.k % o * B v.G.F.e.z = D b.%.y < E.E.E.E.E.E.E.E.E.E.E.E.E.E.E.E.",
"E.E.E.E.E.E.E.E.E.E.E.E.E.E.E.E.E.E.E.E.E.E.E.5 y %.m.S.S.S.S.v.6.B S X.e.B.F.D.b.6.7.r.B.%.y < E.E.E.E.E.E.E.E.E.E.E.E.E.E.E.E.",
"E.E.E.E.E.E.E.E.E.E.E.E.E.E.E.E.E.E.E.E.E.E.E.< c *.C.F.S.S.S.S.D.S.C.C.S.S.C.D.S.C.S.F.C.$.u < E.E.E.E.E.E.E.E.E.E.E.E.E.E.E.E.",
"E.E.E.E.E.E.E.E.E.E.E.E.E.E.E.E.E.E.E.E.E.E.E.< c 9.C.F.F.F.D.D.G.F.G.F.F.S.S.S.S.F.F.G.C.%.y < E.E.E.E.E.E.E.E.E.E.E.E.E.E.E.E.",
"E.E.E.E.E.E.E.E.E.E.E.E.E.E.E.E.E.E.E.E.E.E.E.< v 9.C.F.Z.C.C.C.S.S.S.F.S.S.S.D.S.S.C.F.B.o.y < E.E.E.E.E.E.E.E.E.E.E.E.E.E.E.E.",
"E.E.E.E.E.E.E.E.E.E.E.E.E.E.E.E.E.E.E.E.E.E.E.5 c 8.C.g.i.y.i.f.N.F.F.S.D.D.D.D.F.D.S.z.i.^ u < E.E.E.E.E.E.E.E.E.E.E.E.E.E.E.E.",
"E.E.E.E.E.E.E.E.E.E.E.E.E.E.E.E.E.E.E.E.E.E.E.< c 9.V.i.) E E @.g.S.D.S.C.F.D.D.S.F.V.y.! s q 5 E.E.E.E.E.E.E.E.E.E.E.E.E.E.E.E.",
"E.E.E.E.E.E.E.E.E.E.E.E.E.E.E.E.E.E.E.E.E.E.E.< c 9.V.a.O.R U ( >.f.g.f.f.f.f.a.f.f.s.>.} n w 4 E.E.E.E.E.E.E.E.E.E.E.E.E.E.E.E.",
"E.E.E.E.E.E.E.E.E.E.E.E.E.E.E.E.E.E.E.E.E.E.E.5 v 9.C.V.a.@.E T ( ] ' ] } O.} } } } O.>.a...r < E.E.E.E.E.E.E.E.E.E.E.E.E.E.E.E.",
"E.E.E.E.E.E.E.E.E.E.E.E.E.E.E.E.E.E.E.E.E.E.E.< y *.N.F.C.a.O.E W g g g I I U U T E ) >.h.$.y < E.E.E.E.E.E.E.E.E.E.E.E.E.E.E.E.",
"E.E.E.E.E.E.E.E.E.E.E.E.E.E.E.E.E.E.E.E.E.E.E.5 p $.x.Z.Z.m.a.#.C f f d h s P P R @.*.$.` m r E.E.E.E.E.E.E.E.E.E.E.E.E.E.E.E.E.",
"E.E.E.E.E.E.E.E.E.E.E.E.E.E.E.E.E.E.E.E.E.E.E.< t ' j.m.Z.Z.V.t.K H H J j { T T ) a.g.` u < E.E.E.E.E.E.E.E.E.E.E.E.E.E.E.E.E.E.",
"E.E.E.E.E.E.E.E.E.E.E.E.E.E.E.E.E.E.E.E.E.E.E.5 r ! ,.k.x.M.M.c.=.A A Z  .| ] -.;.p.i.^ q 1 E.E.E.E.E.E.E.E.E.E.E.E.E.E.E.E.E.E.",
"E.E.E.E.E.E.E.E.E.E.E.E.E.E.E.E.E.E.E.E.E.E.E.5 e Y +.<.j.l.k.k.3.2.2.2.p.5.u.u.<.:.| s 0 < E.E.E.E.E.E.E.E.E.E.E.E.E.E.E.E.E.E.",
"E.E.E.E.E.E.E.E.E.E.E.E.E.E.E.E.E.E.E.E.E.E.E.4 q s R +.,.<.<.5.5.4.4.4.4.4.5.5.:.) Y e 5 E.E.E.E.E.E.E.E.E.E.E.E.E.E.E.E.E.E.E.",
"E.E.E.E.E.E.E.E.E.E.E.E.E.E.E.E.E.E.E.E.E.E.E.E.3 7 i R -.;.-.-.;.;.-.;.;.-.;.;._ n u 5 2 E.E.E.E.E.E.E.E.E.E.E.E.E.E.E.E.E.E.E.",
"E.E.E.E.E.E.E.E.E.E.E.E.E.E.E.E.E.E.E.E.E.E.E.E.# , 5 s R / / / / / / / / E / | Y r 4 > + E.E.E.E.E.E.E.E.E.E.E.E.E.E.E.E.E.E.E.",
"E.E.E.E.E.E.E.E.E.E.E.E.E.E.E.E.E.E.E.E.E.E.E.E.+ @ 3 w i i i i i i i i i i i i e 6 > @ E.E.E.E.E.E.E.E.E.E.E.E.E.E.E.E.E.E.E.E.",
"E.E.E.E.E.E.E.E.E.E.E.E.E.E.E.E.E.E.E.E.E.E.+ + E.E.# 3 5 6 5 5 < q 5 6 5 5 5 q 6 2 + E.+ + E.E.E.E.E.E.E.E.E.E.E.E.E.E.E.E.E.E.",
"E.E.E.E.E.E.E.E.E.E.E.E.E.E.E.E.E.E.E.E.E.E.+ + E.E.+ > , , , , , , , , , , , , > @ E.E.E.+ + E.E.E.E.E.E.E.E.E.E.E.E.E.E.E.E.E.",
"E.E.E.E.E.E.E.E.E.E.E.E.E.E.E.E.E.E.E.E.E.E.+ + E.E.+ + # # # # @ # # # # # # # # + + E.E.+ + E.E.E.E.E.E.E.E.E.E.E.E.E.E.E.E.E.",
"E.E.E.E.E.E.E.E.E.E.E.E.E.E.E.E.E.E.E.E.E.E.+ + E.+ E.E.E.E.E.E.E.E.E.E.E.E.E.E.E.E.E.+ + + + E.E.E.E.E.E.E.E.E.E.E.E.E.E.E.E.E.",
"E.E.E.E.E.E.E.E.E.E.E.E.E.E.E.E.E.E.E.E.E.E.+ + E.+ E.E.E.E.E.E.E.E.E.E.E.E.E.E.E.E.E.E.+ + + E.E.E.E.E.E.E.E.E.E.E.E.E.E.E.E.E.",
"E.E.E.E.E.E.E.E.E.E.E.E.E.E.E.E.E.E.E.E.E.E.E.E.+ + + + + + + + + + + + + + + + + + + + + E.E.E.E.E.E.E.E.E.E.E.E.E.E.E.E.E.E.E.",
"E.E.E.E.E.E.E.E.E.E.E.E.E.E.E.E.E.E.E.E.E.E.E.E.+ + + + + + + + + + + + + + + + + + + + + E.E.E.E.E.E.E.E.E.E.E.E.E.E.E.E.E.E.E.",
"E.E.E.E.E.E.E.E.E.E.E.E.E.E.E.E.E.E.E.E.E.E.E.E.E.E.E.E.E.E.E.E.E.E.E.E.E.E.E.E.E.E.E.E.E.E.E.E.E.E.E.E.E.E.E.E.E.E.E.E.E.E.E.E.",
"E.E.E.E.E.E.E.E.E.E.E.E.E.E.E.E.E.E.E.E.E.E.E.E.E.E.E.E.E.E.E.E.E.E.E.E.E.E.E.E.E.E.E.E.E.E.E.E.E.E.E.E.E.E.E.E.E.E.E.E.E.E.E.E.",
"E.E.E.E.E.E.E.E.E.E.E.E.E.E.E.E.E.E.E.E.E.E.E.E.E.E.E.E.E.E.E.E.E.E.E.E.E.E.E.E.E.E.E.E.E.E.E.E.E.E.E.E.E.E.E.E.E.E.E.E.E.E.E.E.",
"E.E.E.E.E.E.E.E.E.E.E.E.E.E.E.E.E.E.E.E.E.E.E.E.E.E.E.E.E.E.E.E.E.E.E.E.E.E.E.E.E.E.E.E.E.E.E.E.E.E.E.E.E.E.E.E.E.E.E.E.E.E.E.E.",
"E.E.E.E.E.E.E.E.E.E.E.E.E.E.E.E.E.E.E.E.E.E.E.E.E.E.E.E.E.E.E.E.E.E.E.E.E.E.E.E.E.E.E.E.E.E.E.E.E.E.E.E.E.E.E.E.E.E.E.E.E.E.E.E.",
"E.E.E.E.E.E.E.E.E.E.E.E.E.E.E.E.E.E.E.E.E.E.E.E.E.E.E.E.E.E.E.E.E.E.E.E.E.E.E.E.E.E.E.E.E.E.E.E.E.E.E.E.E.E.E.E.E.E.E.E.E.E.E.E."
};
