/* XPM */
static char *result[] = {
/* columns rows colors chars-per-pixel */
"64 56 181 2 ",
"   c #0A0C0C",
".  c #070A09",
"X  c #111D1E",
"o  c #211E1E",
"O  c #27201F",
"+  c #111F20",
"@  c #171B2F",
"#  c #171B31",
"$  c #181C32",
"%  c #171B39",
"&  c #181D3D",
"*  c #192C2E",
"=  c #172B2D",
"-  c #323839",
";  c #191E45",
":  c #191E4E",
">  c #181B56",
",  c #1A1F59",
"<  c #1D2354",
"1  c #1C225B",
"2  c #1F2561",
"3  c #1E2860",
"4  c #212763",
"5  c #212A64",
"6  c #232D69",
"7  c #25346C",
"8  c #293C6D",
"9  c #27396D",
"0  c #273270",
"q  c #293472",
"w  c #2C3976",
"e  c #2E3C7A",
"r  c #3F397E",
"t  c #70315F",
"y  c #7E3158",
"u  c #55346F",
"i  c #4D3775",
"p  c #533672",
"a  c #284247",
"s  c #26494A",
"d  c #32565E",
"f  c #345D62",
"g  c #2D4475",
"h  c #2E437C",
"j  c #30427F",
"k  c #376264",
"l  c #3A666A",
"z  c #3C6A6D",
"x  c #366468",
"c  c #3D647B",
"v  c #464544",
"b  c #665E5E",
"n  c #4D427C",
"m  c #5E4073",
"M  c #724B6F",
"N  c #795878",
"B  c #48686B",
"V  c #576B6D",
"C  c #98324C",
"Z  c #822C53",
"A  c #823A5C",
"S  c #943852",
"D  c #82536F",
"F  c #825771",
"G  c #2F3A87",
"H  c #2E3B88",
"J  c #323D83",
"K  c #353D86",
"L  c #324483",
"P  c #344D84",
"I  c #33438B",
"U  c #36498A",
"Y  c #394C8D",
"T  c #3D4688",
"R  c #355483",
"E  c #355489",
"W  c #365A8C",
"Q  c #3A5D8D",
"!  c #3A4F91",
"~  c #3B5293",
"^  c #3D5A94",
"/  c #3F5799",
"(  c #3E5998",
")  c #3E658D",
"_  c #3D619C",
"`  c #3C6395",
"'  c #46538B",
"]  c #5A5D8A",
"[  c #405F96",
"{  c #40579B",
"}  c #415C9E",
"|  c #426F88",
" . c #44708F",
".. c #487B84",
"X. c #416492",
"o. c #44649B",
"O. c #466C9C",
"+. c #436A91",
"@. c #467590",
"#. c #4A7B95",
"$. c #44719E",
"%. c #48719E",
"&. c #4B7A9B",
"*. c #5D799E",
"=. c #746E88",
"-. c #627190",
";. c #435FA1",
":. c #4463A3",
">. c #456BA5",
",. c #496CA5",
"<. c #476EA8",
"1. c #4675A5",
"2. c #4A74A3",
"3. c #4C7CA4",
"4. c #4672AB",
"5. c #4875AA",
"6. c #477BAA",
"7. c #4A7BAC",
"8. c #537BA5",
"9. c #478086",
"0. c #4D898B",
"q. c #4B8588",
"w. c #4D8494",
"e. c #508D94",
"r. c #529195",
"t. c #56969C",
"y. c #59999D",
"u. c #708797",
"i. c #609598",
"p. c #4981AB",
"a. c #4F88AF",
"s. c #4F81A5",
"d. c #5184A5",
"f. c #5289A5",
"g. c #5284AC",
"h. c #558CAB",
"j. c #5981A5",
"k. c #5A9CA6",
"l. c #5693AD",
"z. c #5994AB",
"x. c #5B9BAF",
"c. c #4B84B1",
"v. c #4E8BB3",
"b. c #508DB2",
"n. c #588FB3",
"m. c #5394B4",
"M. c #5699B6",
"N. c #5B9DB2",
"B. c #579BB9",
"V. c #5993B0",
"C. c #678DA3",
"Z. c #5BA0A7",
"A. c #5DA4AB",
"S. c #5DA4B6",
"D. c #5FA9B7",
"F. c #5EA7B8",
"G. c #5EA8B8",
"H. c #61ABAF",
"J. c #61A7B4",
"K. c #62ACB6",
"L. c #62ACB9",
"P. c #6EABB1",
"I. c #64B1B7",
"U. c #65B2B9",
"Y. c #69B5BB",
"T. c #69B9BE",
"R. c #67B8BD",
"E. c #6ABAC1",
"W. c #7DBDC3",
"Q. c #8A8C8D",
"!. c #84A2A5",
"~. c #81B6BA",
"^. c #A1A0A0",
"/. c #A2B7B8",
"(. c #85C4CA",
"). c #91C8CE",
"_. c #ADDBDF",
"`. c #B4D6DA",
"'. c #D1DADB",
"]. c #C8E4E7",
"[. c None",
/* pixels */
"[.[.[.[.[.[.[.[.[.[.[.[.[.[.[.[.[.[.[.[.[.[.[.[.[.[.[.[.[.[.[.[.[.[.[.[.[.[.[.[.[.[.[.[.[.[.[.[.[.[.[.[.[.[.[.[.[.[.[.[.[.[.[.[.",
"[.[.[.[.[.[.[.[.[.[.[.[.[.[.[.[.[.[.[.[.[.[.[.[.[.[.[.[.[.[.[.[.[.[.[.[.[.[.[.[.[.[.[.[.[.[.[.[.[.[.[.[.[.[.[.[.[.[.[.[.[.[.[.[.",
"[.[.[.[.[.[.[.[.[.[.[.[.[.[.[.[.[.[.[.[.[.[.[.[.[.[.[.[.[.[.[.[.[.[.[.[.[.[.[.[.[.[.[.[.[.[.[.[.[.[.[.[.[.[.[.[.[.[.[.[.[.[.[.[.",
"[.[.[.[.[.[.[.[.[.[.[.[.[.[.[.[.[.[.[.[.[.[.[.[.[.[.[.[.[.[.[.[.[.[.[.[.[.[.[.[.[.[.[.[.[.[.[.[.[.[.[.[.[.[.[.[.[.[.[.[.[.[.[.[.",
"[.[.[.[.[.[.[.[.[.[.[.[.[.[.[.[.[.[.[.[.[.[.[.[.[.[.[.[.[.[.[.[.[.[.[.[.[.[.[.[.[.[.[.[.[.[.[.[.[.[.[.[.[.[.[.[.[.[.[.[.[.[.[.[.",
"[.[.[.[.[.[.[.[.[.[.[.[.[.[.[.[.[.[.[.[.[.[.[.[.[.[.[.[.[.[.[.[.[.[.[.[.[.[.[.[.[.[.[.[.[.[.[.[.[.[.[.[.[.[.[.[.[.[.[.[.[.[.[.[.",
"[.[.[.[.[.[.[.[.[.[.[.[.[.[.[.[.[.[.[.[.[.[.[.[.[.[.[.[.[.[.[.[.[.[.[.[.[.[.[.[.[.[.[.[.[.[.[.[.[.[.[.[.[.[.[.[.[.[.[.[.[.[.[.[.",
"[.[.[.[.[.[.[.[.[.[.[.[.[.[.[.[.[.[.[.[.[.[.[.[.[.[.[.[.[.[.[.[.[.[.[.[.[.[.[.[.[.[.[.[.[.[.[.[.[.[.[.[.[.[.[.[.[.[.[.[.[.[.[.[.",
"[.[.[.[.[.[.[.[.[.[.[.[.[.[.[.[.[.[.[.[.[.[.[.[.[.[.[.[.[.[.[.[.[.[.[.[.[.[.[.[.[.[.[.[.[.[.[.[.[.[.[.[.[.[.[.[.[.[.[.[.[.[.[.[.",
"[.[.[.[.[.[.[.[.[.[.[.[.[.[.[.[.[.[.[.[.[.[.[.[.[.[.[.[.[.[.[.[.[.[.[.[.[.[.[.[.[.[.[.[.[.[.[.[.[.[.[.[.[.[.[.[.[.[.[.[.[.[.[.[.",
"[.[.[.[.[.[.[.[.[.[.[.[.[.[.[.[.[.[.[.[.[.[.[.[.[.[.[.[.[.[.[.[.[.[.[.[.[.[.[.[.[.[.[.[.[.[.[.[.[.[.[.[.[.[.[.[.[.[.[.[.[.[.[.[.",
"[.[.[.[.[.[.[.[.[.[.[.[.[.[.[.[.[.[.[.[.[.[.[.[.1 1 1 1 1 1 1 1 1 1 1 1 1 1 1 1 1 1 1 1 1 [.[.[.[.[.[.[.[.[.[.[.[.[.[.[.[.[.[.[.",
"[.[.[.[.[.[.[.[.[.[.[.[.[.[.[.[.[.[.[.[.[.[.[.[.6 6 6 7 7 0 9 7 7 7 7 7 7 7 0 7 7 7 0 9 7 7 [.[.[.[.[.[.[.[.[.[.[.[.[.[.[.[.[.[.",
"[.[.[.[.[.[.[.[.[.[.[.[.[.[.[.[.[.[.[.[.[.[.1 6 w L P E W W W W W W W W W W W W W W W W E 8 3 [.[.[.[.[.[.[.[.[.[.[.[.[.[.[.[.[.",
"[.[.[.[.[.[.[.[.[.[.[.[.[.[.[.[.[.[.[.[.[.1 2 7 L ( >.6.p.p.p.p.p.p.p.7.p.p.p.p.p.p.p.p._ h 7 1 [.[.[.[.[.[.[.[.[.[.[.[.[.[.[.[.",
"[.[.[.[.[.[.[.[.[.[.[.[.[.[.[.[.[.[.[.[.[.6 0 L ^ >.7.c.v.m.M.M.M.M.M.M.M.M.M.M.M.M.B.M.a.) g 3 6 [.[.[.[.[.[.[.[.[.[.[.[.[.[.[.",
"[.[.[.[.[.[.[.[.[.[.[.[.[.[.[.[.[.[.[.1 6 w L ^ >.6.c.v.m.m.F.D.J.D.F.F.F.D.D.D.F.F.D.L.z.%.Y w 6 1 [.[.[.[.[.[.[.[.[.[.[.[.[.[.",
"[.[.[.[.[.[.[.[.[.[.[.[.[.[.[.[.[.[.[.1 6 j ( >.7.v.v.v.m.S.G.I.I.I.K.L.I.I.K.I.L.I.I.L.S.g.:.U 0 2 , [.[.[.[.[.[.[.[.[.[.[.[.[.",
"[.[.[.[.[.[.[.[.[.[.[.[.[.[.[.[.[.[.[.1 7 P >.7.c.v.m.M.S.D.I.I.I.I.R.T.T.U.U.U.I.Y.T.T.I.N.g.X.w 1 > [.[.[.[.[.[.[.[.[.[.[.[.[.",
"[.[.[.[.[.[.[.[.[.[.[.[.[.[.[.[.[.[.[.1 7 E 6.c.v.b.m.S.D.I.I.I.I.L.I.I.U.I.I.I.I.I.U.I.Y.L.N.&.g 2 > [.[.[.[.[.[.[.[.[.[.[.[.[.",
"[.[.[.[.[.[.[.[.[.[.[.[.[.[.[.[.[.[.[.1 7 W p.v.v.v.M.D.I.I.K.Y.W.W.P.y.y.Z.I.I.I.K.Z.t.y.A.K.e.c 6 4 [.[.[.[.[.[.[.[.[.[.[.[.[.",
"[.[.[.[.[.[.[.[.[.[.[.[.[.[.[.[.[.[.[., 7 W p.v.v.v.M.K.U.K.Y.(._.`.!.B d 9.A.R.T.J.q.d k 0.A.z.X.J q 4 [.[.[.[.[.[.[.[.[.[.[.[.",
"[.[.[.[.[.[.[.[.[.[.[.[.[.[.[.[.[.[.[.2 9 W p.v.v.v.M.K.I.K.Y.).].'.Q.- = x A.E.T.Z.l * * z x.N.5.^ e 6 1 [.[.[.[.[.[.[.[.[.[.[.",
"[.[.[.[.[.[.[.[.[.[.[.[.[.[.[.[.[.[.3 7 L ` c.v.m.M.S.K.U.U.Y.~./.^.b o X k Z.E.T.Z.k X X k k.L.n.2.P 7 1 [.[.[.[.[.[.[.[.[.[.[.",
"[.[.[.[.[.[.[.[.[.[.[.[.[.[.[.[.[.6 0 L ~ >.a.m.S.F.D.I.Y.Y.I.i.V v O   + x A.E.T.Z.f X X k A.U.K.h.) 9 1 [.[.[.[.[.[.[.[.[.[.[.",
"[.[.[.[.[.[.[.[.[.[.[.[.[.[.[.[.1 2 w ! :.4.c.m.S.D.I.D.J.L.A...a X .   * z A.E.T.A.l * * k k.U.I.A. .8 1 [.[.[.[.[.[.[.[.[.[.[.",
"[.[.[.[.[.[.[.[.[.[.[.[.[.[.[.[., 6 w ! :.6.v.M.D.L.x.f.3.3.3.| d s s s k 0.A.E.T.H.q.k d c &.z.L.J.@.w , [.[.[.[.[.[.[.[.[.[.[.",
"[.[.[.[.[.[.[.[.[.[.[.[.[.[.[.[., 4 w ! :.4.v.m.D.J.f.+.^ Y ^ X.#.e.r.r.y.A.I.U.U.I.A.y.w.+.^ %.x.x.@.8 1 [.[.[.[.[.[.[.[.[.[.[.",
"[.[.[.[.[.[.[.[.[.[.[.[.[.[.[.[., 6 w ! :.4.a.m.D.D.f.o.Y I I ^ s.N.S.S.A.x.x.x.x.N.N.x.h.%.^ $.z.x.) g 1 [.[.[.[.[.[.[.[.[.[.[.",
"[.[.[.[.[.[.[.[.[.[.[.[.[.[.[.[., 2 w ! :.5.v.M.D.K.N.f.%.~ I U _ 2.1.2.1.1.%.$.%.O.%.2.2.3.3.f.V.l.) 9 1 [.[.[.[.[.[.[.[.[.[.[.",
"[.[.[.[.[.[.[.[.[.[.[.[.[.[.[.[.1 6 w ! :.4.c.M.S.I.I.K.z.O.Y I U Y Y U Y Y Y Y ! ! U Y X.8.x.S.m.p.W 9 1 [.[.[.[.[.[.[.[.[.[.[.",
"[.[.[.[.[.[.[.[.[.[.[.[.[.[.[.[., 3 w ! :.<.7.a.M.S.I.U.J.f.O.' n p u p i r K H H H U ^ $.z.K.D.m.1.R 7 1 [.[.[.[.[.[.[.[.[.[.[.",
"[.[.[.[.[.[.[.[.[.[.[.[.[.[.[.[., 4 w ~ :.:.,.5.a.M.S.I.L.S.h.-.M Z Z Z t p K K H I ^ 3.z.K.I.S.p.o.L 7 1 [.[.[.[.[.[.[.[.[.[.[.",
"[.[.[.[.[.[.[.[.[.[.[.[.[.[.[.[.1 6 w Y { { } :.6.v.M.S.I.I.J.u.F S C S A m T I I ~ 1.x.K.K.L.V.5.{ e 6 1 [.[.[.[.[.[.[.[.[.[.[.",
"[.[.[.[.[.[.[.[.[.[.[.[.[.[.[.[.[.4 0 e L ! { :.>.5.a.M.S.G.S.C.=.F F F N ] o._ _ o.s.M.S.N.h.8.,.{ L 6 1 [.[.[.[.[.[.[.[.[.[.[.",
"[.[.[.[.[.[.[.[.[.[.[.[.[.[.[.[.[.[.4 6 w L [ } ;.>.4.v.m.m.m.h.j.8.-.8.8.8.7.7.7.p.c.b.a.3.<.:.} { J 6 3 [.[.[.[.[.[.[.[.[.[.[.",
"[.[.[.[.[.[.[.[.[.[.[.[.[.[.[.[.[.[.[.< 3 e Y { / ;.>.7.p.c.7.c.c.c.c.c.c.c.c.7.7.c.c.c.5.>.;.{ { U e 5 < [.[.[.[.[.[.[.[.[.[.[.",
"[.[.[.[.[.[.[.[.[.[.[.[.[.[.[.[.[.[.[.; < 6 w L ~ ;.:.>.4.4.5.<.4.4.4.4.4.4.5.4.5.5.5.<.>.:.;.~ L w 6 < : [.[.[.[.[.[.[.[.[.[.[.",
"[.[.[.[.[.[.[.[.[.[.[.[.[.[.[.[.[.[.[.% ; < 3 w U { ;.;.} } o.} } } } } } ( ;.;.} } } } ;.;.{ P w 3 < ; [.[.[.[.[.[.[.[.[.[.[.[.",
"[.[.[.[.[.[.[.[.[.[.[.[.[.[.[.[.[.# @ [.$ ; < 6 e U I U U U I U U I U U U U U U U U U U I Y U e 5 < ; $ [.[.[.[.[.[.[.[.[.[.[.[.",
"[.[.[.[.[.[.[.[.[.[.[.[.[.[.[.[.[.# # [.# % ; < 6 q q q q q q q 0 0 0 0 9 0 0 q 0 q 0 0 q q 9 7 < ; % $ [.[.[.[.[.[.[.[.[.[.[.[.",
"[.[.[.[.[.[.[.[.[.[.[.[.[.[.[.$ $ [.# [.[.[.% ; < 1 1 1 1 < 1 < 1 1 1 1 1 1 1 1 1 1 1 1 1 1 1 < ; % [.[.$ $ [.[.[.[.[.[.[.[.[.[.",
"[.[.[.[.[.[.[.[.[.[.[.[.[.[.[.$ $ $ [.$ [.[.[.% ; : : < : : : : : : : : : : : : : : < : : : : ; & [.[.[.$ $ $ [.[.[.[.[.[.[.[.[.",
"[.[.[.[.[.[.[.[.[.[.[.[.[.[.[.$ $ $ [.$ [.[.[.$ % & & & & ; & & & & ; & ; & & & & & & & & & & & $ [.[.[.$ $ [.[.[.[.[.[.[.[.[.[.",
"[.[.[.[.[.[.[.[.[.[.[.[.[.[.[.$ $ $ [.[.$ $ [.[.[.[.[.[.[.[.[.[.[.[.[.[.[.[.[.[.[.[.[.[.[.[.[.[.[.[.$ $ $ $ [.[.[.[.[.[.[.[.[.[.",
"[.[.[.[.[.[.[.[.[.[.[.[.[.[.[.$ $ $ [.[.$ $ [.[.[.[.[.[.[.[.[.[.[.[.[.[.[.[.[.[.[.[.[.[.[.[.[.[.[.[.$ [.$ $ $ [.[.[.[.[.[.[.[.[.",
"[.[.[.[.[.[.[.[.[.[.[.[.[.[.[.$ $ [.$ $ $ $ [.[.[.[.[.[.[.[.[.[.[.[.[.[.[.[.[.[.[.[.[.[.[.[.[.[.[.$ $ $ $ $ [.[.[.[.[.[.[.[.[.[.",
"[.[.[.[.[.[.[.[.[.[.[.[.[.[.[.[.[.$ $ $ $ $ $ $ $ $ $ $ $ $ $ $ $ $ $ $ $ $ $ $ $ $ $ $ $ $ $ $ $ $ $ $ [.[.[.[.[.[.[.[.[.[.[.[.",
"[.[.[.[.[.[.[.[.[.[.[.[.[.[.[.[.[.$ $ $ $ $ $ $ $ $ $ $ $ $ $ $ $ $ $ $ $ $ $ $ $ $ $ $ $ $ $ $ $ $ $ $ [.[.[.[.[.[.[.[.[.[.[.[.",
"[.[.[.[.[.[.[.[.[.[.[.[.[.[.[.[.[.[.[.[.[.[.[.[.[.[.[.[.[.[.[.[.[.[.[.[.[.[.[.[.[.[.[.[.[.[.[.[.[.[.[.[.[.[.[.[.[.[.[.[.[.[.[.[.",
"[.[.[.[.[.[.[.[.[.[.[.[.[.[.[.[.[.[.[.[.[.[.[.[.[.[.[.[.[.[.[.[.[.[.[.[.[.[.[.[.[.[.[.[.[.[.[.[.[.[.[.[.[.[.[.[.[.[.[.[.[.[.[.[.",
"[.[.[.[.[.[.[.[.[.[.[.[.[.[.[.[.[.[.[.[.[.[.[.[.[.[.[.[.[.[.[.[.[.[.[.[.[.[.[.[.[.[.[.[.[.[.[.[.[.[.[.[.[.[.[.[.[.[.[.[.[.[.[.[.",
"[.[.[.[.[.[.[.[.[.[.[.[.[.[.[.[.[.[.[.[.[.[.[.[.[.[.[.[.[.[.[.[.[.[.[.[.[.[.[.[.[.[.[.[.[.[.[.[.[.[.[.[.[.[.[.[.[.[.[.[.[.[.[.[.",
"[.[.[.[.[.[.[.[.[.[.[.[.[.[.[.[.[.[.[.[.[.[.[.[.[.[.[.[.[.[.[.[.[.[.[.[.[.[.[.[.[.[.[.[.[.[.[.[.[.[.[.[.[.[.[.[.[.[.[.[.[.[.[.[.",
"[.[.[.[.[.[.[.[.[.[.[.[.[.[.[.[.[.[.[.[.[.[.[.[.[.[.[.[.[.[.[.[.[.[.[.[.[.[.[.[.[.[.[.[.[.[.[.[.[.[.[.[.[.[.[.[.[.[.[.[.[.[.[.[.",
"[.[.[.[.[.[.[.[.[.[.[.[.[.[.[.[.[.[.[.[.[.[.[.[.[.[.[.[.[.[.[.[.[.[.[.[.[.[.[.[.[.[.[.[.[.[.[.[.[.[.[.[.[.[.[.[.[.[.[.[.[.[.[.[."
};
