/* XPM */
static char *result[] = {
/* columns rows colors chars-per-pixel */
"64 59 172 2 ",
"   c #080C0C",
".  c #0D1718",
"X  c #0D1818",
"o  c #0C1314",
"O  c #181111",
"+  c #101718",
"@  c #171B31",
"#  c #181C32",
"$  c #192C2D",
"%  c #182728",
"&  c #1E3739",
"*  c #213B3D",
"=  c #373332",
"-  c #47403F",
";  c #191D44",
":  c #191B56",
">  c #1B1F59",
",  c #1A2053",
"<  c #1D235C",
"1  c #1F2760",
"2  c #1F2962",
"3  c #212964",
"4  c #242E6A",
"5  c #25336C",
"6  c #27396F",
"7  c #243166",
"8  c #293573",
"9  c #2A3D73",
"0  c #2E3C7B",
"q  c #303F7F",
"w  c #5C326A",
"e  c #493878",
"r  c #573D74",
"t  c #693465",
"y  c #27474A",
"u  c #2A4D50",
"i  c #32575A",
"p  c #32595C",
"a  c #385F6F",
"s  c #2D4375",
"d  c #2D467A",
"f  c #324D7B",
"g  c #34527C",
"h  c #366163",
"j  c #3A6264",
"k  c #3E6E71",
"l  c #4D595A",
"z  c #784368",
"x  c #43767B",
"c  c #427277",
"v  c #656868",
"b  c #76607F",
"n  c #8C2B4D",
"m  c #872E52",
"M  c #8D3E5A",
"N  c #943B55",
"B  c #87526A",
"V  c #2E3987",
"C  c #2D3B89",
"Z  c #303B87",
"A  c #363B84",
"S  c #324482",
"D  c #334C84",
"F  c #34448B",
"G  c #3B4689",
"H  c #364A8B",
"J  c #384D8E",
"K  c #335485",
"L  c #345688",
"P  c #38548F",
"I  c #365A8C",
"U  c #385D8F",
"Y  c #3B5E83",
"T  c #354C91",
"R  c #384F92",
"E  c #3C5394",
"W  c #3C5B93",
"Q  c #3E5E99",
"!  c #3E6484",
"~  c #3F628E",
"^  c #3B6494",
"/  c #3E6698",
"(  c #3F6BA2",
")  c #4C4A83",
"_  c #4E5286",
"`  c #405F96",
"'  c #405F9C",
"]  c #406A85",
"[  c #477D82",
"{  c #416297",
"}  c #426B93",
"|  c #43639B",
" . c #446B9C",
".. c #4B6B9A",
"X. c #44759D",
"o. c #48719E",
"O. c #6D6E8A",
"+. c #62668D",
"@. c #736382",
"#. c #747E90",
"$. c #456AA5",
"%. c #4465A1",
"&. c #4374A3",
"*. c #467BA6",
"=. c #4D7BA3",
"-. c #477EA8",
";. c #497CAD",
":. c #4874A8",
">. c #477EB1",
",. c #487EB0",
"<. c #4B858A",
"1. c #4C888D",
"2. c #5A868A",
"3. c #4E859D",
"4. c #508C94",
"5. c #50879F",
"6. c #528C9E",
"7. c #549498",
"8. c #56989E",
"9. c #58999F",
"0. c #6B8C8D",
"q. c #4E83A3",
"w. c #4B84AD",
"e. c #5185A6",
"r. c #538CA4",
"t. c #5281AA",
"y. c #538CAA",
"u. c #5591A5",
"i. c #599CA2",
"p. c #5692AC",
"a. c #5A95AB",
"s. c #5A99AE",
"d. c #4E8BB2",
"f. c #4C80B0",
"g. c #5087B1",
"h. c #528BB3",
"j. c #5394B4",
"k. c #5599B6",
"l. c #5A9DB4",
"z. c #569BB9",
"x. c #599EBA",
"c. c #5294B8",
"v. c #6487A1",
"b. c #5EA5AB",
"n. c #5BA0A4",
"m. c #5DA4B5",
"M. c #5EA9B6",
"N. c #5DA6B8",
"B. c #5FA9B9",
"V. c #60A9AE",
"C. c #66A5AB",
"Z. c #61A6B3",
"A. c #62ACB5",
"S. c #61ABB9",
"D. c #64B0B7",
"F. c #6AB0B7",
"G. c #66B3B9",
"H. c #6AB6BC",
"J. c #69B9BE",
"K. c #74B8BD",
"L. c #6BBCC4",
"P. c #7ABDC2",
"I. c #908B8A",
"U. c #89B4B8",
"Y. c #A5B1B2",
"T. c #90CCD0",
"R. c #A7C9CB",
"E. c #BFC5C5",
"W. c #A1D1D6",
"Q. c #B3DEE0",
"!. c #D3E7E9",
"~. c None",
/* pixels */
"~.~.~.~.~.~.~.~.~.~.~.~.~.~.~.~.~.~.~.~.~.~.~.~.~.~.~.~.~.~.~.~.~.~.~.~.~.~.~.~.~.~.~.~.~.~.~.~.~.~.~.~.~.~.~.~.~.~.~.~.~.~.~.~.",
"~.~.~.~.~.~.~.~.~.~.~.~.~.~.~.~.~.~.~.~.~.~.~.~.~.~.~.~.~.~.~.~.~.~.~.~.~.~.~.~.~.~.~.~.~.~.~.~.~.~.~.~.~.~.~.~.~.~.~.~.~.~.~.~.",
"~.~.~.~.~.~.~.~.~.~.~.~.~.~.~.~.~.~.~.~.~.~.~.~.~.~.~.~.~.~.~.~.~.~.~.~.~.~.~.~.~.~.~.~.~.~.~.~.~.~.~.~.~.~.~.~.~.~.~.~.~.~.~.~.",
"~.~.~.~.~.~.~.~.~.~.~.~.~.~.~.~.~.~.~.~.~.~.~.~.~.~.~.~.~.~.~.~.~.~.~.~.~.~.~.~.~.~.~.~.~.~.~.~.~.~.~.~.~.~.~.~.~.~.~.~.~.~.~.~.",
"~.~.~.~.~.~.~.~.~.~.~.~.~.~.~.~.~.~.~.~.~.~.~.~.~.~.~.~.~.~.~.~.~.~.~.~.~.~.~.~.~.~.~.~.~.~.~.~.~.~.~.~.~.~.~.~.~.~.~.~.~.~.~.~.",
"~.~.~.~.~.~.~.~.~.~.~.~.~.~.~.~.~.~.~.~.~.~.~.~.~.~.~.~.~.~.~.~.~.~.~.~.~.~.~.~.~.~.~.~.~.~.~.~.~.~.~.~.~.~.~.~.~.~.~.~.~.~.~.~.",
"~.~.~.~.~.~.~.~.~.~.~.~.~.~.~.~.~.~.~.~.~.~.~.~.~.~.~.~.~.~.~.~.~.~.~.~.~.~.~.~.~.~.~.~.~.~.~.~.~.~.~.~.~.~.~.~.~.~.~.~.~.~.~.~.",
"~.~.~.~.~.~.~.~.~.~.~.~.~.~.~.~.~.~.~.~.~.~.~.~.~.~.~.~.~.~.~.~.~.~.~.~.~.~.~.~.~.~.~.~.~.~.~.~.~.~.~.~.~.~.~.~.~.~.~.~.~.~.~.~.",
"~.~.~.~.~.~.~.~.~.~.~.~.~.~.~.~.~.~.~.~.~.~.~.~.~.~.< , < , , < < > > < , < < > > ~.~.~.~.~.~.~.~.~.~.~.~.~.~.~.~.~.~.~.~.~.~.~.",
"~.~.~.~.~.~.~.~.~.~.~.~.~.~.~.~.~.~.~.~.~.~.~.~.~.7 5 6 6 6 6 5 6 6 5 6 6 5 6 6 5 ~.~.~.~.~.~.~.~.~.~.~.~.~.~.~.~.~.~.~.~.~.~.~.",
"~.~.~.~.~.~.~.~.~.~.~.~.~.~.~.~.~.~.~.~.~.~.~.~.2 d L ^ U U ^ I U U U U I ^ ^ I D 5 > ~.~.~.~.~.~.~.~.~.~.~.~.~.~.~.~.~.~.~.~.~.",
"~.~.~.~.~.~.~.~.~.~.~.~.~.~.~.~.~.~.~.~.~.~.~.< 4 K &.w.w.w.w.w.w.w.w.w.w.w.w.w./ s 3 ~.~.~.~.~.~.~.~.~.~.~.~.~.~.~.~.~.~.~.~.~.",
"~.~.~.~.~.~.~.~.~.~.~.~.~.~.~.~.~.~.~.~.~.~.3 5 0 U ;.c.c.k.k.z.k.x.N.x.x.z.x.k.r.^ K s ~.~.~.~.~.~.~.~.~.~.~.~.~.~.~.~.~.~.~.~.",
"~.~.~.~.~.~.~.~.~.~.~.~.~.~.~.~.~.~.~.~.~.< 4 A P | w.c.m.M.M.M.M.S.S.A.S.S.S.M.M.n.q.! 7 : ~.~.~.~.~.~.~.~.~.~.~.~.~.~.~.~.~.~.",
"~.~.~.~.~.~.~.~.~.~.~.~.~.~.~.~.~.~.~.~.> < 5 H | ;.d.c.m.D.K.P.K.C.9.9.V.D.D.F.M.n.4.! s 7 ~.~.~.~.~.~.~.~.~.~.~.~.~.~.~.~.~.~.",
"~.~.~.~.~.~.~.~.~.~.~.~.~.~.~.~.~.~.~.~.: > 6 P ;.g.k.m.M.H.T.Q.R.0.a k 8.D.L.A.7.k p j ] ! f 1 ~.~.~.~.~.~.~.~.~.~.~.~.~.~.~.~.",
"~.~.~.~.~.~.~.~.~.~.~.~.~.~.~.~.~.~.~.~.> 1 9 / w.k.M.A.A.J.W.!.E.v % * 1.G.L.A.x & % i 6.6.g 1 : ~.~.~.~.~.~.~.~.~.~.~.~.~.~.~.",
"~.~.~.~.~.~.~.~.~.~.~.~.~.~.~.~.~.~.~.~.6 s L ( d.m.A.G.D.F.U.Y.I.- o & <.G.L.A.x $ o i 9.u.g 3 : ~.~.~.~.~.~.~.~.~.~.~.~.~.~.~.",
"~.~.~.~.~.~.~.~.~.~.~.~.~.~.~.~.~.~.> 4 f ^ &.w.d.k.M.G.J.Z.2.l = O   y <.G.L.A.x $ X i 9.u.g 3 : ~.~.~.~.~.~.~.~.~.~.~.~.~.~.~.",
"~.~.~.~.~.~.~.~.~.~.~.~.~.~.~.~.~.~.> 7 K w.d.d.j.m.M.G.J.b.c & o   X u 4.G.L.A.<.* $ h 9.u.g < : ~.~.~.~.~.~.~.~.~.~.~.~.~.~.~.",
"~.~.~.~.~.~.~.~.~.~.~.~.~.~.~.~.~.~.> 5 L -.c.c.m.N.A.G.G.M.1.h u u p x n.D.J.D.7.k j <.b.6.g 3 : ~.~.~.~.~.~.~.~.~.~.~.~.~.~.~.",
"~.~.~.~.~.~.~.~.~.~.~.~.~.~.~.~.~.~.> 7 K w.j.N.A.D.D.F.D.D.b.i.8.8.i.b.M.D.D.D.b.n.n.b.A.r.g < : ~.~.~.~.~.~.~.~.~.~.~.~.~.~.~.",
"~.~.~.~.~.~.~.~.~.~.~.~.~.~.~.~.~.~., 5 K w.c.M.G.G.G.G.G.G.H.H.G.H.G.G.G.D.D.G.G.G.J.J.D.6.g < : ~.~.~.~.~.~.~.~.~.~.~.~.~.~.~.",
"~.~.~.~.~.~.~.~.~.~.~.~.~.~.~.~.~.~., 2 K w.c.M.G.G.G.G.G.G.D.H.H.H.H.G.D.D.D.D.G.G.H.J.F.6.g < : ~.~.~.~.~.~.~.~.~.~.~.~.~.~.~.",
"~.~.~.~.~.~.~.~.~.~.~.~.~.~.~.~.~.~.> 7 L w.k.M.A.D.M.b.Z.Z.A.A.D.D.G.G.G.G.D.G.F.G.D.D.M.3.f 1 > ~.~.~.~.~.~.~.~.~.~.~.~.~.~.~.",
"~.~.~.~.~.~.~.~.~.~.~.~.~.~.~.~.~.~.> 7 L ( k.M.M.s.q.q.=.e.p.A.G.J.G.G.G.G.G.G.G.H.D.s.q.~ 9 1 > ~.~.~.~.~.~.~.~.~.~.~.~.~.~.~.",
"~.~.~.~.~.~.~.~.~.~.~.~.~.~.~.~.~.~.> 5 K w.z.B.A.e.{ E J W =.s.G.G.D.D.D.D.G.D.F.G.m.e.Q S 4 1 > ~.~.~.~.~.~.~.~.~.~.~.~.~.~.~.",
"~.~.~.~.~.~.~.~.~.~.~.~.~.~.~.~.~.~.> 4 K w.z.B.M.r.{ J F H { e.l.s.s.s.s.s.s.s.s.s.y.=.{ d 5 1 > ~.~.~.~.~.~.~.~.~.~.~.~.~.~.~.",
"~.~.~.~.~.~.~.~.~.~.~.~.~.~.~.~.~.~.> 7 L w.z.B.A.l.y...E S H Q $. . . . . . . .|  ...=.=.} s 1 > ~.~.~.~.~.~.~.~.~.~.~.~.~.~.~.",
"~.~.~.~.~.~.~.~.~.~.~.~.~.~.~.~.~.~.> 7 D *.j.M.A.F.A.p. .J G G G G H G H H H H H H E q.s.5.f 1 : ~.~.~.~.~.~.~.~.~.~.~.~.~.~.~.",
"~.~.~.~.~.~.~.~.~.~.~.~.~.~.~.~.~.~.~.4 d ^ ( u.M.S.G.M.e..._ r w w w e A Z V Z H ` o.y.m.q.f 2 : ~.~.~.~.~.~.~.~.~.~.~.~.~.~.~.",
"~.~.~.~.~.~.~.~.~.~.~.~.~.~.~.~.~.~.~.~.4 6 g ( j.N.A.D.M.a.O.z n n m t e Z C Z W =.s.m.j.X.d 1 : ~.~.~.~.~.~.~.~.~.~.~.~.~.~.~.",
"~.~.~.~.~.~.~.~.~.~.~.~.~.~.~.~.~.~.~.~.: < 6 W f.k.N.M.F.Z.#.B N N M z ) T T T  .y.l.p.*.^ 9 < ~.~.~.~.~.~.~.~.~.~.~.~.~.~.~.~.",
"~.~.~.~.~.~.~.~.~.~.~.~.~.~.~.~.~.~.~.~.: > 6 P :.g.k.N.x.l.v.O.@.b @.+. .$.( $.:.t.=. .L s 6 ~.~.~.~.~.~.~.~.~.~.~.~.~.~.~.~.~.",
"~.~.~.~.~.~.~.~.~.~.~.~.~.~.~.~.~.~.~.~.~.< 8 H ' :.f.d.h.h.g.=.e.t.t.t.w.w.w.w.;.$.E S 5 3 ~.~.~.~.~.~.~.~.~.~.~.~.~.~.~.~.~.~.",
"~.~.~.~.~.~.~.~.~.~.~.~.~.~.~.~.~.~.~.~.~.< 4 0 J Q $.;.,.,.,.,.,.>.,.;.,.,.f.;.$.E S 8 < ~.~.~.~.~.~.~.~.~.~.~.~.~.~.~.~.~.~.~.",
"~.~.~.~.~.~.~.~.~.~.~.~.~.~.~.~.~.~.~.~.~.~.~.4 8 H ' $.$.$.$.$.$.%.%.%.$.$.$.$.E s 4 3 ~.~.~.~.~.~.~.~.~.~.~.~.~.~.~.~.~.~.~.~.",
"~.~.~.~.~.~.~.~.~.~.~.~.~.~.~.~.~.~.~.~.~.~.~., 3 8 J E E E ` R E T ' ` E E ' ` F 5 1 ~.~.~.~.~.~.~.~.~.~.~.~.~.~.~.~.~.~.~.~.~.",
"~.~.~.~.~.~.~.~.~.~.~.~.~.~.~.~.~.~.~.~.~.~.~.~.3 4 0 0 0 0 0 V V A 0 0 0 0 0 0 8 4 ~.~.~.~.~.~.~.~.~.~.~.~.~.~.~.~.~.~.~.~.~.~.",
"~.~.~.~.~.~.~.~.~.~.~.~.~.~.~.~.~.~.~.~.~.~.~.~.~.3 3 3 3 3 3 3 3 1 3 3 3 3 3 1 3 ~.~.~.~.~.~.~.~.~.~.~.~.~.~.~.~.~.~.~.~.~.~.~.",
"~.~.~.~.~.~.~.~.~.~.~.~.~.~.~.~.~.~.~.~.~.~.~.~.~.~., , , , , , : : : > < > > < : ~.~.~.~.~.~.~.~.~.~.~.~.~.~.~.~.~.~.~.~.~.~.~.",
"~.~.~.~.~.~.~.~.~.~.~.~.~.~.~.~.~.~.~.~.~.~.~.~.~.~.; ; ; ; ; ; ; ; ; ; ; ; # ; # ~.~.~.~.~.~.~.~.~.~.~.~.~.~.~.~.~.~.~.~.~.~.~.",
"~.~.~.~.~.~.~.~.~.~.~.~.~.~.~.~.~.~.~.~.~.~.~.~.~.~.# # # # # # # # # # # # # # # ~.~.# ~.~.~.~.~.~.~.~.~.~.~.~.~.~.~.~.~.~.~.~.",
"~.~.~.~.~.~.~.~.~.~.~.~.~.~.~.~.~.~.~.~.~.~.# # # # ~.~.~.~.~.~.~.~.~.~.~.~.~.~.~.# # # # ~.~.~.~.~.~.~.~.~.~.~.~.~.~.~.~.~.~.~.",
"~.~.~.~.~.~.~.~.~.~.~.~.~.~.~.~.~.~.~.~.~.~.# # # @ ~.~.~.~.~.~.~.~.~.~.~.~.~.~.~.# # # # ~.~.~.~.~.~.~.~.~.~.~.~.~.~.~.~.~.~.~.",
"~.~.~.~.~.~.~.~.~.~.~.~.~.~.~.~.~.~.~.# # # ~.~.# # # # # # # # # # # # # # # # # # ~.~.# # # ~.~.~.~.~.~.~.~.~.~.~.~.~.~.~.~.~.",
"~.~.~.~.~.~.~.~.~.~.~.~.~.~.~.~.~.~.~.# # # ~.~.# # # # # # # # # # # # # # # # # # ~.~.# # # ~.~.~.~.~.~.~.~.~.~.~.~.~.~.~.~.~.",
"~.~.~.~.~.~.~.~.~.~.~.~.~.~.~.~.~.~.~.~.# # # # # # # # # # # # # # # # # # # # # # # # # # # ~.~.~.~.~.~.~.~.~.~.~.~.~.~.~.~.~.",
"~.~.~.~.~.~.~.~.~.~.~.~.~.~.~.~.~.~.~.# # # ~.~.# # # # # # # # # # # # # # # # # # ~.~.# # # ~.~.~.~.~.~.~.~.~.~.~.~.~.~.~.~.~.",
"~.~.~.~.~.~.~.~.~.~.~.~.~.~.~.~.~.~.~.# # # ~.~.# # # # # # # # # # # # # # # # # # ~.~.# # # ~.~.~.~.~.~.~.~.~.~.~.~.~.~.~.~.~.",
"~.~.~.~.~.~.~.~.~.~.~.~.~.~.~.~.~.~.~.~.~.~.# # # # # # # # # # # # # # # # # # # # # # # ~.~.~.~.~.~.~.~.~.~.~.~.~.~.~.~.~.~.~.",
"~.~.~.~.~.~.~.~.~.~.~.~.~.~.~.~.~.~.~.~.~.~.# # # # # # # # # # # # # # # # # # # # # # # ~.~.~.~.~.~.~.~.~.~.~.~.~.~.~.~.~.~.~.",
"~.~.~.~.~.~.~.~.~.~.~.~.~.~.~.~.~.~.~.~.~.~.~.~.~.~.~.~.~.~.~.~.~.~.~.~.~.~.~.~.~.~.~.~.~.~.~.~.~.~.~.~.~.~.~.~.~.~.~.~.~.~.~.~.",
"~.~.~.~.~.~.~.~.~.~.~.~.~.~.~.~.~.~.~.~.~.~.~.~.~.~.~.~.~.~.~.~.~.~.~.~.~.~.~.~.~.~.~.~.~.~.~.~.~.~.~.~.~.~.~.~.~.~.~.~.~.~.~.~.",
"~.~.~.~.~.~.~.~.~.~.~.~.~.~.~.~.~.~.~.~.~.~.~.~.~.~.~.~.~.~.~.~.~.~.~.~.~.~.~.~.~.~.~.~.~.~.~.~.~.~.~.~.~.~.~.~.~.~.~.~.~.~.~.~.",
"~.~.~.~.~.~.~.~.~.~.~.~.~.~.~.~.~.~.~.~.~.~.~.~.~.~.~.~.~.~.~.~.~.~.~.~.~.~.~.~.~.~.~.~.~.~.~.~.~.~.~.~.~.~.~.~.~.~.~.~.~.~.~.~.",
"~.~.~.~.~.~.~.~.~.~.~.~.~.~.~.~.~.~.~.~.~.~.~.~.~.~.~.~.~.~.~.~.~.~.~.~.~.~.~.~.~.~.~.~.~.~.~.~.~.~.~.~.~.~.~.~.~.~.~.~.~.~.~.~.",
"~.~.~.~.~.~.~.~.~.~.~.~.~.~.~.~.~.~.~.~.~.~.~.~.~.~.~.~.~.~.~.~.~.~.~.~.~.~.~.~.~.~.~.~.~.~.~.~.~.~.~.~.~.~.~.~.~.~.~.~.~.~.~.~.",
"~.~.~.~.~.~.~.~.~.~.~.~.~.~.~.~.~.~.~.~.~.~.~.~.~.~.~.~.~.~.~.~.~.~.~.~.~.~.~.~.~.~.~.~.~.~.~.~.~.~.~.~.~.~.~.~.~.~.~.~.~.~.~.~."
};
