/* XPM */
static char *result[] = {
/* columns rows colors chars-per-pixel */
"64 64 200 2 ",
"   c #090A09",
".  c #0C1516",
"X  c #151413",
"o  c #251E1E",
"O  c #171B2F",
"+  c #171B31",
"@  c #181C35",
"#  c #181D3B",
"$  c #171B3B",
"%  c #132223",
"&  c #192A2C",
"*  c #1A2E30",
"=  c #1B213B",
"-  c #1D3537",
";  c #253333",
":  c #423D3C",
">  c #191D44",
",  c #191D4B",
"<  c #191C56",
"1  c #1A1E59",
"2  c #1C2244",
"3  c #1B214E",
"4  c #1C2154",
"5  c #1C225B",
"6  c #21294B",
"7  c #243F44",
"8  c #20275E",
"9  c #222A5C",
"0  c #252F53",
"q  c #263056",
"w  c #273259",
"e  c #1F2661",
"r  c #1F2861",
"t  c #202664",
"y  c #212B65",
"u  c #242E6B",
"i  c #25336B",
"p  c #2B386A",
"a  c #293673",
"s  c #2B3976",
"d  c #2D3B7A",
"f  c #273870",
"g  c #3F387D",
"h  c #7C2C56",
"j  c #7A355D",
"k  c #58336D",
"l  c #4D3675",
"z  c #573871",
"x  c #673264",
"c  c #264344",
"v  c #294D4D",
"b  c #2B4E51",
"n  c #3A4E50",
"m  c #32595C",
"M  c #335558",
"N  c #335B62",
"B  c #2D4379",
"V  c #2F4B7E",
"C  c #2D4477",
"Z  c #34447B",
"A  c #314678",
"S  c #34507B",
"D  c #3B696B",
"F  c #386468",
"G  c #3B6772",
"H  c #3F7072",
"J  c #525050",
"K  c #51417A",
"L  c #73496E",
"P  c #467679",
"I  c #5E7A7D",
"U  c #6E6D6D",
"Y  c #7F6279",
"T  c #972F4A",
"R  c #8F3351",
"E  c #903753",
"W  c #8E445E",
"Q  c #884965",
"!  c #85526A",
"~  c #2E3A87",
"^  c #2F3B88",
"/  c #313B86",
"(  c #393A82",
")  c #2F408C",
"_  c #334584",
"`  c #3C4386",
"'  c #324C83",
"]  c #34448B",
"[  c #37498B",
"{  c #384C8D",
"}  c #394787",
"|  c #325083",
" . c #3A518E",
".. c #3C5A8A",
"X. c #3A4F92",
"o. c #3D5594",
"O. c #3D5B94",
"+. c #3F5699",
"@. c #3F5999",
"#. c #365395",
"$. c #3E6980",
"%. c #3C6494",
"&. c #3F639B",
"*. c #3F6C9A",
"=. c #5A4F80",
"-. c #47528B",
";. c #405F96",
":. c #415B9D",
">. c #40579A",
",. c #477A88",
"<. c #426295",
"1. c #42649A",
"2. c #446B9C",
"3. c #436C92",
"4. c #41729F",
"5. c #49749E",
"6. c #4B7B9C",
"7. c #4C6C91",
"8. c #696789",
"9. c #726484",
"0. c #6F778F",
"q. c #435EA1",
"w. c #4463A2",
"e. c #456BA5",
"r. c #476EA8",
"t. c #486DA0",
"y. c #4373A2",
"u. c #4A76A4",
"i. c #4D7BA3",
"p. c #4672AA",
"a. c #4875AA",
"s. c #497BAC",
"d. c #4778A9",
"f. c #567EA6",
"g. c #527FA8",
"h. c #498185",
"j. c #4C878A",
"k. c #4E8B8F",
"l. c #50888D",
"z. c #4E8992",
"x. c #518F93",
"c. c #55959A",
"v. c #57999F",
"b. c #718295",
"n. c #6C9093",
"m. c #4F82A6",
"M. c #4B83AE",
"N. c #5184A5",
"B. c #5286AA",
"V. c #538DAC",
"C. c #5585A0",
"Z. c #599DA4",
"A. c #5692AC",
"S. c #5896AC",
"D. c #5B9CAE",
"F. c #5696A1",
"G. c #4B83B1",
"H. c #4E8BB3",
"J. c #528DB2",
"K. c #5385B1",
"L. c #5393B4",
"P. c #569AB5",
"I. c #5A9DB4",
"U. c #589DB8",
"Y. c #5597B8",
"T. c #659DAC",
"R. c #719EA0",
"E. c #6288A3",
"W. c #5EA4AC",
"Q. c #5DA4A8",
"!. c #5DA3B4",
"~. c #5FA8B6",
"^. c #5DA4B9",
"/. c #5FA9B8",
"(. c #57A0B8",
"). c #60AAAF",
"_. c #60A6B3",
"`. c #62ADB6",
"'. c #62ABBA",
"]. c #69ADB1",
"[. c #64B1B7",
"{. c #65B3B9",
"}. c #68B6BC",
"|. c #69B8BF",
" X c #71B6BC",
".X c #78B5BB",
"XX c #6BBCC3",
"oX c #79BDC3",
"OX c #878181",
"+X c #96B2B4",
"@X c #ACAFAF",
"#X c #8AC5CA",
"$X c #93C0C4",
"%X c #92CCD1",
"&X c #A0D1D6",
"*X c #B7D1D3",
"=X c #B3DEE2",
"-X c #D4DFE0",
";X c #CBE6E9",
":X c None",
/* pixels */
":X:X:X:X:X:X:X:X:X:X:X:X:X:X:X:X:X:X:X:X:X:X:X:X:X:X:X:X:X:X:X:X:X:X:X:X:X:X:X:X:X:X:X:X:X:X:X:X:X:X:X:X:X:X:X:X:X:X:X:X:X:X:X:X",
":X:X:X:X:X:X:X:X:X:X:X:X:X:X:X:X:X:X:X:X:X:X:X:X:X:X:X:X:X:X:X:X:X:X:X:X:X:X:X:X:X:X:X:X:X:X:X:X:X:X:X:X:X:X:X:X:X:X:X:X:X:X:X:X",
":X:X:X:X:X:X:X:X:X:X:X:X:X:X:X:X:X:X:X:X:X:X:X:X:X:X:X:X:X:X:X:X:X:X:X:X:X:X:X:X:X:X:X:X:X:X:X:X:X:X:X:X:X:X:X:X:X:X:X:X:X:X:X:X",
":X:X:X:X:X:X:X:X:X:X:X:X:X:X:X:X:X:X:X:X:X:X:X:X:X:X:X:X:X:X:X:X:X:X:X:X:X:X:X:X:X:X:X:X:X:X:X:X:X:X:X:X:X:X:X:X:X:X:X:X:X:X:X:X",
":X:X:X:X:X:X:X:X:X:X:X:X:X:X:X:X:X:X:X:X:X:X:X:X:X:X:X:X:X:X:X:X:X:X:X:X:X:X:X:X:X:X:X:X:X:X:X:X:X:X:X:X:X:X:X:X:X:X:X:X:X:X:X:X",
":X:X:X:X:X:X:X:X:X:X:X:X:X:X:X:X:X:X:X:X:X:X:X:X:X:X:X:X:X:X:X:X:X:X:X:X:X:X:X:X:X:X:X:X:X:X:X:X:X:X:X:X:X:X:X:X:X:X:X:X:X:X:X:X",
":X:X:X:X:X:X:X:X:X:X:X:X:X:X:X:X:X:X:X:X:X1 1 1 1 < < < 1 < < < 1 < 1 < < < 1 < 1 < 1 :X:X:X:X:X:X:X:X:X:X:X:X:X:X:X:X:X:X:X:X:X",
":X:X:X:X:X:X:X:X:X:X:X:X:X:X:X:X:X:X:X5 5 5 5 5 5 5 5 5 5 5 5 e 5 5 5 5 5 5 5 5 5 5 5 5 5 :X:X:X:X:X:X:X:X:X:X:X:X:X:X:X:X:X:X:X",
":X:X:X:X:X:X:X:X:X:X:X:X:X:X:X:X:X:X:Xy y y y i i i i f i i i i i i i i i i i i i i i i i :X:X:X:X:X:X:X:X:X:X:X:X:X:X:X:X:X:X:X",
":X:X:X:X:X:X:X:X:X:X:X:X:X:X:X:X:X:Xy a s B ' ' | | | | | | | | ' | | | | | | | S | | | C i :X:X:X:X:X:X:X:X:X:X:X:X:X:X:X:X:X:X",
":X:X:X:X:X:X:X:X:X:X:X:X:X:X:X:X1 5 i d [ o.1.2.*.y.4.*.*.*.*.y.y.*.4.4.4.4.4.4.y.*.*.*.| s r < :X:X:X:X:X:X:X:X:X:X:X:X:X:X:X:X",
":X:X:X:X:X:X:X:X:X:X:X:X:X:X:X:Xr y a _ >.e.p.G.H.H.L.H.H.L.H.H.H.H.H.H.H.H.H.H.H.L.H.M.%.B y e :X:X:X:X:X:X:X:X:X:X:X:X:X:X:X:X",
":X:X:X:X:X:X:X:X:X:X:X:X:X:X:Xy u d ' o.e.d.s.H.L.L.P.(.(.U.U.U.(.(.U.U.U.U.U.U.(.(.(.S.4.| s u y :X:X:X:X:X:X:X:X:X:X:X:X:X:X:X",
":X:X:X:X:X:X:X:X:X:X:X:X:X5 t u d [ o.e.d.G.G.H.L.P.(.(.~.~.~./././././././.~.'./.'./.P.N.1.[ d u t 5 :X:X:X:X:X:X:X:X:X:X:X:X:X",
":X:X:X:X:X:X:X:X:X:X:X:X:X5 t a ] @.e.d.G.H.H.H.L.(./.[.[.[.[.[.[.[.[.`.`.`.{.`.{.[.{.~.A.u.:.[ a r 1 :X:X:X:X:X:X:X:X:X:X:X:X:X",
":X:X:X:X:X:X:X:X:X:X:X:X:X5 r s  .e.a.s.H.H.L.L.P.(.[.{.[.[.[.[.{.}.}.{.{.{.[.{.[.}.}.[.^.K.i.-.s r 1 :X:X:X:X:X:X:X:X:X:X:X:X:X",
":X:X:X:X:X:X:X:X:X:X:X:X:X1 r B O.y.G.G.H.H.Y.(.`.`.[.[.[.[.[.[.}.}.{.{.{.`.`.}.{.{.|.{.'._.V.3.C y < :X:X:X:X:X:X:X:X:X:X:X:X:X",
":X:X:X:X:X:X:X:X:X:X:X:X:X1 r C %.M.H.H.H.L.U./.[.[.[.[.{.{.{.~.[._.`.`.{.{.[.[.[.`.`.].`.`.D.6.S y 5 :X:X:X:X:X:X:X:X:X:X:X:X:X",
":X:X:X:X:X:X:X:X:X:X:X:X:X1 t C %.M.H.H.H.J.(./.[.[.[.}.oX#X#X+Xv.l.x.Z._.{.{.`.).v.l.j.v.)._.C...s y t :X:X:X:X:X:X:X:X:X:X:X:X",
":X:X:X:X:X:X:X:X:X:X:X:X:X1 t C %.M.H.H.H.L.(.`.[.[.[. X%X=X=X+XI M N h.W.{.XX{.Q.P m b P c._.A.2.[ d u t :X:X:X:X:X:X:X:X:X:X:X",
":X:X:X:X:X:X:X:X:X:X:X:X:X5 y B %.M.H.H.H.L.(./.[.[.[. X&X;X;X@XJ ; - H Z.}.XX`.c.F * & v j.).S.g.o.] a t 5 :X:X:X:X:X:X:X:X:X:X",
":X:X:X:X:X:X:X:X:X:X:X:Xt y f ' *.G.H.L.J.P.!.`.[.[.[. X$X*X@X! : X & F Z.}.XX}.c.m % . c h.).!.B.e. .s y 5 :X:X:X:X:X:X:X:X:X:X",
":X:X:X:X:X:X:X:X:X:X:Xt i s _  .y.M.L.L.(.!./.{.{.}.{.].R.n.U J o . & D Z.}.XX{.c.m % . c h._.'.Y.a.o.B y 5 :X:X:X:X:X:X:X:X:X:X",
":X:X:X:X:X:X:X:X:X:X5 t a _ o.w.d.H.L.(.~./.[.[.{.}.{.).P J & X     * D Z.}.XX{.c.m % . c ,._.'.Y.M.2.B y 5 :X:X:X:X:X:X:X:X:X:X",
":X:X:X:X:X:X:X:X:X:X5 y s } :.r.d.H.L.^.`.`._._.I.!.!.C.H 7 % .   % c P Q.}.XX{.v.D - * b ,.S.I.L.H.*.V y 1 :X:X:X:X:X:X:X:X:X:X",
":X:X:X:X:X:X:X:X:X:X1 y s [ :.r.d.H.L.^.`._.S.N.6.i.f.6.$.N b v v m H x.W.|.XX}.Q.j.D N F 7.i.M.H.H.*.V i 5 :X:X:X:X:X:X:X:X:X:X",
":X:X:X:X:X:X:X:X:X:X5 y s [ :.r.d.H.Y.!.`.I.N.<.o. .o.O.3.,.k.k.k.x.c.Q.[.{.{.{.).Q.c.z.3.<.O.1.d.M.*.V y 5 :X:X:X:X:X:X:X:X:X:X",
":X:X:X:X:X:X:X:X:X:X5 t s [ :.e.d.H.Y./.`.D.i.<.{ ] ] { 2.N.D.!.W.!.!.!.W.~.~.W._._.!.S.z.:.O.1.d.M.*.' y 5 :X:X:X:X:X:X:X:X:X:X",
":X:X:X:X:X:X:X:X:X:X5 t s } :.e.d.H.P.^.`.!.V.5.<.{ ] ] o.y.H.V.H.V.B.B.N.N.N.N.N.B.B.B.i.5.4.u.M.M.*.S i 5 :X:X:X:X:X:X:X:X:X:X",
":X:X:X:X:X:X:X:X:X:X5 y s [ :.e.s.H.Y.^.`.`._.S.m.1.[ ] { o.@.@.&.&.&.&.%.;.;.;.1.o.;.1.5.N.V.L.L.M.*.V y 1 :X:X:X:X:X:X:X:X:X:X",
":X:X:X:X:X:X:X:X:X:X5 t s [ :.e.s.H.H.I._.{.{.`.D.m.O.[ ] ` ` -.` ` [ ] ] ] ] ] [ [ [ o.5.A.!.^.L.M.*.V i 5 :X:X:X:X:X:X:X:X:X:X",
":X:X:X:X:X:X:X:X:X< 5 t s [ :.e.r.d.H.L.(._.{.{._.S.i.<.-.l z z k z l l / ^ ^ / ] { o.2.m.S.!.U.J.d.%.B r 4 4 :X:X:X:X:X:X:X:X:X",
":X:X:X:X:X:X:X:X:X3 4 t d [ :.w.w.e.s.B.L.I.'.{.`._.S.f.8.L j R h h x l ( ^ ^ ^ [ O.i.V.S.L.Y.J.s.e.o.d y 1 , :X:X:X:X:X:X:X:X:X",
":X:X:X:X:X:X:X:X# , 4 t s } >.:.q.q.e.a.H.L.I._.[.[._.T.0.! R T T R j z -.^ ^ ] o.5.A.!.(.L.H.s.e.1.[ s y < , # :X:X:X:X:X:X:X:X",
":X:X:X:X:X:X:X:X# > 3 8 i d [ X.+.>.w.e.d.H.L.!././.'._.0.Y Q Q W Q L =.o.#.#.+.1.i.I.!.I.J.s.r.e.:.[ d y 4 , # :X:X:X:X:X:X:X:X",
":X:X:X:X:X:X:X:X@ # > 4 y p s _ X.:.q.w.e.p.M.J.U.(.U.P.C.0.9.9.9.8.8.7.e.4.e.r.u.M.L.Y.V.s.e.e.q.:.[ s y 4 , # :X:X:X:X:X:X:X:X",
":X:X:X:X:X:X:X:X@ + # > , 8 u s ] +.q.q.q.e.a.H.H.H.J.H.V.B.f.g.f.g.g.M.M.s.M.M.G.H.H.H.s.e.w.:.q.>.} s t 4 , # :X:X:X:X:X:X:X:X",
":X:X:X:X:X:X:X:X+ O :X@ > , 8 u Z  .o.>.:.w.r.s.M.G.G.M.s.G.s.G.G.s.M.G.M.M.G.s.B.s.s.s.p.w.:.>.o.X._ p 9 < > # :X:X:X:X:X:X:X:X",
":X:X:X:X:X:X:X:X+ O :X+ # > , 9 p A } o.>.q.e.e.p.e.r.p.p.p.p.p.p.p.p.d.a.a.p.p.a.p.p.e.e.w.:.{ ] d a y 4 > > @ :X:X:X:X:X:X:X:X",
":X:X:X:X:X:X:X:X+ + + + @ @ # 2 = 6 C [ >.:.q.w.w.w.w.w.w.w.w.1.w.w.w.w.w.w.w.w.w.w.w.w.q.q.:.[ d u 8 4 2 @ @ + :X:X:X:X:X:X:X:X",
":X:X:X:X:X:X:X:X:X:X:X+ + + + :X:X= q Z -.>. .;.o.o.>.o.>. .>.>.+.o.o.o.o.o.>.o.-.o.o.o.>.o. ._ p 5 < > # :X:X:X:X:X:X:X:X:X:X:X",
":X:X:X:X:X:X:X:X:X:X:X+ O O :X:X:XO 6 p C Z Z Z Z Z Z Z Z Z Z Z Z Z Z Z Z Z Z Z Z Z Z Z Z Z Z p 9 3 > $ + :X:X:X:X:X:X:X:X:X:X:X",
":X:X:X:X:X:X:X:X:X:X:X+ + + + O :X+ = 6 0 q q q q q q q 0 q q q q q q q q q q q q q q q w w q 6 2 > # @ + :X:X:X:X:X:X:X:X:X:X:X",
":X:X:X:X:X:X:X:X:X:X:X:X:X:X:X:X:X:X:X:X:X:X:X:X:X:X:X:X:X:X:X:X:X:X:X:X:X:X:X:X:X:X:X:X:X:X:X:X:X:X:X:X:X:X:X:X:X:X:X:X:X:X:X:X",
":X:X:X:X:X:X:X:X:X:X:X:X:X:X:X:X:X:X:X:X:X:X:X:X:X:X:X:X:X:X:X:X:X:X:X:X:X:X:X:X:X:X:X:X:X:X:X:X:X:X:X:X:X:X:X:X:X:X:X:X:X:X:X:X",
":X:X:X:X:X:X:X:X:X:X:X:X:X:X:X:X:X:X:X:X:X:X:X:X:X:X:X:X:X:X:X:X:X:X:X:X:X:X:X:X:X:X:X:X:X:X:X:X:X:X:X:X:X:X:X:X:X:X:X:X:X:X:X:X",
":X:X:X:X:X:X:X:X:X:X:X:X:X:X:X:X:X:X:X:X:X:X:X:X:X:X:X:X:X:X:X:X:X:X:X:X:X:X:X:X:X:X:X:X:X:X:X:X:X:X:X:X:X:X:X:X:X:X:X:X:X:X:X:X",
":X:X:X:X:X:X:X:X:X:X:X:X:X:X:X:X:X:X:X:X:X:X:X:X:X:X:X:X:X:X:X:X:X:X:X:X:X:X:X:X:X:X:X:X:X:X:X:X:X:X:X:X:X:X:X:X:X:X:X:X:X:X:X:X",
":X:X:X:X:X:X:X:X:X:X:X:X:X:X:X:X:X:X:X:X:X:X:X:X:X:X:X:X:X:X:X:X:X:X:X:X:X:X:X:X:X:X:X:X:X:X:X:X:X:X:X:X:X:X:X:X:X:X:X:X:X:X:X:X",
":X:X:X:X:X:X:X:X:X:X:X:X:X:X:X:X:X:X:X:X:X:X:X:X:X:X:X:X:X:X:X:X:X:X:X:X:X:X:X:X:X:X:X:X:X:X:X:X:X:X:X:X:X:X:X:X:X:X:X:X:X:X:X:X",
":X:X:X:X:X:X:X:X:X:X:X:X:X:X:X:X:X:X:X:X:X:X:X:X:X:X:X:X:X:X:X:X:X:X:X:X:X:X:X:X:X:X:X:X:X:X:X:X:X:X:X:X:X:X:X:X:X:X:X:X:X:X:X:X",
":X:X:X:X:X:X:X:X:X:X:X:X:X:X:X:X:X:X:X:X:X:X:X:X:X:X:X:X:X:X:X:X:X:X:X:X:X:X:X:X:X:X:X:X:X:X:X:X:X:X:X:X:X:X:X:X:X:X:X:X:X:X:X:X",
":X:X:X:X:X:X:X:X:X:X:X:X:X:X:X:X:X:X:X:X:X:X:X:X:X:X:X:X:X:X:X:X:X:X:X:X:X:X:X:X:X:X:X:X:X:X:X:X:X:X:X:X:X:X:X:X:X:X:X:X:X:X:X:X",
":X:X:X:X:X:X:X:X:X:X:X:X:X:X:X:X:X:X:X:X:X:X:X:X:X:X:X:X:X:X:X:X:X:X:X:X:X:X:X:X:X:X:X:X:X:X:X:X:X:X:X:X:X:X:X:X:X:X:X:X:X:X:X:X",
":X:X:X:X:X:X:X:X:X:X:X:X:X:X:X:X:X:X:X:X:X:X:X:X:X:X:X:X:X:X:X:X:X:X:X:X:X:X:X:X:X:X:X:X:X:X:X:X:X:X:X:X:X:X:X:X:X:X:X:X:X:X:X:X",
":X:X:X:X:X:X:X:X:X:X:X:X:X:X:X:X:X:X:X:X:X:X:X:X:X:X:X:X:X:X:X:X:X:X:X:X:X:X:X:X:X:X:X:X:X:X:X:X:X:X:X:X:X:X:X:X:X:X:X:X:X:X:X:X",
":X:X:X:X:X:X:X:X:X:X:X:X:X:X:X:X:X:X:X:X:X:X:X:X:X:X:X:X:X:X:X:X:X:X:X:X:X:X:X:X:X:X:X:X:X:X:X:X:X:X:X:X:X:X:X:X:X:X:X:X:X:X:X:X",
":X:X:X:X:X:X:X:X:X:X:X:X:X:X:X:X:X:X:X:X:X:X:X:X:X:X:X:X:X:X:X:X:X:X:X:X:X:X:X:X:X:X:X:X:X:X:X:X:X:X:X:X:X:X:X:X:X:X:X:X:X:X:X:X",
":X:X:X:X:X:X:X:X:X:X:X:X:X:X:X:X:X:X:X:X:X:X:X:X:X:X:X:X:X:X:X:X:X:X:X:X:X:X:X:X:X:X:X:X:X:X:X:X:X:X:X:X:X:X:X:X:X:X:X:X:X:X:X:X",
":X:X:X:X:X:X:X:X:X:X:X:X:X:X:X:X:X:X:X:X:X:X:X:X:X:X:X:X:X:X:X:X:X:X:X:X:X:X:X:X:X:X:X:X:X:X:X:X:X:X:X:X:X:X:X:X:X:X:X:X:X:X:X:X",
":X:X:X:X:X:X:X:X:X:X:X:X:X:X:X:X:X:X:X:X:X:X:X:X:X:X:X:X:X:X:X:X:X:X:X:X:X:X:X:X:X:X:X:X:X:X:X:X:X:X:X:X:X:X:X:X:X:X:X:X:X:X:X:X",
":X:X:X:X:X:X:X:X:X:X:X:X:X:X:X:X:X:X:X:X:X:X:X:X:X:X:X:X:X:X:X:X:X:X:X:X:X:X:X:X:X:X:X:X:X:X:X:X:X:X:X:X:X:X:X:X:X:X:X:X:X:X:X:X",
":X:X:X:X:X:X:X:X:X:X:X:X:X:X:X:X:X:X:X:X:X:X:X:X:X:X:X:X:X:X:X:X:X:X:X:X:X:X:X:X:X:X:X:X:X:X:X:X:X:X:X:X:X:X:X:X:X:X:X:X:X:X:X:X",
":X:X:X:X:X:X:X:X:X:X:X:X:X:X:X:X:X:X:X:X:X:X:X:X:X:X:X:X:X:X:X:X:X:X:X:X:X:X:X:X:X:X:X:X:X:X:X:X:X:X:X:X:X:X:X:X:X:X:X:X:X:X:X:X"
};
