/* XPM */
static char *result[] = {
/* columns rows colors chars-per-pixel */
"64 50 198 2 ",
"   c #0C0D0D",
".  c #070B0F",
"X  c #070B19",
"o  c #090C15",
"O  c #1A1C1C",
"+  c #0D1718",
"@  c #0C1324",
"#  c #161A2F",
"$  c #11172B",
"%  c #171B32",
"&  c #181C37",
"*  c #171B39",
"=  c #181D3A",
"-  c #172A2B",
";  c #1B213C",
":  c #172334",
">  c #1E343B",
",  c #1A3233",
"<  c #2C2E34",
"1  c #293030",
"2  c #141E44",
"3  c #181D43",
"4  c #191E4D",
"5  c #121D48",
"6  c #1A1F50",
"7  c #1A1F5A",
"8  c #1F2745",
"9  c #1F2846",
"0  c #1B234E",
"q  c #1C2253",
"w  c #1C225B",
"e  c #1F2A52",
"r  c #223A46",
"t  c #222A5D",
"y  c #222A58",
"u  c #26345D",
"i  c #343C54",
"p  c #1F2662",
"a  c #1F2862",
"s  c #212B65",
"d  c #232F69",
"f  c #202763",
"g  c #253467",
"h  c #2A3A66",
"j  c #25326A",
"k  c #29356F",
"l  c #2E3C6B",
"z  c #273D65",
"x  c #252F73",
"c  c #2A3673",
"v  c #2A3A75",
"b  c #2D3C7A",
"n  c #2B3679",
"m  c #303F7E",
"M  c #4A3C7A",
"N  c #433B7E",
"B  c #5C3670",
"V  c #6D3767",
"C  c #733262",
"Z  c #27484B",
"A  c #32585B",
"S  c #2F406F",
"D  c #2C4175",
"F  c #2E4A7D",
"G  c #2D447A",
"H  c #33467C",
"J  c #344573",
"K  c #355377",
"L  c #3B686B",
"P  c #3A6768",
"I  c #396171",
"U  c #524E4C",
"Y  c #71476F",
"T  c #634F7B",
"R  c #7A5A75",
"E  c #416A6E",
"W  c #406D7F",
"Q  c #407276",
"!  c #417579",
"~  c #5C6869",
"^  c #75607F",
"/  c #7B697F",
"(  c #78797B",
")  c #902E4E",
"_  c #883758",
"`  c #8F405A",
"'  c #90405A",
"]  c #874864",
"[  c #2E3A85",
"{  c #2F3E8A",
"}  c #323D86",
"|  c #393E85",
" . c #313E88",
".. c #2F4C80",
"X. c #324483",
"o. c #324C82",
"O. c #34448B",
"+. c #36498B",
"@. c #3A4E8C",
"#. c #345381",
"$. c #3A5D82",
"%. c #3B518D",
"&. c #365A8C",
"*. c #3B5F8B",
"=. c #3A4F90",
"-. c #354F93",
";. c #3C5393",
":. c #3D5B95",
">. c #3E5698",
",. c #355093",
"<. c #3B608D",
"1. c #3D6896",
"2. c #3E6298",
"3. c #3C6795",
"4. c #3F6AA1",
"5. c #534D82",
"6. c #415B9D",
"7. c #405F94",
"8. c #444483",
"9. c #477E82",
"0. c #437382",
"q. c #416196",
"w. c #43649B",
"e. c #446C9E",
"r. c #456D97",
"t. c #546994",
"y. c #43739E",
"u. c #467A9F",
"i. c #4D799F",
"p. c #49759F",
"a. c #5D7D99",
"s. c #716585",
"d. c #666F90",
"f. c #425EA0",
"g. c #4362A1",
"h. c #456CA6",
"j. c #456EA8",
"k. c #4571A6",
"l. c #4874A1",
"z. c #4579A3",
"x. c #4C7DA3",
"c. c #4671A9",
"v. c #4975AB",
"b. c #477FAA",
"n. c #497DAD",
"m. c #557CA4",
"M. c #508D93",
"N. c #56979D",
"B. c #72828F",
"V. c #6A879B",
"C. c #62888B",
"Z. c #4A82A3",
"A. c #4B82AE",
"S. c #5184A5",
"D. c #538EA2",
"F. c #5285AA",
"G. c #599DA3",
"H. c #5491AD",
"J. c #5995AD",
"K. c #5799AD",
"L. c #5B9CAE",
"P. c #5592A4",
"I. c #4C86B0",
"U. c #4D8AB2",
"Y. c #508FB3",
"T. c #4F90B5",
"R. c #5293B3",
"E. c #579CB6",
"W. c #5A9EB3",
"Q. c #608FA8",
"!. c #5BA1A6",
"~. c #5EA5AC",
"^. c #5FA8AE",
"/. c #5CA3B5",
"(. c #5CA4B9",
"). c #5DA9B8",
"_. c #60A6B3",
"`. c #62ACB6",
"'. c #62ACB8",
"]. c #7FAEBC",
"[. c #64B1B7",
"{. c #65B3B9",
"}. c #69B6BD",
"|. c #69B9BF",
" X c #72B1B7",
".X c #63A3A9",
"XX c #6ABBC2",
"oX c #77BBC1",
"OX c #7EC1C5",
"+X c #93908F",
"@X c #8FB5B9",
"#X c #A4B0B1",
"$X c #93CCD0",
"%X c #BCC2C3",
"&X c #AACBD1",
"*X c #B8DEE2",
"=X c #CCE0E2",
"-X c None",
/* pixels */
"-X-X-X-X-X-X-X-X-X-X-X-X-X-X-X-X-X-X-X-X-X-X-X-X-X-X-X-X-X-X-X-X-X-X-X-X-X-X-X-X-X-X-X-X-X-X-X-X-X-X-X-X-X-X-X-X-X-X-X-X-X-X-X-X",
"-X-X-X-X-X-X-X-X-X-X-X-X-X-X-X-X-X-X-X-X-X-X-X-X-X-X-X-X-X-X-X-X-X-X-X-X-X-X-X-X-X-X-X-X-X-X-X-X-X-X-X-X-X-X-X-X-X-X-X-X-X-X-X-X",
"-X-X-X-X-X-X-X-X-X-X-X-X-X-X-X-X-X-X-X-X-X-X-X-X-X-X-X-X-X-X-X-X-X-X-X-X-X-X-X-X-X-X-X-X-X-X-X-X-X-X-X-X-X-X-X-X-X-X-X-X-X-X-X-X",
"-X-X-X-X-X-X-X-X-X-X-X-X-X-X-X-X-X-X-X-X-X-X-X-X-X-X-X-X-X-X-X-X-X-X-X-X-X-X-X-X-X-X-X-X-X-X-X-X-X-X-X-X-X-X-X-X-X-X-X-X-X-X-X-X",
"-X-X-X-X-X-X-X-X-X-X-X-X-X-X-X-X-X-X-X-X-X-X-X-X-X-X-X-X-X-X-X-X-X-X-X-X-X-X-X-X-X-X-X-X-X-X-X-X-X-X-X-X-X-X-X-X-X-X-X-X-X-X-X-X",
"-X-X-X-X-X-X-X-X-X-X-X-X-X-X-X-X-X-X-X-X-X-X-X-X-X-X-X-X-X-X-X-X-X-X-X-X-X-X-X-X-X-X-X-X-X-X-X-X-X-X-X-X-X-X-X-X-X-X-X-X-X-X-X-X",
"-X-X-X-X-X-X-X-X-X-X-X-X-X-X-X-X-X-X-X-X-X-X-X-X-X-X-X-X-X-X-X-X-X-X-X-X-X-X-X-X-X-X-X-X-X-X-X-X-X-X-X-X-X-X-X-X-X-X-X-X-X-X-X-X",
"-X-X-X-X-X-X-X-X-X-X-X-X-X-X-X-X-X-X-X-X-X-X-X-X-X-X-X-X-X-X-X-X-X-X-X-X-X-X-X-X-X-X-X-X-X-X-X-X-X-X-X-X-X-X-X-X-X-X-X-X-X-X-X-X",
"-X-X-X-X-X-X-X-X-X-X-X-X-X-X-X-X-X-X-X-X-X-X-X-X-X-X-X-X-X-X-X-X-X-X-X-X-X-X-X-X-X-X-X-X-X-X-X-X-X-X-X-X-X-X-X-X-X-X-X-X-X-X-X-X",
"-X-X-X-X-X-X-X-X-X-X-X-X-X-X-X-X-X-X-X-X-X-X-X-X-X-X-X-X-X-X-X-X-X-X-X-X-X-X-X-X-X-X-X-X-X-X-X-X-X-X-X-X-X-X-X-X-X-X-X-X-X-X-X-X",
"-X-X-X-X-X-X-X-X-X-X-X-X-X-X-X-X-X-X-X-X-X-X-X-X-X-X-X-X-X-X-X-X-X-X-X-X-X-X-X-X-X-X-X-X-X-X-X-X-X-X-X-X-X-X-X-X-X-X-X-X-X-X-X-X",
"-X-X-X-X-X-X-X-X-X-X-X-X-X-X-X-X-X-X-X-X-X-X-X-X-X-X-X-X-X-X-X-X-X-X-X-X-X-X-X-X-X-X-X-X-X-X-X-X-X-X-X-X-X-X-X-X-X-X-X-X-X-X-X-X",
"-X-X-X-X-X-X-X-X-X-X-X-X-X-X-X-X-X-X-X-X-X-X-X-X-X-X-X-X-X-X-X-X-X-X-X-X-X-X-X-X-X-X-X-X-X-X-X-X-X-X-X-X-X-X-X-X-X-X-X-X-X-X-X-X",
"-X-X-X-X-X-X-X-X-X-X-X-X-X-X-X-X-X-X-X-X-X-X-X-X-X-X-X-X-X-X-X-X-X-X-X-X-X-X-X-X-X-X-X-X-X-X-X-X-X-X-X-X-X-X-X-X-X-X-X-X-X-X-X-X",
"-X-X-X-X-X-X-X-X-X-X-X-X-X-X-X-X-X-X-X-X-X-X-X-X-X-X-X-X-X-X-X-X-X-X-X-X-X-X-X-X-X-X-X-X-X-X-X-X-X-X-X-X-X-X-X-X-X-X-X-X-X-X-X-X",
"-X-X-X-X-X-X-X-X-X-X-X-X-X-X-X-X-X-Xw 7 w w 7 7 7 7 7 7 7 7 7 w 7 7 7 7 7 7 7 7 7 7 7 7 7 w -X-X-X-X-X-X-X-X-X-X-X-X-X-X-X-X-X-X",
"-X-X-X-X-X-X-X-X-X-X-X-X-X-X-X-X-Xd g g d d g g g g g g g g g g g g g g g g g g g g g g g d a -X-X-X-X-X-X-X-X-X-X-X-X-X-X-X-X-X",
"-X-X-X-X-X-X-X-X-X-X-X-X-X-X-X-Xa v F F ..F F #.$.$.$.$.$.$.$.$.$.$.$.$.$.$.$.$.I <.$.#...F D d -X-X-X-X-X-X-X-X-X-X-X-X-X-X-X-X",
"-X-X-X-X-X-X-X-X-X-X-X-Xw 7 7 w g ..1.4.4.4.z.Z.D.D.D.P.D.N.D.D.D.D.N.D.D.D.N.D.P.D.D.Z.z.1.o.k w -X-X-X-X-X-X-X-X-X-X-X-X-X-X-X",
"-X-X-X-X-X-X-X-X-X-X-Xf s s s d D &.z.U.R.T.H./.^.[.[.[.).[.).`.'.'.[.`.`.'.`.[.'.[.)./.E.Z.<.G j a -X-X-X-X-X-X-X-X-X-X-X-X-X-X",
"-X-X-X-X-X-X-X-X-X-Xf j c b H F &.1.A.T.E.E./.).{.{.{.{.{.{.{.}.}.|.|.}.{.{.}.{.|.XX}.{._.R.u.*.F c d -X-X-X-X-X-X-X-X-X-X-X-X-X",
"-X-X-X-X-X-X-X-X-Xw s n X.;.2.h.4.Z.I.Y././.).[.[.{.{.{.{.[.[.{.{.{.{.{.[.[.{.{.[.{.{.{.'./.H.Z.1...j w -X-X-X-X-X-X-X-X-X-X-X-X",
"-X-X-X-X-X-X-X-X-Xw a n @.w.c.n.T.U.U.Y./.).[.{.[.[.[.[.}.oXOX}..XN.G.~.[.[.[.`.!.G.P.!._.'.).R.A.<.G g s -X-X-X-X-X-X-X-X-X-X-X",
"-X-X-X-X-X-X-X-X-Xw a n =.g.v.I.T.U.U.H./.).{.{.[.[.[.{.$X$X&X@XC.E ! M.).{.}.^.M.L P M.G.{.'.).H.u.<.F D a -X-X-X-X-X-X-X-X-X-X",
"-X-X-X-X-X-X-X-X-Xw s n @.f.v.I.U.U.U.T.W.'.'.[.[.`.[.{.$X*X=X#X~ > Z M.!.|.}.!.L Z > A M.{.}.'./.H.b.1.o.j w -X-X-X-X-X-X-X-X-X",
"-X-X-X-X-X-X-X-Xa s k b @.6.c.n.U.U.U.T.W.'.`./.L.L.L.L.].%X%X+XU O , ! .X|.|.!.L - + r 3.!.'.'.)./.Y.z.&.v s f -X-X-X-X-X-X-X-X",
"-X-X-X-X-X-X-Xf d v X.+.6.6.c.A.U.I.U.T./.).~.H.x.p.p.i.a.d.( U 1   - ! ^.XXXX!.L - . : I i.J._.`.(.R.b.2.o.b j s -X-X-X-X-X-X-X",
"-X-X-X-X-X-Xw a n O.=.>.6.w.j.n.I.U.U.T.W.`.L.x.2.;.;.%.K i < O     , ! ~.XX|.!.L - o # z *.S.W.).(.Y.A.h.>.O.v d w -X-X-X-X-X-X",
"-X-X-X-X-X-Xw a v +.6.6.6.f.j.A.U.I.U.T./.).L.x.7.@.+.} j 3 @ X X @ r E P._.W.D.I 9 $ ; v 7.S.W.^./.T.I.v.f.=.n s w -X-X-X-X-X-X",
"-X-X-X-X-X-Xw f n @.6.f.6.f.c.A.U.U.U.T./.).^.K.x.w.;.} x w 5 2 0 0 h 7.y.x.m.r.K u y S <.x.J._.`./.T.I.v.g.=.b s w -X-X-X-X-X-X",
"-X-X-X-X-X-Xw f v +.6.f.6.f.j.n.I.U.U.T./.).).^.L.S.e.+.[ v c c k c m +.;.;.=.@.X.n H *.M.W.`.`.`./.R.n.j.g.;.n s w -X-X-X-X-X-X",
"-X-X-X-X-X-Xw a v =.6.6.6.f.h.v.A.I.I.T.E./.[.[.[.L.x.q.@.8.M M M M m | }  . . .+.=.q.m.L.`.[.'./.R.A.n.j.w.;.n s 7 -X-X-X-X-X-X",
"-X-X-X-X-X4 7 f n =.6.f.6.6.f.h.k.A.I.U.R.E./.`.'.`.J.S.d.5.V C C V B N [ [ [  .;.e.S.L._.[.'.(.R.A.n.j.h.6.=.n s 7 4 -X-X-X-X-X",
"-X-X-X-X-X4 6 f v +.6.f.6.f.6.f.h.v.A.U.U.R.R.(.'.'.`.L.V.R _ ) ) _ V M | [  .+.w.S./.`.'.`./.R.F.n.h.6.6.6.=.m s q 4 -X-X-X-X-X",
"-X-X-X-X& 3 0 t k } +.=.6.6.6.6.6.j.v.n.n.n.A.R._.`.'._.V.s.] ' _ ` Y T ;.,.-.>.p.H.(.'.`./.R.U.v.h.w.6.6.+.X.c f 4 3 * -X-X-X-X",
"-X-X-X-X& * 3 0 f k m O.6.6.f.f.f.w.h.k.h.j.v.F.R.E.(.W..Xd.s.^ ^ s.d.w.e.4.4.k.A.H.E.W.W.R.F.n.j.6.6.6.+.H c s y 3 = & -X-X-X-X",
"-X-X-X-X-X& & 3 0 t d m @.6.6.6.6.6.w.6.f.f.h.n.I.Y.Y.Y.U.F.m.m.m.m.m.n.n.A.n.A.I.U.U.Y.Y.A.v.h.w.f.6.=.} j f 0 3 = % -X-X-X-X-X",
"-X-X-X-X-X# -X& 3 4 t k X.%.%.%.;.>.6.6.6.6.f.j.n.n.n.n.n.n.n.I.n.n.I.n.n.n.n.n.n.n.n.A.n.n.j.f.6.6.+.X.c t 4 3 & -X# -X-X-X-X-X",
"-X-X-X-X-X# -X% * 3 4 y h l S S H %.>.6.6.6.g.g.h.c.j.h.j.c.c.c.c.4.c.c.c.j.c.c.c.c.h.j.j.h.h.f.=.+.m c f q 3 = % -X# -X-X-X-X-X",
"-X-X-X-X-X-X-X% % & = ; 8 8 8 9 u H ;.>.6.>.6.6.6.6.6.6.6.w.6.6.f.4.6.f.f.w.6.f.6.6.6.w.6.6.6.6.=.} k t q 3 & % % -X% -X-X-X-X-X",
"-X-X-X-X-X-X-X% # % -X-X-X-X-X-X9 l o.8.;.%.%.%.@.%.@.@.@.@.@.@.=.@.@.@.@.@.@.@.%.@.@.@.@.@.%.%.o.c t 6 3 = -X-X# -X-X-X-X-X-X-X",
"-X-X-X-X-X-X-X% # % # -X-X-X-X-X: y h l S S l l l l l l l l l l l l l l l l l l l l l l l l l l h t 0 3 * % # # % -X-X-X-X-X-X-X",
"-X-X-X-X-X-X-X-X-X-X-X-X-X-X-X-X-X; 8 8 9 9 8 8 8 8 9 9 8 9 8 9 8 8 8 8 8 9 8 9 8 9 < 8 8 9 9 9 8 ; = = % -X-X-X-X-X-X-X-X-X-X-X",
"-X-X-X-X-X-X-X-X-X-X-X-X-X-X-X-X-X-X-X-X-X-X-X-X-X-X-X-X-X-X-X-X-X-X-X-X-X-X-X-X-X-X-X-X-X-X-X-X-X-X-X-X-X-X-X-X-X-X-X-X-X-X-X-X",
"-X-X-X-X-X-X-X-X-X-X-X-X-X-X-X-X-X-X-X-X-X-X-X-X-X-X-X-X-X-X-X-X-X-X-X-X-X-X-X-X-X-X-X-X-X-X-X-X-X-X-X-X-X-X-X-X-X-X-X-X-X-X-X-X",
"-X-X-X-X-X-X-X-X-X-X-X-X-X-X-X-X-X-X-X-X-X-X-X-X-X-X-X-X-X-X-X-X-X-X-X-X-X-X-X-X-X-X-X-X-X-X-X-X-X-X-X-X-X-X-X-X-X-X-X-X-X-X-X-X",
"-X-X-X-X-X-X-X-X-X-X-X-X-X-X-X-X-X-X-X-X-X-X-X-X-X-X-X-X-X-X-X-X-X-X-X-X-X-X-X-X-X-X-X-X-X-X-X-X-X-X-X-X-X-X-X-X-X-X-X-X-X-X-X-X",
"-X-X-X-X-X-X-X-X-X-X-X-X-X-X-X-X-X-X-X-X-X-X-X-X-X-X-X-X-X-X-X-X-X-X-X-X-X-X-X-X-X-X-X-X-X-X-X-X-X-X-X-X-X-X-X-X-X-X-X-X-X-X-X-X",
"-X-X-X-X-X-X-X-X-X-X-X-X-X-X-X-X-X-X-X-X-X-X-X-X-X-X-X-X-X-X-X-X-X-X-X-X-X-X-X-X-X-X-X-X-X-X-X-X-X-X-X-X-X-X-X-X-X-X-X-X-X-X-X-X",
"-X-X-X-X-X-X-X-X-X-X-X-X-X-X-X-X-X-X-X-X-X-X-X-X-X-X-X-X-X-X-X-X-X-X-X-X-X-X-X-X-X-X-X-X-X-X-X-X-X-X-X-X-X-X-X-X-X-X-X-X-X-X-X-X"
};
