/* XPM */
static char *result[] = {
/* columns rows colors chars-per-pixel */
"64 55 206 2 ",
"   c #090B0B",
".  c #130E0E",
"X  c #0B1313",
"o  c #0F1B1C",
"O  c #121919",
"+  c #16192E",
"@  c #171B33",
"#  c #171B3B",
"$  c #191D3F",
"%  c #191E36",
"&  c #142525",
"*  c #1B2323",
"=  c #192D2F",
"-  c #1C3436",
";  c #1F363A",
":  c #1A2039",
">  c #352F2E",
",  c #253A3B",
"<  c #3B3F3F",
"1  c #282323",
"2  c #181D43",
"3  c #191E4C",
"4  c #171B43",
"5  c #1A1F55",
"6  c #1A1E59",
"7  c #1D2445",
"8  c #1C234B",
"9  c #1D2354",
"0  c #1C225B",
"q  c #212B4B",
"w  c #243F42",
"e  c #242E53",
"r  c #222A5D",
"t  c #202759",
"y  c #263259",
"u  c #27335A",
"i  c #1E2561",
"p  c #1F2862",
"a  c #212B64",
"s  c #242E6A",
"d  c #26316D",
"f  c #28346D",
"g  c #293666",
"h  c #293573",
"j  c #2B3A74",
"k  c #2E3D7B",
"l  c #273470",
"z  c #303F7F",
"x  c #3C3A7F",
"c  c #7C2E57",
"v  c #75315C",
"b  c #57366F",
"n  c #5B346C",
"m  c #483878",
"M  c #513975",
"N  c #6C3A69",
"B  c #783A63",
"V  c #234143",
"C  c #2A4A4C",
"Z  c #2D4E54",
"A  c #2E5255",
"S  c #325A5C",
"D  c #305559",
"F  c #325C62",
"G  c #315760",
"H  c #2D4173",
"J  c #2F457D",
"K  c #2F497B",
"L  c #314374",
"P  c #314D77",
"I  c #33457B",
"U  c #396467",
"Y  c #3C696C",
"T  c #3B6673",
"R  c #3F7276",
"E  c #555151",
"W  c #625B5B",
"Q  c #50437E",
"!  c #6E4675",
"~  c #654B7C",
"^  c #705378",
"/  c #7E4468",
"(  c #456264",
")  c #45797D",
"_  c #41757A",
"`  c #676F70",
"'  c #932E4C",
"]  c #90304E",
"[  c #89395A",
"{  c #873759",
"}  c #2F3C87",
"|  c #2E3D89",
" . c #303D88",
".. c #363D85",
"X. c #314282",
"o. c #3C4486",
"O. c #364A84",
"+. c #34458B",
"@. c #364A8B",
"#. c #384E8C",
"$. c #3C468A",
"%. c #3B528D",
"&. c #39588C",
"*. c #374B90",
"=. c #3A4F91",
"-. c #344690",
";. c #3C5393",
":. c #3D5A94",
">. c #3E5699",
",. c #3E5B99",
"<. c #375092",
"1. c #3F629B",
"2. c #3C6591",
"3. c #474A88",
"4. c #50528E",
"5. c #5C5A8D",
"6. c #4D5491",
"7. c #405F96",
"8. c #415B9E",
"9. c #455797",
"0. c #5B4A82",
"q. c #6D5780",
"w. c #436D8B",
"e. c #477A84",
"r. c #416295",
"t. c #42649D",
"y. c #456A9C",
"u. c #446F91",
"i. c #556897",
"p. c #457492",
"a. c #487994",
"s. c #49759D",
"d. c #487792",
"f. c #425DA0",
"g. c #4363A1",
"h. c #446AA4",
"j. c #466EA8",
"k. c #4573A6",
"l. c #4A74A2",
"z. c #4C7CA4",
"x. c #4774A9",
"c. c #4874AA",
"v. c #497BAC",
"b. c #477AAA",
"n. c #507EA9",
"m. c #4A858A",
"M. c #4D898C",
"N. c #4F8A91",
"B. c #4B8391",
"V. c #518E93",
"C. c #529195",
"Z. c #56989D",
"A. c #55969B",
"S. c #57878B",
"D. c #7F8181",
"F. c #6B8A8C",
"G. c #4F81A4",
"H. c #4B82AD",
"J. c #4F8AAB",
"K. c #5184A6",
"L. c #538BA6",
"P. c #5283A8",
"I. c #528CAC",
"U. c #5694AA",
"Y. c #5B9CAE",
"T. c #579AA0",
"R. c #4B85B0",
"E. c #4E8CB2",
"W. c #518DB2",
"Q. c #5394B4",
"!. c #5A95B1",
"~. c #579AB4",
"^. c #5A9DB3",
"/. c #589DB9",
"(. c #5BA1A6",
"). c #5DA2AC",
"_. c #5CA2B4",
"`. c #5BA2BA",
"'. c #5FA9BA",
"]. c #5FA8B7",
"[. c #64A3A8",
"{. c #60A6B4",
"}. c #62ADB5",
"|. c #62AEB9",
" X c #65A9B5",
".X c #64B0B7",
"XX c #65B3B9",
"oX c #69B6BC",
"OX c #69B9BE",
"+X c #71B6BD",
"@X c #7DB6BA",
"#X c #75A4A8",
"$X c #6ABBC2",
"%X c #75BAC1",
"&X c #8D9697",
"*X c #9ABABC",
"=X c #AAB3B4",
"-X c #89C5CA",
";X c #83C2C8",
":X c #91C1C6",
">X c #98CCD1",
",X c #B9C8C9",
"<X c #AED8DC",
"1X c #CEDFE1",
"2X c #C1E1E5",
"3X c None",
/* pixels */
"3X3X3X3X3X3X3X3X3X3X3X3X3X3X3X3X3X3X3X3X3X3X3X3X3X3X3X3X3X3X3X3X3X3X3X3X3X3X3X3X3X3X3X3X3X3X3X3X3X3X3X3X3X3X3X3X3X3X3X3X3X3X3X3X",
"3X3X3X3X3X3X3X3X3X3X3X3X3X3X3X3X3X3X3X3X3X3X3X3X3X3X3X3X3X3X3X3X3X3X3X3X3X3X3X3X3X3X3X3X3X3X3X3X3X3X3X3X3X3X3X3X3X3X3X3X3X3X3X3X",
"3X3X3X3X3X3X3X3X3X3X3X3X3X3X3X3X3X3X3X3X3X3X3X3X3X3X3X3X3X3X3X3X3X3X3X3X3X3X3X3X3X3X3X3X3X3X3X3X3X3X3X3X3X3X3X3X3X3X3X3X3X3X3X3X",
"3X3X3X3X3X3X3X3X3X3X3X3X3X3X3X3X3X3X3X3X3X3X3X3X3X3X3X3X3X3X3X3X3X3X3X3X3X3X3X3X3X3X3X3X3X3X3X3X3X3X3X3X3X3X3X3X3X3X3X3X3X3X3X3X",
"3X3X3X3X3X3X3X3X3X3X3X3X3X3X3X3X3X3X3X3X3X3X3X3X3X3X3X3X3X3X3X3X3X3X3X3X3X3X3X3X3X3X3X3X3X3X3X3X3X3X3X3X3X3X3X3X3X3X3X3X3X3X3X3X",
"3X3X3X3X3X3X3X3X3X3X3X3X3X3X3X3X3X3X3X3X3X3X3X3X3X3X3X3X3X3X3X3X3X3X3X3X3X3X3X3X3X3X3X3X3X3X3X3X3X3X3X3X3X3X3X3X3X3X3X3X3X3X3X3X",
"3X3X3X3X3X3X3X3X3X3X3X3X3X3X3X3X3X3X3X3X3X3X3X3X3X3X3X3X3X3X3X3X3X3X3X3X3X3X3X3X3X3X3X3X3X3X3X3X3X3X3X3X3X3X3X3X3X3X3X3X3X3X3X3X",
"3X3X3X3X3X3X3X3X3X3X3X3X3X3X3X3X3X3X3X3X3X3X3X3X3X3X3X3X3X3X3X3X3X3X3X3X3X3X3X3X3X3X3X3X3X3X3X3X3X3X3X3X3X3X3X3X3X3X3X3X3X3X3X3X",
"3X3X3X3X3X3X3X3X3X3X3X3X3X3X3X3X3X3X3X3X3X3X3X3X3X3X3X3X3X3X3X3X3X3X3X3X3X3X3X3X3X3X3X3X3X3X3X3X3X3X3X3X3X3X3X3X3X3X3X3X3X3X3X3X",
"3X3X3X3X3X3X3X3X3X3X3X3X3X3X3X3X3X3X3X3X3X3X3X3X3X3X3X3X3X3X3X3X3X3X3X3X3X3X3X3X3X3X3X3X3X3X3X3X3X3X3X3X3X3X3X3X3X3X3X3X3X3X3X3X",
"3X3X3X3X3X3X3X3X3X3X3X3X3X3X3X3X3X3X3X3X0 0 6 6 6 6 0 5 6 6 0 6 6 6 6 6 9 6 6 0 6 6 0 6 6 3X3X3X3X3X3X3X3X3X3X3X3X3X3X3X3X3X3X3X",
"3X3X3X3X3X3X3X3X3X3X3X3X3X3X3X3X3X3X3Xi i i p a a a a a a a a p p a a a a a p a a a a p i a 3X3X3X3X3X3X3X3X3X3X3X3X3X3X3X3X3X3X",
"3X3X3X3X3X3X3X3X3X3X3X3X3X3X3X3X3X3X3Xs d l l H H H K P P P P P P P P P P P P P P H H f d s a 3X3X3X3X3X3X3X3X3X3X3X3X3X3X3X3X3X",
"3X3X3X3X3X3X3X3X3X3X3X3X3X3X3X3X3X0 s h J X.<.&.2.2.p.d.a.a.a.a.a.a.a.d.a.a.a.a.d.p.r.O.I h a 0 3X3X3X3X3X3X3X3X3X3X3X3X3X3X3X3X",
"3X3X3X3X3X3X3X3X3X3X3X3X3X3X3X3X0 p s J @.,.h.k.H.J.U.Y.).).).).).).)._.Y.).)._.).U.z.t.<.X.h a 0 3X3X3X3X3X3X3X3X3X3X3X3X3X3X3X",
"3X3X3X3X3X3X3X3X3X3X3X3X3X3X3X3Xp d j @.,.h.v.J.E._.'.|.XXXXXXXXXXXX.XXX.XXX.XXX.X].!.n.y.%.z d a a 3X3X3X3X3X3X3X3X3X3X3X3X3X3X",
"3X3X3X3X3X3X3X3X3X3X3X3X3X3X0 s h k @.:.h.v.E.!._.'.|.XXXXXXXXXXoXXXXXXXXXXXXXXXXX|.{.Q.K.y.%.I h s i 3X3X3X3X3X3X3X3X3X3X3X3X3X",
"3X3X3X3X3X3X3X3X3X3X3X3X3X0 p d ..#.,.h.b.R.Q._.}.}..X.XXXXX.XXXXXXXXXXXXXXXXXXXXX|. X X!.P.y.%.X.h a 6 3X3X3X3X3X3X3X3X3X3X3X3X",
"3X3X3X3X3X3X3X3X3X3X3X3Xi a s j @.,.h.x.R.E.~.]..X.XXX.X.X.X.XXX.XXXXXXXXX.X.X.X}.XXXXXX{.!.K.t.%.J d a i 3X3X3X3X3X3X3X3X3X3X3X",
"3X3X3X3X3X3X3X3X3X3X3Xi s l k @.:.h.b.R.R.E.~.]..XXX.X.X.X].}.}..XXXXXXXXXXXXX}.|.XXXXoXXX X!.K.y.%...h s p 3X3X3X3X3X3X3X3X3X3X",
"3X3X3X3X3X3X3X3X3X3X0 a f ..#.,.h.b.R.R.E.E./.].].XXXX.X.X.X}.}..X.XXXXXXX.X.X.X.X.XXXoXXXXX].Y.G.y.;.X.h a 0 3X3X3X3X3X3X3X3X3X",
"3X3X3X3X3X3X3X3X3Xi i s k @.,.h.b.R.R.E.E.Q.~.]..X.X.X.XoX+X+X@X.X[.(.(.]..X.XXX.X X[.(.(.).].].!.H.t.=.X.d p i 3X3X3X3X3X3X3X3X",
"3X3X3X3X3X3X3X3X3Xs h j X.=.8.j.b.R.E.Q.~.~._.]..X.X.XXX%X-X>X:X#XS.) M.T.].XXXX.X).C.m.) M.(.]._.W.c.t.#.J d s s 3X3X3X3X3X3X3X",
"3X3X3X3X3X3X3X0 s h X.@.=.>.f.h.b.R.E.~._.].].].}..X}.XX;X<X2X,X&X( C F M.).XXOX}.Z.R Z C U V.).{.!.H.j.,.%.X.k s i 3X3X3X3X3X3X",
"3X3X3X3X3X3X6 0 s k #.>.8.9.f.h.b.R.Q./.].}..X.X.X.X}.XX%X<X1X,XD.< & V ) (.OX$X}.C.S = & C e.(.'./.E.v.j.1.#.} s i 6 3X3X3X3X3X",
"3X3X3X3X3X3X0 0 s k =.8.f.8.f.g.x.R.Q._.]..X.X.XXX.X.XXX*X*X=X&XW 1 X - R (.OX$X.XN.A o X , ) (.'.`.E.v.x.g.;.X.d i 0 3X3X3X3X3X",
"3X3X3X3X3X3X0 0 s z <.8.f.8.f.g.k.R.Q./.}..XXXXXXXXXXXXX[.F.` E > .   - R ).OX$X.XM.D o X ; ) (.$X/.Q.R.k.h.;.I d i 0 3X3X3X3X3X",
"3X3X3X3X3X3X0 0 s z #.8.8.8.f.h.b.R.Q./.}..X.X.XXXXXXX[.V.( , * O   X V ) (.$X$X.XN.D & o V ) ).`./.W.v.j.g.;.} s i 6 3X3X3X3X3X",
"3X3X3X3X3X3X6 0 s z =.8.8.8.f.g.x.R.Q._.'.].].Y.Y.^.^.U.e.G ; & & & - S m.(.OXOX.XA.Y V - Z e.L./.Q.E.v.k.g.>.X.s i 0 3X3X3X3X3X",
"3X3X3X3X3X3X0 i s k #.8.8.8.f.h.b.R.Q._.].].Y.K.l.s.s.s.u.T G D S S U e.A.}.XXOXXX(.M.( F T w.s.v.R.R.R.c.g.;...s r 6 3X3X3X3X3X",
"3X3X3X3X3X3X6 0 s z #.8.8.8.f.h.b.R.Q.].]._.L.y.:.%.<.:.r.p.B.V.V.V.C.T.)..XXXXXXX X(.A.V.d.2.:.1.k.H.R.c.g.<.X.h i 6 3X3X3X3X3X",
"3X3X3X3X3X3X0 0 s k #.8.f.8.8.g.k.v.E./.].).G.y.;.@.+.+.:.s.L.Y.).).)._.).)._._.Y.Y.{.Y.U.z.1.:.,.h.b.v.c.g.;...s i 0 3X3X3X3X3X",
"3X3X3X3X3X3X6 i s k <.8.f.8.8.g.g.c.H.W.~.~.U.s.y.:.@.+.%.t.l.I.I.J.J.G.G.G.G.G.G.G.K.P.K.l.1.1.1.h.x.k.h.g.;.X.s i 6 3X3X3X3X3X",
"3X3X3X3X3X3X0 0 s z ;.8.f.8.8.8.g.h.c.v.J.Q.!.!.K.s.:.+.+.<.:.2.1.1.1.1.r.r.r.:.1.1.2.7.t.t.k.k.k.h.h.g.f.8.;...d i 0 3X3X3X3X3X",
"3X3X3X3X3X3X6 0 s k +.>.8.9.8.8.8.8.h.k.H.E.~.^.Y.K.y.#.+.+.o.o.o.o.o.o.+.+.+.+.+.+.+.*.<.1.k.b.b.j.g.8.f.8.;.X.d i 0 3X3X3X3X3X",
"3X3X3X3X3X3X3X9 r f J +.=.>.8.8.8.8.f.h.k.H.Q./._.I.x.7.#.Q Q b n b M m ....}  .| +.+.<.:.h.k.x.k.g.f.,.f.8.>.X.d i 6 3X3X3X3X3X",
"3X3X3X3X3X3X3X8 9 a d j X.;.9.8.8.8.8.g.g.k.R.W.Q.E.H.k.i.~ N v c c v n m ....}  .+.>.1.h.h.j.h.h.f.8.8.f.f.;.X.d i 0 3X3X3X3X3X",
"3X3X3X3X3X3X3X3X2 8 0 s z @.>.8.8.8.9.8.f.g.c.v.E.E.E.z.i.^ [ ] ' ' { N M ..+.}  .*.,.x.b.c.h.g.f.f.8.8.8.8.=.I d 0 6 3X3X3X3X3X",
"3X3X3X3X3X3X3X3X# 2 9 0 f I #.%.%.%.;.;.8.f.h.x.v.R.R.v.i.q./ [ [ [ [ N Q $.-.-.*.>.t.x.b.x.g.f.8.8.8.8.=.#.+.j s 9 5 3X3X3X3X3X",
"3X3X3X3X3X3X3X3X@ # 2 8 r g L L j L O.%.8.f.f.h.j.j.k.j.i.5.~ ! ! N 0.0.3.>.<.*.<.>.t.h.j.h.f.8.f.f.8.=.-...h s t 8 3X3X3X3X3X3X",
"3X3X3X3X3X3X3X3X% % # # q q q q q e g I 9.8.7.8.8.t.g.t.8.6.6.6.4.4.4.9.9.8.;.>.>.9.8.8.8.t.8.8.8.8.8.;.X.h a 9 8 2 3X3X3X3X3X3X",
"3X3X3X3X3X3X3X3X3X3X3X% + + @ 3X3X% e L #.9.:.:.;.9.;.;.:.9.;.:.9.9.;.=.%.9.:.;.;.;.;.:.%.9.:.;.%.9.%.O.h a 9 3 2 3X3X3X3X3X3X3X",
"3X3X3X3X3X3X3X3X3X3X3X3X+ + 3X3X3X+ q y j L I I I L L I I I J X.X.X.I I K I I P I I I I L I I I I I L j g 9 3 4 3X3X3X3X3X3X3X3X",
"3X3X3X3X3X3X3X3X3X3X3X3X+ + 3X3X3X@ % q e y y y y y u u e u y y y y u u u u u u u u e y y y y u u u y e 8 2 $ 3X3X3X3X3X3X3X3X3X",
"3X3X3X3X3X3X3X3X3X3X3X3X3X3X3X3X3X3X3X3X3X3X3X3X3X3X3X3X3X3X3X3X3X3X3X3X3X3X3X3X3X3X3X3X3X3X3X3X3X3X3X3X3X3X3X3X3X3X3X3X3X3X3X3X",
"3X3X3X3X3X3X3X3X3X3X3X3X3X3X3X3X3X3X3X3X3X3X3X3X3X3X3X3X3X3X3X3X3X3X3X3X3X3X3X3X3X3X3X3X3X3X3X3X3X3X3X3X3X3X3X3X3X3X3X3X3X3X3X3X",
"3X3X3X3X3X3X3X3X3X3X3X3X3X3X3X3X3X3X3X3X3X3X3X3X3X3X3X3X3X3X3X3X3X3X3X3X3X3X3X3X3X3X3X3X3X3X3X3X3X3X3X3X3X3X3X3X3X3X3X3X3X3X3X3X",
"3X3X3X3X3X3X3X3X3X3X3X3X3X3X3X3X3X3X3X3X3X3X3X3X3X3X3X3X3X3X3X3X3X3X3X3X3X3X3X3X3X3X3X3X3X3X3X3X3X3X3X3X3X3X3X3X3X3X3X3X3X3X3X3X",
"3X3X3X3X3X3X3X3X3X3X3X3X3X3X3X3X3X3X3X3X3X3X3X3X3X3X3X3X3X3X3X3X3X3X3X3X3X3X3X3X3X3X3X3X3X3X3X3X3X3X3X3X3X3X3X3X3X3X3X3X3X3X3X3X",
"3X3X3X3X3X3X3X3X3X3X3X3X3X3X3X3X3X3X3X3X3X3X3X3X3X3X3X3X3X3X3X3X3X3X3X3X3X3X3X3X3X3X3X3X3X3X3X3X3X3X3X3X3X3X3X3X3X3X3X3X3X3X3X3X",
"3X3X3X3X3X3X3X3X3X3X3X3X3X3X3X3X3X3X3X3X3X3X3X3X3X3X3X3X3X3X3X3X3X3X3X3X3X3X3X3X3X3X3X3X3X3X3X3X3X3X3X3X3X3X3X3X3X3X3X3X3X3X3X3X",
"3X3X3X3X3X3X3X3X3X3X3X3X3X3X3X3X3X3X3X3X3X3X3X3X3X3X3X3X3X3X3X3X3X3X3X3X3X3X3X3X3X3X3X3X3X3X3X3X3X3X3X3X3X3X3X3X3X3X3X3X3X3X3X3X",
"3X3X3X3X3X3X3X3X3X3X3X3X3X3X3X3X3X3X3X3X3X3X3X3X3X3X3X3X3X3X3X3X3X3X3X3X3X3X3X3X3X3X3X3X3X3X3X3X3X3X3X3X3X3X3X3X3X3X3X3X3X3X3X3X",
"3X3X3X3X3X3X3X3X3X3X3X3X3X3X3X3X3X3X3X3X3X3X3X3X3X3X3X3X3X3X3X3X3X3X3X3X3X3X3X3X3X3X3X3X3X3X3X3X3X3X3X3X3X3X3X3X3X3X3X3X3X3X3X3X",
"3X3X3X3X3X3X3X3X3X3X3X3X3X3X3X3X3X3X3X3X3X3X3X3X3X3X3X3X3X3X3X3X3X3X3X3X3X3X3X3X3X3X3X3X3X3X3X3X3X3X3X3X3X3X3X3X3X3X3X3X3X3X3X3X"
};
