/* XPM */
static char *result[] = {
/* columns rows colors chars-per-pixel */
"64 64 256 2 ",
"   c #56331E",
".  c #57331F",
"X  c #57341F",
"o  c #58341F",
"O  c #573420",
"+  c #583520",
"@  c #583521",
"#  c #593621",
"$  c #593522",
"%  c #593622",
"&  c #593722",
"*  c #5A3622",
"=  c #5A3722",
"-  c #5A3723",
";  c #5A3823",
":  c #5B3823",
">  c #5B3824",
",  c #5B3925",
"<  c #5C3925",
"1  c #5C3A26",
"2  c #5D3A26",
"3  c #5C3B26",
"4  c #5D3B26",
"5  c #5D3B27",
"6  c #5D3C27",
"7  c #5E3B28",
"8  c #5E3C28",
"9  c #5E3D29",
"0  c #5F3D29",
"q  c #603E29",
"w  c #603E2A",
"e  c #613E2A",
"r  c #613E2B",
"t  c #613F2B",
"y  c #613F2C",
"u  c #623F2C",
"i  c #633F2C",
"p  c #5B402E",
"a  c #5D4C3E",
"s  c #5E4E3F",
"d  c #61402C",
"f  c #62402D",
"g  c #63402D",
"h  c #62412D",
"j  c #63412D",
"k  c #62412E",
"l  c #63412E",
"z  c #604837",
"x  c #634836",
"c  c #624B3A",
"v  c #634C3B",
"b  c #644D3C",
"n  c #644D3D",
"m  c #654E3D",
"M  c #6C4F3E",
"N  c #5F4F40",
"B  c #5F5040",
"V  c #5F5041",
"C  c #605041",
"Z  c #605142",
"A  c #615142",
"S  c #615143",
"D  c #615243",
"F  c #625243",
"G  c #675040",
"H  c #675140",
"J  c #675141",
"K  c #615244",
"L  c #625244",
"P  c #625344",
"I  c #645546",
"U  c #645547",
"Y  c #685140",
"T  c #685141",
"R  c #685241",
"E  c #6A5241",
"W  c #685242",
"Q  c #695242",
"!  c #685342",
"~  c #695343",
"^  c #6A5343",
"/  c #6A5444",
"(  c #6B5545",
")  c #6B5645",
"_  c #6E5847",
"`  c #6F5948",
"'  c #6C5E4F",
"]  c #715A49",
"[  c #705A4A",
"{  c #705B4A",
"}  c #715B4B",
"|  c #715C4B",
" . c #715C4C",
".. c #715D4D",
"X. c #725C4C",
"o. c #725D4C",
"O. c #725D4D",
"+. c #735E4D",
"@. c #725D4E",
"#. c #725E4E",
"$. c #735E4E",
"%. c #725E4F",
"&. c #725F4F",
"*. c #745E4D",
"=. c #6E5F53",
"-. c #74604F",
";. c #6F6053",
":. c #6F6054",
">. c #706256",
",. c #716356",
"<. c #726457",
"1. c #756556",
"2. c #766456",
"3. c #736558",
"4. c #736659",
"5. c #746659",
"6. c #74665A",
"7. c #76695D",
"8. c #786A5C",
"9. c #716D63",
"0. c #726E64",
"q. c #757267",
"w. c #7D7165",
"e. c #757368",
"r. c #777469",
"t. c #77746A",
"y. c #787469",
"u. c #78746A",
"i. c #78756A",
"p. c #79756A",
"a. c #79756B",
"s. c #79766B",
"d. c #7A766B",
"f. c #79766C",
"g. c #7A776C",
"h. c #7B776E",
"j. c #7B776F",
"k. c #7B786E",
"l. c #7C786D",
"z. c #7C796F",
"x. c #7D7971",
"c. c #7E7A72",
"v. c #7E7B73",
"b. c #807D73",
"n. c #807D75",
"m. c #817E74",
"M. c #817E75",
"N. c #827E74",
"B. c #827F75",
"V. c #817F76",
"C. c #827F76",
"Z. c #827F77",
"A. c #828076",
"S. c #838076",
"D. c #828077",
"F. c #838178",
"G. c #848379",
"H. c #85837A",
"J. c #868478",
"K. c #878578",
"L. c #868479",
"P. c #878479",
"I. c #878579",
"U. c #878679",
"Y. c #86847A",
"T. c #87857A",
"R. c #888679",
"E. c #88867A",
"W. c #88877A",
"Q. c #89877A",
"!. c #88867B",
"~. c #89867B",
"^. c #88877B",
"/. c #89877B",
"(. c #89857D",
"). c #89877C",
"_. c #8A857E",
"`. c #8A867E",
"'. c #8A877E",
"]. c #8A877F",
"[. c #8B877F",
"{. c #89887B",
"}. c #8A887B",
"|. c #8A897B",
" X c #8A887C",
".X c #8A897C",
"XX c #8B897C",
"oX c #8A887D",
"OX c #8B897D",
"+X c #8B8A7C",
"@X c #8B8A7D",
"#X c #8B897E",
"$X c #8B887F",
"%X c #8C8A7D",
"&X c #8C8B7D",
"*X c #8C8A7E",
"=X c #8C8B7E",
"-X c #8C8A7F",
";X c #8D8B7F",
":X c #8C8880",
">X c #8C8980",
",X c #8C8981",
"<X c #8C8A80",
"1X c #8D8A80",
"2X c #8C8B80",
"3X c #8D8B80",
"4X c #8D8A81",
"5X c #8D8B81",
"6X c #8E8B81",
"7X c #8D8B82",
"8X c #8E8B82",
"9X c #8E8A83",
"0X c #8E8B83",
"qX c #8F8B83",
"wX c #8D8C80",
"eX c #8D8C81",
"rX c #8E8C81",
"tX c #8E8C82",
"yX c #8F8C82",
"uX c #8F8D82",
"iX c #8E8C83",
"pX c #8F8C83",
"aX c #8F8D83",
"sX c #8F8D84",
"dX c #908D82",
"fX c #908D83",
"gX c #908E83",
"hX c #908C84",
"jX c #908D84",
"kX c #908D85",
"lX c #918D85",
"zX c #908E84",
"xX c #908E85",
"cX c #918F85",
"vX c #928F85",
"bX c #908F86",
"nX c #918F86",
"mX c #918F87",
"MX c #938F86",
"NX c #929085",
"BX c #939086",
"VX c #939186",
"CX c #939187",
"ZX c #949087",
"AX c #939188",
"SX c #949188",
"DX c #949288",
"FX c #959288",
"GX c #959389",
"HX c #969389",
"JX c #95928B",
"KX c #97948A",
"LX c #96948B",
"PX c #97958B",
"IX c #98948A",
"UX c None",
/* pixels */
"UXUX*.X.o.| | X.O.O.O.O.O.+.-.-.-.-.-.-.-.$.#.#.#.#.#.#.@.#.#.#.#.#.%.&.&.&.%.#.@... . . .| } | | } { { { [ { | } [ ` _ ] M UXUX",
"UX1.IXfXrX/.I.I.I.I.I.I.I.I..X@X+X&X&X&X@XU.I.I.I.I.I.I.I.I.I.I.I.I.I.I.I.I.I.I.I.I.I.I.I.I.I.I.I.I.I.I.I.I.E.%XwX#X/.-XGXw.p UX",
"^ N.PXrX#XI.J.I.I.I.I.J.U.Q.+XE.I.XX&X|.E.I.J.I.I.I.I.I.I.I.I.I.I.I.I.I.I.I.I.I.I.I.J.J.J.I.I.I.I.I.I.I.J.J.I.I.{.E.J./.VXB.I # ",
"( S.LX3XE.J.I.I.I.I.I.J.Q.+X}.I.P.E.E.I.J.L.I.I.I.I.I.I.I.I.I.I.I.I.I.I.I.I.I.I.I.J.I.OXE.J.I.I.I.I.J.I. XOXI.J.J.J.I.J.dXb.K * ",
") b.DX3XI.J.I.I.I.I.I.J.I.I.I.J.K.J.J.J.I.I.I.I.I.I.I.I.I.I.I.I.I.I.I.I.I.I.I.I.I.J.I.oXT.J.I.I.I.J.I./.-X#XI.J.I.I.I.J.yXg.N > ",
"! a.nX-X*XE.J.I.I.I.I.I.J.J.J.I.I.I.I.I.I.I.I.I.I.I.I.I.I.I.I.I.I.I.I.I.I.I.I.I.I.I.J.J.J.I.I.I.I.J.E.;X*X/.J.I.I.I.I.J.rXd.V 1 ",
"T u.aXE.3X/.J.I.I.I.I.I.I.I.I.I.I.I.I.I.I.I.I.I.I.I.I.I.I.I.I.I.I.I.I.I.I.I.I.I.I.I.I.I.I.I.I.I.I.J.I. XI.I.J.I.I.I.I.J.6Xa.Z 8 ",
"T u.tXI.!.I.J.I.I.I.I.I.I.I.I.I.I.I.I.I.I.I.I.I.I.I.I.I.I.I.I.I.I.I.I.I.I.I.I.I.I.I.I.I.I.I.I.I.I.I.J.J.J.J.I.I.I.I.I.J.3Xu.Z 0 ",
"T y.8XJ.J.J.I.I.I.I.I.I.I.I.I.I.I.I.I.I.I.I.I.I.I.I.I.I.I.I.I.I.I.I.I.I.I.I.I.I.I.I.I.I.I.I.I.I.I.I.I.I.I.I.I.I.I.I.I.J.3Xt.A 0 ",
"T y.8XJ.I.I.I.I.I.I.I.I.I.I.I.I.I.I.I.I.I.I.I.I.I.I.I.I.I.I.I.I.I.I.I.I.I.I.I.I.I.I.I.I.I.I.I.I.I.I.I.I.I.I.I.I.I.I.I.J.3Xt.A w ",
"T y.8XJ.I.I.I.I.I.I.I.I.I.I.I.I.I.I.I.I.I.I.I.I.I.I.I.I.I.I.I.I.I.I.I.I.I.I.I.I.I.I.I.I.I.I.I.I.I.I.I.I.I.I.I.I.I.I.I.J.3Xt.S w ",
"W u.8XJ.I.I.I.I.I.I.I.I.I.I.I.I.I.I.I.I.I.I.I.I.I.I.I.I.I.I.I.I.I.I.I.I.I.I.I.I.I.I.I.I.I.I.I.I.I.I.I.I.I.I.I.I.I.I.I.J.3Xt.S r ",
"W u.6XJ.J.I.I.I.I.I.I.I.I.I.I.I.I.I.I.I.I.I.I.I.I.I.I.I.I.I.I.I.I.I.I.I.I.I.I.I.I.I.I.I.I.I.I.I.I.I.I.I.I.I.I.I.I.I.I.J.3Xt.D t ",
"W u.tXT.J.J.I.I.I.I.I.I.I.I.I.I.I.I.I.I.I.I.I.I.I.I.I.I.I.I.I.I.I.I.I.I.I.I.I.I.I.I.I.I.I.I.I.I.I.I.I.I.I.I.I.I.I.I.I.J.3Xt.D u ",
"W u.zX-X XI.J.I.I.I.I.I.I.I.I.I.I.I.I.I.I.I.I.I.I.I.I.I.I.I.I.I.I.I.I.I.I.I.I.I.I.I.I.I.I.I.I.I.I.I.I.I.I.I.I.I.I.I.I.J.3Xt.D y ",
"W u.zX-XOXE.J.I.I.I.I.I.I.I.I.I.I.I.I.I.I.I.I.I.I.I.I.I.I.I.I.I.I.I.I.I.I.I.I.I.I.I.I.I.I.I.I.I.I.I.I.I.I.I.I.I.I.I.I.J.<Xt.K f ",
"Q u.jX*XI.I.J.I.I.I.I.I.I.I.I.I.I.I.I.I.I.I.I.I.I.I.I.I.I.I.I.I.I.I.I.I.I.I.I.I.I.I.I.I.I.I.I.I.I.I.I.I.I.I.I.I.I.I.J.E.uXt.K h ",
"W u.sX*XI.J.J.I.I.I.I.I.I.I.I.I.I.I.I.I.I.I.I.I.I.I.I.I.I.I.I.I.I.I.I.I.I.I.I.I.I.I.I.I.I.I.I.I.I.I.I.I.I.I.I.I.I.J.J. XcXu.L j ",
"W u.sX*X{.Q.I.J.I.I.I.I.I.I.I.I.I.I.I.I.I.I.I.I.I.I.I.I.I.I.I.I.I.I.I.I.I.I.I.I.I.I.I.I.I.I.I.I.I.I.I.I.I.I.I.I.J.I.).#XcXi.L l ",
"W i.7XE.+X+XI.J.I.I.I.I.I.I.I.I.I.I.I.I.I.I.I.I.I.I.I.I.I.I.I.I.I.I.I.I.I.I.I.I.I.I.I.I.I.I.I.I.I.I.I.I.I.I.I.I.J.I.-X*XgXi.L k ",
"W u.5XI.Q.W.I.J.I.I.I.I.I.I.I.I.I.I.I.I.I.I.I.I.I.I.I.I.I.I.I.I.I.I.I.I.I.I.I.I.I.I.I.I.I.I.I.I.I.I.I.I.I.I.I.I.J.I./.I.2Xi.L j ",
"W u.4XJ.J.J.J.I.I.I.I.I.I.I.I.I.I.I.I.I.I.I.I.I.I.I.I.I.I.I.I.I.I.I.I.I.I.I.I.I.I.I.I.I.I.I.I.I.I.I.I.I.I.I.I.I.I.J.J.J.3Xi.L g ",
"R u.4XJ.I.I.I.I.I.I.I.I.I.I.I.I.I.I.I.I.I.I.I.I.I.I.I.I.I.I.I.I.I.I.I.I.I.I.I.I.I.I.I.I.I.I.I.I.I.I.I.I.I.I.I.I.I.I.I.J.2Xi.L g ",
"R r.4XJ.I.I.I.I.I.I.I.I.I.I.I.I.I.I.I.I.I.I.I.I.I.I.I.I.I.I.I.I.I.I.I.I.I.I.I.I.I.I.I.I.I.I.I.I.I.I.I.I.I.I.I.I.I.I.I.J.2Xi.L g ",
"H r.4XJ.I.I.I.I.I.I.I.I.I.I.I.I.I.I.I.I.I.I.I.I.I.I.I.I.I.I.I.I.I.I.I.I.I.I.I.I.I.I.I.I.I.I.I.I.I.I.I.I.I.I.I.I.I.I.I.J.2Xi.L j ",
"H r.4XJ.I.I.I.I.I.I.I.I.I.I.I.I.I.I.I.I.I.I.I.I.I.I.I.I.I.I.I.I.I.I.I.I.I.I.I.I.I.I.I.I.I.I.I.I.I.I.I.I.I.I.I.I.I.I.I.J.2Xi.P h ",
"H r.4XJ.I.I.I.I.I.I.I.I.I.I.I.I.I.I.I.I.I.I.I.I.I.I.I.I.I.I.I.I.I.I.I.I.I.I.I.I.I.I.I.I.I.I.I.I.I.I.I.I.I.I.I.I.I.I.I.J.2Xi.P h ",
"H r.4XJ.I.I.I.I.I.I.I.I.I.I.I.I.I.I.I.I.I.I.I.I.I.I.I.I.I.I.I.I.I.I.I.I.I.I.I.I.I.I.I.I.I.I.I.I.I.I.I.I.I.I.I.I.I.I.I.J.2Xi.L h ",
"H r.4XJ.I.I.I.I.I.I.I.I.I.I.I.I.I.I.I.I.I.I.I.I.I.I.I.I.I.I.I.I.I.I.I.I.I.I.I.I.I.I.I.I.I.I.I.I.I.I.I.I.I.I.I.I.I.I.I.J.2Xi.L f ",
"H r.4XJ.I.I.I.I.I.I.I.I.I.I.I.I.I.I.I.I.I.I.I.I.I.I.I.I.I.I.I.I.I.I.I.I.I.I.I.I.I.I.I.I.I.I.I.I.I.I.I.I.I.I.I.I.I.I.I.J.2Xi.L f ",
"J r.4XJ.I.I.I.I.I.I.I.I.I.I.I.I.I.I.I.I.I.I.I.I.I.I.I.I.I.I.I.I.I.I.I.I.I.I.I.I.I.I.I.I.I.I.I.I.I.I.I.I.I.I.I.I.I.I.I.J.2Xi.L f ",
"T r.4XJ.I.I.I.I.I.I.I.I.I.I.I.I.I.I.I.I.I.I.I.I.I.I.I.I.I.I.I.I.I.I.I.I.I.I.I.I.I.I.I.I.I.I.I.I.I.I.I.I.I.I.I.I.I.I.I.J.2Xi.L f ",
"T r.4XJ.I.I.I.I.I.I.I.I.I.I.I.I.I.I.I.I.I.I.I.I.I.I.I.I.I.I.I.I.I.I.I.I.I.I.I.I.I.I.I.I.I.I.I.I.I.I.I.I.I.I.I.I.I.I.I.J.2Xi.L f ",
"T r.1XJ.I.I.I.I.I.I.I.I.I.I.I.I.I.I.I.I.I.I.I.I.I.I.I.I.I.I.I.I.I.I.I.I.I.I.I.I.I.I.I.I.I.I.I.I.I.I.I.I.I.I.I.I.I.I.I.J.2Xi.L f ",
"T r.4XJ.I.I.I.I.I.I.I.I.I.I.I.I.I.I.I.I.I.I.I.I.I.I.I.I.I.I.I.I.I.I.I.I.I.I.I.I.I.I.I.I.I.I.I.I.I.I.I.I.I.I.I.I.I.I.I.J.2Xi.L f ",
"R r.4XJ.I.I.I.I.I.I.I.I.I.I.I.I.I.I.I.I.I.I.I.I.I.I.I.I.I.I.I.I.I.I.I.I.I.I.I.I.I.I.I.I.I.I.I.I.I.I.I.I.I.I.I.I.I.I.I.J.2Xi.L f ",
"W r.4XJ.I.I.I.I.I.I.I.I.I.I.I.I.I.I.I.I.I.I.I.I.I.I.I.I.I.I.I.I.I.I.I.I.I.I.I.I.I.I.I.I.I.I.I.I.I.I.I.I.I.I.I.I.I.I.I.J.2Xi.F i ",
"W r.4XJ.I.I.I.I.I.I.I.I.I.I.I.I.I.I.I.I.I.I.I.I.I.I.I.I.I.I.I.I.I.I.I.I.I.I.I.I.I.I.I.I.I.I.I.I.I.I.I.I.I.I.I.I.I.I.I.J.2Xi.F u ",
"W r.4XJ.I.I.I.I.I.I.I.I.I.I.I.I.I.I.I.I.I.I.I.I.I.I.I.I.I.I.I.I.I.I.I.I.I.I.I.I.I.I.I.I.I.I.I.I.I.I.I.I.I.I.I.I.I.I.I.J.2Xi.D d ",
"R y.5XJ.I.I.I.I.I.I.I.I.I.I.I.I.I.I.I.I.I.I.I.I.I.I.I.I.I.I.I.I.I.I.I.I.I.I.I.I.I.I.I.I.I.I.I.I.I.I.I.I.I.I.I.I.I.I.I.J.2Xi.L y ",
"R y.6XJ.I.I.I.I.I.I.I.I.I.I.I.I.I.I.I.I.I.I.I.I.I.I.I.I.I.I.I.I.I.I.I.I.I.I.I.I.I.I.I.I.I.I.I.I.I.I.I.I.I.I.I.I.I.I.I.J.2Xi.L t ",
"W y.5XJ.I.I.I.I.I.I.I.I.I.I.I.I.I.I.I.I.I.I.I.I.I.I.I.I.I.I.I.I.I.I.I.I.I.I.I.I.I.I.I.I.I.I.I.I.I.I.I.I.I.I.I.I.I.I.I.J.2Xi.L t ",
"W y.5XJ.I.I.I.I.I.I.I.I.I.I.I.I.I.I.I.I.I.I.I.I.I.I.I.I.I.I.I.I.I.I.I.I.I.I.I.I.I.I.I.I.I.I.I.I.I.I.I.I.I.I.I.I.I.I.I.J.2Xi.L t ",
"R y.5XJ.I.I.I.I.I.I.I.I.I.I.I.I.I.I.I.I.I.I.I.I.I.I.I.I.I.I.I.I.I.I.I.I.I.I.I.I.I.I.I.I.I.I.I.I.I.I.I.I.I.I.I.I.I.I.J.J.<Xa.P t ",
"T u.iXJ.I.I.I.I.I.I.I.I.I.I.I.I.I.I.I.I.I.I.I.I.I.I.I.I.I.I.I.I.I.I.I.I.I.I.I.I.I.I.I.I.I.I.I.I.I.I.I.I.I.I.I.I.I.J.I.T.5Xa.L t ",
"T a.AXJ.I.I.I.I.I.I.I.I.I.I.I.I.I.I.I.I.I.I.I.I.I.I.I.I.I.I.I.I.I.I.I.I.I.I.I.I.I.I.I.I.I.I.I.I.I.I.I.I.I.I.I.I.I.J./.3XcXa.L t ",
"Y u.pXJ.I.I.I.I.I.I.I.I.I.I.I.I.I.I.I.I.I.I.I.I.I.I.I.I.I.I.I.I.I.I.I.I.I.I.I.I.I.I.I.I.I.I.I.I.I.I.I.I.I.I.I.I.I.J.E.-XcXs.L e ",
"H u.5XJ.I.I.I.I.I.I.I.I.I.I.I.I.I.I.I.I.I.I.I.I.I.I.I.I.I.I.I.I.I.I.I.I.I.I.I.I.I.I.I.I.I.I.I.I.I.I.I.I.I.I.I.I.I.J.I.I.zXf.L r ",
"/ b.aXJ.I.I.I.I.I.I.I.I.I.I.I.I.I.I.I.I.I.I.I.I.I.I.I.I.I.I.I.I.I.I.I.I.I.I.I.I.I.I.J.J.I.I.I.I.I.I.I.I.I.I.I.I.I.I.J.I.zXa.L e ",
"/ C.zXJ.I.I.I.I.I.I.I.I.I.I.I.I.I.I.I.I.I.I.I.I.I.I.I.I.I.I.I.I.I.I.I.I.I.I.I.I.I.I.E.R.J.J.I.I.I.I.I.I.I.I.I.I.I.I.J.I.zXf.F q ",
"~ m.zXJ.J.I.I.I.I.I.I.I.I.I.I.I.I.I.I.I.I.I.I.I.I.I.I.I.I.I.I.I.I.I.I.I.I.I.I.I.I.I.}./.I.I.J.I.I.I.I.I.I.I.I.I.I.J.J.J.5Xf.F q ",
"G g.cX XI.J.I.I.I.I.I.I.I.I.I.I.I.I.I.I.I.I.I.I.I.I.I.I.I.I.I.I.I.I.I.I.I.I.I.I.I.I./.XXXXQ.J.I.I.I.I.I.I.I.I.I.J.!. XT.<Xf.D 0 ",
"m u.CX3X/.I.J.I.I.I.I.I.I.I.I.I.I.I.I.I.I.I.I.I.I.I.I.I.I.I.I.I.I.I.I.I.I.I.I.I.I.I.I.E.}.E.J.I.I.I.I.I.I.I.I.I.J./.=X!.<Xf.D 8 ",
"n i.CXwX3X!.J.I.I.I.I.I.I.I.I.I.I.I.I.I.I.I.I.I.I.I.I.I.I.I.I.I.I.I.I.I.I.I.I.I.I.I.J.J.I.I.I.I.I.I.I.I.I.I.I.I.J.I.E.I.<Xf.D 8 ",
"b i.SXrX#XI.J.I.I.I.I.I.I.I.I.I.I.I.I.I.I.I.I.I.I.I.I.I.I.I.I.I.I.I.I.I.I.I.I.I.I.I.I.I.I.I.I.I.I.I.I.I.I.I.I.I.I.J.J.J.<Xf.D 5 ",
"v p.HXOXE.J.I.I.I.J.J.I.I.I.I.I.I.I.I.I.I.I.I.I.I.I.I.I.I.I.I.I.I.I.I.I.I.I.I.I.I.I.I.I.I.I.I.I.I.I.I.I.I.I.I.I.I.I.J.!.cXl.A 4 ",
"v a.KX!.J.I.I.I.I.E.E.J.I.I.I.I.I.I.I.I.I.I.I.I.I.I.I.I.I.I.I.I.I.I.I.I.I.I.I.I.I.I.I.I.I.I.I.I.I.I.I.I.I.I.I.I.J.J.I.#XGXz.C < ",
"c p.KX*X).J.J.J.J.#XoXJ.I.I.I.I.I.I.I.I.I.I.I.I.I.I.I.I.I.I.I.I.I.I.I.I.I.I.I.I.I.I.I.I.I.I.I.I.I.I.I.I.I.I.I.I.I.J.!.3XGXk.B : ",
"c q.HXeX3X X!./.E.I.I.J.J.J.J.J.J.J.J.J.J.J.J.J.J.J.J.J.J.J.J.J.J.J.J.J.J.J.J.J.J.J.J.J.J.J.J.J.J.J.J.J.J.J.J.I.*XoX/.#XGXh.s # ",
"z 0.BXNXgXgXgXgX3X/././././././.!.!.!.!.!.!.E.E.E.E.E.E.E.E.E.E.E.E.!.!.^.^.^.!.!.!.!.!.!.!.~./././././././.oX3XgXgXgXzXmX9.a @ ",
"c A.xXHXFXZXZXMXvXlXjXjXjXhX8X4X>X:X:X:X:X:X$X[.[.[.`.(._.`.'.'.].[.>X,X4X4X4X4X>X,XpXkXkXkXkX0X9X0XqXpXpXpXvXZXBXBXSXJXY.e.U o ",
"E <XbXH.V.x.j.j.j.j.j.j.j.j.j.j.j.j.j.j.j.j.j.j.j.j.j.j.j.j.j.j.j.j.j.j.j.j.j.j.j.j.n.Z.D.D.v.j.j.j.j.j.j.j.j.j.j.c.M.F.iXG.' X ",
"UX2.7.4.6.>.:.:.:.:.:.:.:.:.:.:.:.:.:.=.=.=.=.=.=.=.=.=.=.=.=.=.=.=.=.=.=.=.=.=.=.=.;.:.<.3.:.=.=.=.=.=.=.=.=.=.=.,.3.3.5.8.x UX",
"UXUXO O + % - , 3 3 5 8 9 9 9 9 9 9 9 6 5 7 7 7 7 7 7 7 7 8 8 8 8 8 8 8 8 8 8 8 8 8 8 8 8 8 2 , ; = & & & & % % $ @ + O .   UXUX"
};
